<svg xmlns="http://www.w3.org/2000/svg" xmlns:xlink="http://www.w3.org/1999/xlink" width="500" zoomAndPan="magnify" viewBox="0 0 375 374.999991" height="500" preserveAspectRatio="xMidYMid meet" version="1.2"><defs/><g id="23e9892023"><g style="fill:#ffde59;fill-opacity:0.302;"><g transform="translate(47.082129, 182.456639)"><path style="stroke:none" d="M 27.265625 -1.09375 C 22.617188 -0.65625 18.242188 -1.21875 14.140625 -2.78125 C 10.046875 -4.34375 6.664062 -6.832031 4 -10.25 C 1.34375 -13.675781 -0.234375 -18.066406 -0.734375 -23.421875 C -1.398438 -30.460938 -0.0507812 -36.421875 3.3125 -41.296875 C 6.6875 -46.179688 11.550781 -49.203125 17.90625 -50.359375 C 18.78125 -50.523438 19.265625 -50.957031 19.359375 -51.65625 C 19.453125 -52.351562 19.117188 -52.867188 18.359375 -53.203125 C 15.992188 -54.265625 14.0625 -55.914062 12.5625 -58.15625 C 11.0625 -60.394531 10.144531 -63.273438 9.8125 -66.796875 C 9.351562 -71.671875 10.148438 -76.039062 12.203125 -79.90625 C 14.265625 -83.78125 17.425781 -86.925781 21.6875 -89.34375 C 25.945312 -91.769531 31.035156 -93.257812 36.953125 -93.8125 C 41.503906 -94.238281 45.242188 -93.941406 48.171875 -92.921875 C 51.097656 -91.910156 53.394531 -90.472656 55.0625 -88.609375 C 56.726562 -86.742188 57.921875 -84.753906 58.640625 -82.640625 C 59.359375 -80.535156 59.796875 -78.644531 59.953125 -76.96875 C 60.328125 -72.96875 59.695312 -69.617188 58.0625 -66.921875 C 56.425781 -64.222656 54.445312 -62.765625 52.125 -62.546875 C 50.039062 -62.347656 48.921875 -63.085938 48.765625 -64.765625 C 48.515625 -67.398438 47.675781 -69.640625 46.25 -71.484375 C 44.820312 -73.335938 42.144531 -74.082031 38.21875 -73.71875 C 34.0625 -73.320312 31.164062 -71.957031 29.53125 -69.625 C 27.894531 -67.289062 27.203125 -64.84375 27.453125 -62.28125 C 27.640625 -60.28125 28.320312 -58.585938 29.5 -57.203125 C 30.675781 -55.828125 32.054688 -54.847656 33.640625 -54.265625 C 36.847656 -54.566406 39.59375 -55.023438 41.875 -55.640625 C 44.15625 -56.253906 46.132812 -56.640625 47.8125 -56.796875 C 49.65625 -56.972656 50.722656 -55.503906 51.015625 -52.390625 C 51.617188 -45.984375 47.117188 -42.328125 37.515625 -41.421875 C 35.921875 -41.273438 34.257812 -41.34375 32.53125 -41.625 C 30.800781 -41.90625 29.003906 -42.566406 27.140625 -43.609375 C 25.503906 -43.046875 24.257812 -41.9375 23.40625 -40.28125 C 22.550781 -38.625 22.207031 -36.914062 22.375 -35.15625 C 22.625 -32.4375 24.363281 -30.421875 27.59375 -29.109375 C 30.820312 -27.796875 35.316406 -27.410156 41.078125 -27.953125 C 45.722656 -28.390625 49.875 -29.550781 53.53125 -31.4375 C 57.195312 -33.320312 59.890625 -35.835938 61.609375 -38.984375 C 62.148438 -39.992188 62.9375 -40.410156 63.96875 -40.234375 C 65 -40.054688 65.890625 -39.59375 66.640625 -38.84375 C 67.398438 -38.101562 67.613281 -37.316406 67.28125 -36.484375 C 63.257812 -26.015625 57.785156 -17.707031 50.859375 -11.5625 C 43.941406 -5.414062 36.078125 -1.925781 27.265625 -1.09375 Z M 27.265625 -1.09375 "/></g></g><g style="fill:#ffde59;fill-opacity:0.302;"><g transform="translate(109.498847, 176.583005)"><path style="stroke:none" d="M 7.5625 -0.71875 C 4.757812 -0.445312 2.519531 -1.082031 0.84375 -2.625 C -0.832031 -4.164062 -1.789062 -6.175781 -2.03125 -8.65625 C -2.289062 -11.445312 -2.378906 -14.96875 -2.296875 -19.21875 C -2.210938 -23.46875 -1.5625 -28.113281 -0.34375 -33.15625 C 0.882812 -38.28125 2.101562 -42.957031 3.3125 -47.1875 C 4.519531 -51.414062 5.832031 -54.84375 7.25 -57.46875 C 8.664062 -60.101562 10.171875 -61.5 11.765625 -61.65625 C 13.117188 -61.78125 14.117188 -61.410156 14.765625 -60.546875 C 15.410156 -59.679688 15.789062 -58.644531 15.90625 -57.4375 C 16.09375 -55.4375 16.816406 -54.132812 18.078125 -53.53125 C 19.347656 -52.925781 20.859375 -53.671875 22.609375 -55.765625 C 24.640625 -58.148438 26.800781 -60.050781 29.09375 -61.46875 C 31.382812 -62.894531 33.847656 -63.734375 36.484375 -63.984375 C 39.453125 -64.265625 41.863281 -63.765625 43.71875 -62.484375 C 45.570312 -61.203125 46.878906 -59.507812 47.640625 -57.40625 C 47.867188 -56.613281 48.226562 -56.179688 48.71875 -56.109375 C 49.21875 -56.046875 49.859375 -56.570312 50.640625 -57.6875 C 52.710938 -60.46875 54.96875 -62.632812 57.40625 -64.1875 C 59.84375 -65.75 62.503906 -66.664062 65.390625 -66.9375 C 70.109375 -67.382812 73.523438 -66.617188 75.640625 -64.640625 C 77.765625 -62.660156 78.972656 -60.148438 79.265625 -57.109375 C 79.453125 -55.023438 79.3125 -53.09375 78.84375 -51.3125 C 78.375 -49.53125 77.894531 -47.789062 77.40625 -46.09375 C 76.914062 -44.394531 76.765625 -42.546875 76.953125 -40.546875 C 77.347656 -36.378906 79.507812 -34.484375 83.4375 -34.859375 C 85.269531 -35.023438 86.75 -35.742188 87.875 -37.015625 C 89.007812 -38.296875 90.09375 -39.875 91.125 -41.75 C 91.675781 -42.769531 92.484375 -43.191406 93.546875 -43.015625 C 94.609375 -42.835938 95.519531 -42.375 96.28125 -41.625 C 97.050781 -40.882812 97.226562 -40.097656 96.8125 -39.265625 C 96.132812 -37.910156 95.347656 -35.957031 94.453125 -33.40625 C 93.566406 -30.863281 92.472656 -28.132812 91.171875 -25.21875 C 89.867188 -22.3125 88.296875 -19.503906 86.453125 -16.796875 C 84.609375 -14.085938 82.457031 -11.804688 80 -9.953125 C 77.550781 -8.109375 74.691406 -7.03125 71.421875 -6.71875 C 67.578125 -6.351562 64.773438 -7.359375 63.015625 -9.734375 C 61.253906 -12.117188 60.210938 -15.03125 59.890625 -18.46875 C 59.609375 -21.507812 59.753906 -24.453125 60.328125 -27.296875 C 60.910156 -30.140625 61.515625 -32.738281 62.140625 -35.09375 C 62.773438 -37.445312 63.015625 -39.425781 62.859375 -41.03125 C 62.734375 -42.394531 62.210938 -43.394531 61.296875 -44.03125 C 60.390625 -44.675781 59.257812 -44.9375 57.90625 -44.8125 C 55.59375 -44.59375 53.539062 -43.425781 51.75 -41.3125 C 49.96875 -39.207031 48.613281 -36.660156 47.6875 -33.671875 C 46.757812 -30.679688 46.4375 -27.664062 46.71875 -24.625 C 46.882812 -22.863281 47.148438 -21.515625 47.515625 -20.578125 C 47.890625 -19.648438 48.160156 -18.304688 48.328125 -16.546875 C 48.492188 -14.859375 48.398438 -13.085938 48.046875 -11.234375 C 47.691406 -9.390625 46.8125 -7.773438 45.40625 -6.390625 C 44.007812 -5.003906 41.789062 -4.164062 38.75 -3.875 C 36.03125 -3.625 33.675781 -4.175781 31.6875 -5.53125 C 29.707031 -6.882812 28.535156 -9.519531 28.171875 -13.4375 C 27.878906 -16.476562 28.101562 -19.441406 28.84375 -22.328125 C 29.582031 -25.222656 30.332031 -27.957031 31.09375 -30.53125 C 31.863281 -33.101562 32.15625 -35.390625 31.96875 -37.390625 C 31.8125 -39.003906 31.28125 -40.148438 30.375 -40.828125 C 29.46875 -41.503906 28.332031 -41.773438 26.96875 -41.640625 C 24.644531 -41.421875 22.59375 -40.238281 20.8125 -38.09375 C 19.039062 -35.957031 17.695312 -33.269531 16.78125 -30.03125 C 15.875 -26.789062 15.59375 -23.375 15.9375 -19.78125 L 16.4375 -14.375 C 16.625 -12.375 16.570312 -10.375 16.28125 -8.375 C 15.988281 -6.375 15.179688 -4.664062 13.859375 -3.25 C 12.546875 -1.832031 10.445312 -0.988281 7.5625 -0.71875 Z M 7.5625 -0.71875 "/></g></g><g style="fill:#ffde59;fill-opacity:0.302;"><g transform="translate(201.44347, 167.930691)"><path style="stroke:none" d="M 56.796875 -38.53125 C 57.210938 -39.289062 57.945312 -39.617188 59 -39.515625 C 60.0625 -39.421875 61.003906 -39.066406 61.828125 -38.453125 C 62.648438 -37.847656 62.867188 -37.039062 62.484375 -36.03125 C 61.585938 -33.53125 60.359375 -30.914062 58.796875 -28.1875 C 57.234375 -25.457031 55.191406 -23.101562 52.671875 -21.125 C 50.160156 -19.144531 46.941406 -17.972656 43.015625 -17.609375 L 41.59375 -17.46875 C 39.007812 -13.113281 35.769531 -9.519531 31.875 -6.6875 C 27.988281 -3.863281 23.804688 -2.238281 19.328125 -1.8125 C 13.960938 -1.3125 9.347656 -2.691406 5.484375 -5.953125 C 1.628906 -9.222656 -0.585938 -13.976562 -1.171875 -20.21875 C -1.597656 -24.695312 -1.207031 -29.351562 0 -34.1875 C 1.195312 -39.03125 3.085938 -43.570312 5.671875 -47.8125 C 8.265625 -52.0625 11.445312 -55.570312 15.21875 -58.34375 C 18.988281 -61.125 23.273438 -62.738281 28.078125 -63.1875 C 31.367188 -63.5 34.394531 -63.117188 37.15625 -62.046875 C 39.914062 -60.972656 42.21875 -58.988281 44.0625 -56.09375 C 45.90625 -53.207031 47.066406 -49.242188 47.546875 -44.203125 C 47.941406 -39.960938 47.726562 -35.78125 46.90625 -31.65625 L 47.75 -31.734375 C 49.507812 -31.898438 51.144531 -32.519531 52.65625 -33.59375 C 54.175781 -34.675781 55.554688 -36.320312 56.796875 -38.53125 Z M 23.828125 -27.3125 C 25.828125 -27.5 27.53125 -28.265625 28.9375 -29.609375 C 30.34375 -30.953125 31.40625 -32.519531 32.125 -34.3125 C 32.851562 -36.113281 33.132812 -37.863281 32.96875 -39.5625 C 32.8125 -41.3125 32.148438 -42.753906 30.984375 -43.890625 C 29.828125 -45.035156 28.09375 -45.5 25.78125 -45.28125 C 23.84375 -45.101562 22.1875 -44.382812 20.8125 -43.125 C 19.445312 -41.863281 18.421875 -40.332031 17.734375 -38.53125 C 17.054688 -36.738281 16.800781 -34.960938 16.96875 -33.203125 C 17.132812 -31.441406 17.757812 -29.960938 18.84375 -28.765625 C 19.925781 -27.578125 21.585938 -27.09375 23.828125 -27.3125 Z M 23.828125 -27.3125 "/></g></g><g style="fill:#ffde59;fill-opacity:0.302;"><g transform="translate(259.058894, 162.508876)"><path style="stroke:none" d="M 18.015625 -67.203125 C 14.972656 -66.921875 12.320312 -67.398438 10.0625 -68.640625 C 7.8125 -69.878906 6.675781 -72.351562 6.65625 -76.0625 C 6.613281 -79.851562 7.648438 -82.535156 9.765625 -84.109375 C 11.878906 -85.679688 14.5 -86.613281 17.625 -86.90625 C 20.65625 -87.1875 23.296875 -86.75 25.546875 -85.59375 C 27.804688 -84.4375 28.953125 -81.960938 28.984375 -78.171875 C 29.003906 -74.453125 27.960938 -71.769531 25.859375 -70.125 C 23.753906 -68.476562 21.140625 -67.503906 18.015625 -67.203125 Z M 30.15625 -36.015625 C 30.5625 -36.785156 31.289062 -37.117188 32.34375 -37.015625 C 33.40625 -36.910156 34.347656 -36.550781 35.171875 -35.9375 C 36.003906 -35.332031 36.226562 -34.53125 35.84375 -33.53125 C 34.425781 -29.675781 33.0625 -25.910156 31.75 -22.234375 C 30.4375 -18.554688 29 -15.191406 27.4375 -12.140625 C 25.875 -9.097656 24.050781 -6.609375 21.96875 -4.671875 C 19.882812 -2.734375 17.40625 -1.632812 14.53125 -1.375 C 12.769531 -1.207031 11.285156 -1.953125 10.078125 -3.609375 C 8.296875 4.867188 6.238281 11.722656 3.90625 16.953125 C 1.570312 22.179688 -1.207031 26.078125 -4.4375 28.640625 C -7.675781 31.203125 -11.535156 32.691406 -16.015625 33.109375 C -22.335938 33.703125 -27.375 32.703125 -31.125 30.109375 C -34.882812 27.523438 -37.003906 23.710938 -37.484375 18.671875 C -37.859375 14.660156 -37.539062 11.378906 -36.53125 8.828125 C -35.519531 6.273438 -34.4375 4.476562 -33.28125 3.4375 C -32.125 2.394531 -31.472656 2.234375 -31.328125 2.953125 C -30.878906 5.171875 -29.707031 6.914062 -27.8125 8.1875 C -25.914062 9.46875 -23.488281 9.96875 -20.53125 9.6875 C -17.238281 9.375 -14.632812 8.457031 -12.71875 6.9375 C -10.8125 5.425781 -9.257812 3.066406 -8.0625 -0.140625 C -6.863281 -3.359375 -5.691406 -7.664062 -4.546875 -13.0625 C -3.410156 -18.46875 -1.96875 -25.164062 -0.21875 -33.15625 C 1.75 -42.226562 3.957031 -49.21875 6.40625 -54.125 C 8.863281 -59.039062 11.8125 -61.660156 15.25 -61.984375 C 17 -62.148438 18.375 -61.875 19.375 -61.15625 C 20.375 -60.445312 20.960938 -59.125 21.140625 -57.1875 C 21.378906 -54.71875 20.878906 -51.664062 19.640625 -48.03125 C 18.410156 -44.40625 17.039062 -39.457031 15.53125 -33.1875 C 14.882812 -29.75 15.039062 -27.40625 16 -26.15625 C 16.96875 -24.914062 18.132812 -24.359375 19.5 -24.484375 C 21.5 -24.671875 23.363281 -25.851562 25.09375 -28.03125 C 26.820312 -30.21875 28.507812 -32.878906 30.15625 -36.015625 Z M 30.15625 -36.015625 "/></g></g><g style="fill:#ffde59;fill-opacity:0.302;"><g transform="translate(290.027186, 159.59465)"><path style="stroke:none" d="M 18.015625 -67.203125 C 15.128906 -66.929688 12.585938 -67.320312 10.390625 -68.375 C 8.191406 -69.425781 6.945312 -71.546875 6.65625 -74.734375 C 6.25 -78.972656 7.148438 -81.984375 9.359375 -83.765625 C 11.578125 -85.546875 14.332031 -86.59375 17.625 -86.90625 C 20.65625 -87.1875 23.296875 -86.75 25.546875 -85.59375 C 27.804688 -84.4375 28.953125 -81.960938 28.984375 -78.171875 C 29.003906 -74.453125 27.960938 -71.769531 25.859375 -70.125 C 23.753906 -68.476562 21.140625 -67.503906 18.015625 -67.203125 Z M 10.796875 -1.015625 C 6.804688 -0.640625 3.832031 -1.832031 1.875 -4.59375 C -0.0820312 -7.363281 -1.253906 -10.832031 -1.640625 -15 C -1.910156 -17.800781 -1.910156 -20.785156 -1.640625 -23.953125 C -1.367188 -27.117188 -0.9375 -30.1875 -0.34375 -33.15625 C 1.644531 -42.132812 3.738281 -49.085938 5.9375 -54.015625 C 8.144531 -58.953125 10.96875 -61.582031 14.40625 -61.90625 C 17.125 -62.15625 18.648438 -60.484375 18.984375 -56.890625 C 19.210938 -54.484375 18.984375 -51.976562 18.296875 -49.375 C 17.609375 -46.769531 16.941406 -44.207031 16.296875 -41.6875 C 15.648438 -39.164062 15.429688 -36.820312 15.640625 -34.65625 C 15.828125 -32.65625 16.46875 -31.195312 17.5625 -30.28125 C 18.65625 -29.375 20 -28.992188 21.59375 -29.140625 C 23.425781 -29.316406 24.910156 -30.019531 26.046875 -31.25 C 27.191406 -32.488281 28.28125 -34.050781 29.3125 -35.9375 C 29.863281 -36.957031 30.648438 -37.390625 31.671875 -37.234375 C 32.703125 -37.085938 33.59375 -36.625 34.34375 -35.84375 C 35.101562 -35.070312 35.316406 -34.3125 34.984375 -33.5625 C 34.304688 -32.207031 33.539062 -30.28125 32.6875 -27.78125 C 31.832031 -25.28125 30.773438 -22.554688 29.515625 -19.609375 C 28.265625 -16.660156 26.773438 -13.832031 25.046875 -11.125 C 23.316406 -8.425781 21.289062 -6.140625 18.96875 -4.265625 C 16.644531 -2.390625 13.921875 -1.304688 10.796875 -1.015625 Z M 10.796875 -1.015625 "/></g></g><g style="fill:#ffde59;fill-opacity:0.502;"><g transform="translate(45.079977, 178.235546)"><path style="stroke:none" d="M 27.265625 -1.09375 C 22.617188 -0.65625 18.242188 -1.21875 14.140625 -2.78125 C 10.046875 -4.34375 6.664062 -6.832031 4 -10.25 C 1.34375 -13.675781 -0.234375 -18.066406 -0.734375 -23.421875 C -1.398438 -30.460938 -0.0507812 -36.421875 3.3125 -41.296875 C 6.6875 -46.179688 11.550781 -49.203125 17.90625 -50.359375 C 18.78125 -50.523438 19.265625 -50.957031 19.359375 -51.65625 C 19.453125 -52.351562 19.117188 -52.867188 18.359375 -53.203125 C 15.992188 -54.265625 14.0625 -55.914062 12.5625 -58.15625 C 11.0625 -60.394531 10.144531 -63.273438 9.8125 -66.796875 C 9.351562 -71.671875 10.148438 -76.039062 12.203125 -79.90625 C 14.265625 -83.78125 17.425781 -86.925781 21.6875 -89.34375 C 25.945312 -91.769531 31.035156 -93.257812 36.953125 -93.8125 C 41.503906 -94.238281 45.242188 -93.941406 48.171875 -92.921875 C 51.097656 -91.910156 53.394531 -90.472656 55.0625 -88.609375 C 56.726562 -86.742188 57.921875 -84.753906 58.640625 -82.640625 C 59.359375 -80.535156 59.796875 -78.644531 59.953125 -76.96875 C 60.328125 -72.96875 59.695312 -69.617188 58.0625 -66.921875 C 56.425781 -64.222656 54.445312 -62.765625 52.125 -62.546875 C 50.039062 -62.347656 48.921875 -63.085938 48.765625 -64.765625 C 48.515625 -67.398438 47.675781 -69.640625 46.25 -71.484375 C 44.820312 -73.335938 42.144531 -74.082031 38.21875 -73.71875 C 34.0625 -73.320312 31.164062 -71.957031 29.53125 -69.625 C 27.894531 -67.289062 27.203125 -64.84375 27.453125 -62.28125 C 27.640625 -60.28125 28.320312 -58.585938 29.5 -57.203125 C 30.675781 -55.828125 32.054688 -54.847656 33.640625 -54.265625 C 36.847656 -54.566406 39.59375 -55.023438 41.875 -55.640625 C 44.15625 -56.253906 46.132812 -56.640625 47.8125 -56.796875 C 49.65625 -56.972656 50.722656 -55.503906 51.015625 -52.390625 C 51.617188 -45.984375 47.117188 -42.328125 37.515625 -41.421875 C 35.921875 -41.273438 34.257812 -41.34375 32.53125 -41.625 C 30.800781 -41.90625 29.003906 -42.566406 27.140625 -43.609375 C 25.503906 -43.046875 24.257812 -41.9375 23.40625 -40.28125 C 22.550781 -38.625 22.207031 -36.914062 22.375 -35.15625 C 22.625 -32.4375 24.363281 -30.421875 27.59375 -29.109375 C 30.820312 -27.796875 35.316406 -27.410156 41.078125 -27.953125 C 45.722656 -28.390625 49.875 -29.550781 53.53125 -31.4375 C 57.195312 -33.320312 59.890625 -35.835938 61.609375 -38.984375 C 62.148438 -39.992188 62.9375 -40.410156 63.96875 -40.234375 C 65 -40.054688 65.890625 -39.59375 66.640625 -38.84375 C 67.398438 -38.101562 67.613281 -37.316406 67.28125 -36.484375 C 63.257812 -26.015625 57.785156 -17.707031 50.859375 -11.5625 C 43.941406 -5.414062 36.078125 -1.925781 27.265625 -1.09375 Z M 27.265625 -1.09375 "/></g></g><g style="fill:#ffde59;fill-opacity:0.502;"><g transform="translate(107.496695, 172.361912)"><path style="stroke:none" d="M 7.5625 -0.71875 C 4.757812 -0.445312 2.519531 -1.082031 0.84375 -2.625 C -0.832031 -4.164062 -1.789062 -6.175781 -2.03125 -8.65625 C -2.289062 -11.445312 -2.378906 -14.96875 -2.296875 -19.21875 C -2.210938 -23.46875 -1.5625 -28.113281 -0.34375 -33.15625 C 0.882812 -38.28125 2.101562 -42.957031 3.3125 -47.1875 C 4.519531 -51.414062 5.832031 -54.84375 7.25 -57.46875 C 8.664062 -60.101562 10.171875 -61.5 11.765625 -61.65625 C 13.117188 -61.78125 14.117188 -61.410156 14.765625 -60.546875 C 15.410156 -59.679688 15.789062 -58.644531 15.90625 -57.4375 C 16.09375 -55.4375 16.816406 -54.132812 18.078125 -53.53125 C 19.347656 -52.925781 20.859375 -53.671875 22.609375 -55.765625 C 24.640625 -58.148438 26.800781 -60.050781 29.09375 -61.46875 C 31.382812 -62.894531 33.847656 -63.734375 36.484375 -63.984375 C 39.453125 -64.265625 41.863281 -63.765625 43.71875 -62.484375 C 45.570312 -61.203125 46.878906 -59.507812 47.640625 -57.40625 C 47.867188 -56.613281 48.226562 -56.179688 48.71875 -56.109375 C 49.21875 -56.046875 49.859375 -56.570312 50.640625 -57.6875 C 52.710938 -60.46875 54.96875 -62.632812 57.40625 -64.1875 C 59.84375 -65.75 62.503906 -66.664062 65.390625 -66.9375 C 70.109375 -67.382812 73.523438 -66.617188 75.640625 -64.640625 C 77.765625 -62.660156 78.972656 -60.148438 79.265625 -57.109375 C 79.453125 -55.023438 79.3125 -53.09375 78.84375 -51.3125 C 78.375 -49.53125 77.894531 -47.789062 77.40625 -46.09375 C 76.914062 -44.394531 76.765625 -42.546875 76.953125 -40.546875 C 77.347656 -36.378906 79.507812 -34.484375 83.4375 -34.859375 C 85.269531 -35.023438 86.75 -35.742188 87.875 -37.015625 C 89.007812 -38.296875 90.09375 -39.875 91.125 -41.75 C 91.675781 -42.769531 92.484375 -43.191406 93.546875 -43.015625 C 94.609375 -42.835938 95.519531 -42.375 96.28125 -41.625 C 97.050781 -40.882812 97.226562 -40.097656 96.8125 -39.265625 C 96.132812 -37.910156 95.347656 -35.957031 94.453125 -33.40625 C 93.566406 -30.863281 92.472656 -28.132812 91.171875 -25.21875 C 89.867188 -22.3125 88.296875 -19.503906 86.453125 -16.796875 C 84.609375 -14.085938 82.457031 -11.804688 80 -9.953125 C 77.550781 -8.109375 74.691406 -7.03125 71.421875 -6.71875 C 67.578125 -6.351562 64.773438 -7.359375 63.015625 -9.734375 C 61.253906 -12.117188 60.210938 -15.03125 59.890625 -18.46875 C 59.609375 -21.507812 59.753906 -24.453125 60.328125 -27.296875 C 60.910156 -30.140625 61.515625 -32.738281 62.140625 -35.09375 C 62.773438 -37.445312 63.015625 -39.425781 62.859375 -41.03125 C 62.734375 -42.394531 62.210938 -43.394531 61.296875 -44.03125 C 60.390625 -44.675781 59.257812 -44.9375 57.90625 -44.8125 C 55.59375 -44.59375 53.539062 -43.425781 51.75 -41.3125 C 49.96875 -39.207031 48.613281 -36.660156 47.6875 -33.671875 C 46.757812 -30.679688 46.4375 -27.664062 46.71875 -24.625 C 46.882812 -22.863281 47.148438 -21.515625 47.515625 -20.578125 C 47.890625 -19.648438 48.160156 -18.304688 48.328125 -16.546875 C 48.492188 -14.859375 48.398438 -13.085938 48.046875 -11.234375 C 47.691406 -9.390625 46.8125 -7.773438 45.40625 -6.390625 C 44.007812 -5.003906 41.789062 -4.164062 38.75 -3.875 C 36.03125 -3.625 33.675781 -4.175781 31.6875 -5.53125 C 29.707031 -6.882812 28.535156 -9.519531 28.171875 -13.4375 C 27.878906 -16.476562 28.101562 -19.441406 28.84375 -22.328125 C 29.582031 -25.222656 30.332031 -27.957031 31.09375 -30.53125 C 31.863281 -33.101562 32.15625 -35.390625 31.96875 -37.390625 C 31.8125 -39.003906 31.28125 -40.148438 30.375 -40.828125 C 29.46875 -41.503906 28.332031 -41.773438 26.96875 -41.640625 C 24.644531 -41.421875 22.59375 -40.238281 20.8125 -38.09375 C 19.039062 -35.957031 17.695312 -33.269531 16.78125 -30.03125 C 15.875 -26.789062 15.59375 -23.375 15.9375 -19.78125 L 16.4375 -14.375 C 16.625 -12.375 16.570312 -10.375 16.28125 -8.375 C 15.988281 -6.375 15.179688 -4.664062 13.859375 -3.25 C 12.546875 -1.832031 10.445312 -0.988281 7.5625 -0.71875 Z M 7.5625 -0.71875 "/></g></g><g style="fill:#ffde59;fill-opacity:0.502;"><g transform="translate(199.441318, 163.709598)"><path style="stroke:none" d="M 56.796875 -38.53125 C 57.210938 -39.289062 57.945312 -39.617188 59 -39.515625 C 60.0625 -39.421875 61.003906 -39.066406 61.828125 -38.453125 C 62.648438 -37.847656 62.867188 -37.039062 62.484375 -36.03125 C 61.585938 -33.53125 60.359375 -30.914062 58.796875 -28.1875 C 57.234375 -25.457031 55.191406 -23.101562 52.671875 -21.125 C 50.160156 -19.144531 46.941406 -17.972656 43.015625 -17.609375 L 41.59375 -17.46875 C 39.007812 -13.113281 35.769531 -9.519531 31.875 -6.6875 C 27.988281 -3.863281 23.804688 -2.238281 19.328125 -1.8125 C 13.960938 -1.3125 9.347656 -2.691406 5.484375 -5.953125 C 1.628906 -9.222656 -0.585938 -13.976562 -1.171875 -20.21875 C -1.597656 -24.695312 -1.207031 -29.351562 0 -34.1875 C 1.195312 -39.03125 3.085938 -43.570312 5.671875 -47.8125 C 8.265625 -52.0625 11.445312 -55.570312 15.21875 -58.34375 C 18.988281 -61.125 23.273438 -62.738281 28.078125 -63.1875 C 31.367188 -63.5 34.394531 -63.117188 37.15625 -62.046875 C 39.914062 -60.972656 42.21875 -58.988281 44.0625 -56.09375 C 45.90625 -53.207031 47.066406 -49.242188 47.546875 -44.203125 C 47.941406 -39.960938 47.726562 -35.78125 46.90625 -31.65625 L 47.75 -31.734375 C 49.507812 -31.898438 51.144531 -32.519531 52.65625 -33.59375 C 54.175781 -34.675781 55.554688 -36.320312 56.796875 -38.53125 Z M 23.828125 -27.3125 C 25.828125 -27.5 27.53125 -28.265625 28.9375 -29.609375 C 30.34375 -30.953125 31.40625 -32.519531 32.125 -34.3125 C 32.851562 -36.113281 33.132812 -37.863281 32.96875 -39.5625 C 32.8125 -41.3125 32.148438 -42.753906 30.984375 -43.890625 C 29.828125 -45.035156 28.09375 -45.5 25.78125 -45.28125 C 23.84375 -45.101562 22.1875 -44.382812 20.8125 -43.125 C 19.445312 -41.863281 18.421875 -40.332031 17.734375 -38.53125 C 17.054688 -36.738281 16.800781 -34.960938 16.96875 -33.203125 C 17.132812 -31.441406 17.757812 -29.960938 18.84375 -28.765625 C 19.925781 -27.578125 21.585938 -27.09375 23.828125 -27.3125 Z M 23.828125 -27.3125 "/></g></g><g style="fill:#ffde59;fill-opacity:0.502;"><g transform="translate(257.056742, 158.287783)"><path style="stroke:none" d="M 18.015625 -67.203125 C 14.972656 -66.921875 12.320312 -67.398438 10.0625 -68.640625 C 7.8125 -69.878906 6.675781 -72.351562 6.65625 -76.0625 C 6.613281 -79.851562 7.648438 -82.535156 9.765625 -84.109375 C 11.878906 -85.679688 14.5 -86.613281 17.625 -86.90625 C 20.65625 -87.1875 23.296875 -86.75 25.546875 -85.59375 C 27.804688 -84.4375 28.953125 -81.960938 28.984375 -78.171875 C 29.003906 -74.453125 27.960938 -71.769531 25.859375 -70.125 C 23.753906 -68.476562 21.140625 -67.503906 18.015625 -67.203125 Z M 30.15625 -36.015625 C 30.5625 -36.785156 31.289062 -37.117188 32.34375 -37.015625 C 33.40625 -36.910156 34.347656 -36.550781 35.171875 -35.9375 C 36.003906 -35.332031 36.226562 -34.53125 35.84375 -33.53125 C 34.425781 -29.675781 33.0625 -25.910156 31.75 -22.234375 C 30.4375 -18.554688 29 -15.191406 27.4375 -12.140625 C 25.875 -9.097656 24.050781 -6.609375 21.96875 -4.671875 C 19.882812 -2.734375 17.40625 -1.632812 14.53125 -1.375 C 12.769531 -1.207031 11.285156 -1.953125 10.078125 -3.609375 C 8.296875 4.867188 6.238281 11.722656 3.90625 16.953125 C 1.570312 22.179688 -1.207031 26.078125 -4.4375 28.640625 C -7.675781 31.203125 -11.535156 32.691406 -16.015625 33.109375 C -22.335938 33.703125 -27.375 32.703125 -31.125 30.109375 C -34.882812 27.523438 -37.003906 23.710938 -37.484375 18.671875 C -37.859375 14.660156 -37.539062 11.378906 -36.53125 8.828125 C -35.519531 6.273438 -34.4375 4.476562 -33.28125 3.4375 C -32.125 2.394531 -31.472656 2.234375 -31.328125 2.953125 C -30.878906 5.171875 -29.707031 6.914062 -27.8125 8.1875 C -25.914062 9.46875 -23.488281 9.96875 -20.53125 9.6875 C -17.238281 9.375 -14.632812 8.457031 -12.71875 6.9375 C -10.8125 5.425781 -9.257812 3.066406 -8.0625 -0.140625 C -6.863281 -3.359375 -5.691406 -7.664062 -4.546875 -13.0625 C -3.410156 -18.46875 -1.96875 -25.164062 -0.21875 -33.15625 C 1.75 -42.226562 3.957031 -49.21875 6.40625 -54.125 C 8.863281 -59.039062 11.8125 -61.660156 15.25 -61.984375 C 17 -62.148438 18.375 -61.875 19.375 -61.15625 C 20.375 -60.445312 20.960938 -59.125 21.140625 -57.1875 C 21.378906 -54.71875 20.878906 -51.664062 19.640625 -48.03125 C 18.410156 -44.40625 17.039062 -39.457031 15.53125 -33.1875 C 14.882812 -29.75 15.039062 -27.40625 16 -26.15625 C 16.96875 -24.914062 18.132812 -24.359375 19.5 -24.484375 C 21.5 -24.671875 23.363281 -25.851562 25.09375 -28.03125 C 26.820312 -30.21875 28.507812 -32.878906 30.15625 -36.015625 Z M 30.15625 -36.015625 "/></g></g><g style="fill:#ffde59;fill-opacity:0.502;"><g transform="translate(288.025034, 155.373557)"><path style="stroke:none" d="M 18.015625 -67.203125 C 15.128906 -66.929688 12.585938 -67.320312 10.390625 -68.375 C 8.191406 -69.425781 6.945312 -71.546875 6.65625 -74.734375 C 6.25 -78.972656 7.148438 -81.984375 9.359375 -83.765625 C 11.578125 -85.546875 14.332031 -86.59375 17.625 -86.90625 C 20.65625 -87.1875 23.296875 -86.75 25.546875 -85.59375 C 27.804688 -84.4375 28.953125 -81.960938 28.984375 -78.171875 C 29.003906 -74.453125 27.960938 -71.769531 25.859375 -70.125 C 23.753906 -68.476562 21.140625 -67.503906 18.015625 -67.203125 Z M 10.796875 -1.015625 C 6.804688 -0.640625 3.832031 -1.832031 1.875 -4.59375 C -0.0820312 -7.363281 -1.253906 -10.832031 -1.640625 -15 C -1.910156 -17.800781 -1.910156 -20.785156 -1.640625 -23.953125 C -1.367188 -27.117188 -0.9375 -30.1875 -0.34375 -33.15625 C 1.644531 -42.132812 3.738281 -49.085938 5.9375 -54.015625 C 8.144531 -58.953125 10.96875 -61.582031 14.40625 -61.90625 C 17.125 -62.15625 18.648438 -60.484375 18.984375 -56.890625 C 19.210938 -54.484375 18.984375 -51.976562 18.296875 -49.375 C 17.609375 -46.769531 16.941406 -44.207031 16.296875 -41.6875 C 15.648438 -39.164062 15.429688 -36.820312 15.640625 -34.65625 C 15.828125 -32.65625 16.46875 -31.195312 17.5625 -30.28125 C 18.65625 -29.375 20 -28.992188 21.59375 -29.140625 C 23.425781 -29.316406 24.910156 -30.019531 26.046875 -31.25 C 27.191406 -32.488281 28.28125 -34.050781 29.3125 -35.9375 C 29.863281 -36.957031 30.648438 -37.390625 31.671875 -37.234375 C 32.703125 -37.085938 33.59375 -36.625 34.34375 -35.84375 C 35.101562 -35.070312 35.316406 -34.3125 34.984375 -33.5625 C 34.304688 -32.207031 33.539062 -30.28125 32.6875 -27.78125 C 31.832031 -25.28125 30.773438 -22.554688 29.515625 -19.609375 C 28.265625 -16.660156 26.773438 -13.832031 25.046875 -11.125 C 23.316406 -8.425781 21.289062 -6.140625 18.96875 -4.265625 C 16.644531 -2.390625 13.921875 -1.304688 10.796875 -1.015625 Z M 10.796875 -1.015625 "/></g></g><g style="fill:#ffbd59;fill-opacity:1;"><g transform="translate(43.077832, 174.014453)"><path style="stroke:none" d="M 27.265625 -1.09375 C 22.617188 -0.65625 18.242188 -1.21875 14.140625 -2.78125 C 10.046875 -4.34375 6.664062 -6.832031 4 -10.25 C 1.34375 -13.675781 -0.234375 -18.066406 -0.734375 -23.421875 C -1.398438 -30.460938 -0.0507812 -36.421875 3.3125 -41.296875 C 6.6875 -46.179688 11.550781 -49.203125 17.90625 -50.359375 C 18.78125 -50.523438 19.265625 -50.957031 19.359375 -51.65625 C 19.453125 -52.351562 19.117188 -52.867188 18.359375 -53.203125 C 15.992188 -54.265625 14.0625 -55.914062 12.5625 -58.15625 C 11.0625 -60.394531 10.144531 -63.273438 9.8125 -66.796875 C 9.351562 -71.671875 10.148438 -76.039062 12.203125 -79.90625 C 14.265625 -83.78125 17.425781 -86.925781 21.6875 -89.34375 C 25.945312 -91.769531 31.035156 -93.257812 36.953125 -93.8125 C 41.503906 -94.238281 45.242188 -93.941406 48.171875 -92.921875 C 51.097656 -91.910156 53.394531 -90.472656 55.0625 -88.609375 C 56.726562 -86.742188 57.921875 -84.753906 58.640625 -82.640625 C 59.359375 -80.535156 59.796875 -78.644531 59.953125 -76.96875 C 60.328125 -72.96875 59.695312 -69.617188 58.0625 -66.921875 C 56.425781 -64.222656 54.445312 -62.765625 52.125 -62.546875 C 50.039062 -62.347656 48.921875 -63.085938 48.765625 -64.765625 C 48.515625 -67.398438 47.675781 -69.640625 46.25 -71.484375 C 44.820312 -73.335938 42.144531 -74.082031 38.21875 -73.71875 C 34.0625 -73.320312 31.164062 -71.957031 29.53125 -69.625 C 27.894531 -67.289062 27.203125 -64.84375 27.453125 -62.28125 C 27.640625 -60.28125 28.320312 -58.585938 29.5 -57.203125 C 30.675781 -55.828125 32.054688 -54.847656 33.640625 -54.265625 C 36.847656 -54.566406 39.59375 -55.023438 41.875 -55.640625 C 44.15625 -56.253906 46.132812 -56.640625 47.8125 -56.796875 C 49.65625 -56.972656 50.722656 -55.503906 51.015625 -52.390625 C 51.617188 -45.984375 47.117188 -42.328125 37.515625 -41.421875 C 35.921875 -41.273438 34.257812 -41.34375 32.53125 -41.625 C 30.800781 -41.90625 29.003906 -42.566406 27.140625 -43.609375 C 25.503906 -43.046875 24.257812 -41.9375 23.40625 -40.28125 C 22.550781 -38.625 22.207031 -36.914062 22.375 -35.15625 C 22.625 -32.4375 24.363281 -30.421875 27.59375 -29.109375 C 30.820312 -27.796875 35.316406 -27.410156 41.078125 -27.953125 C 45.722656 -28.390625 49.875 -29.550781 53.53125 -31.4375 C 57.195312 -33.320312 59.890625 -35.835938 61.609375 -38.984375 C 62.148438 -39.992188 62.9375 -40.410156 63.96875 -40.234375 C 65 -40.054688 65.890625 -39.59375 66.640625 -38.84375 C 67.398438 -38.101562 67.613281 -37.316406 67.28125 -36.484375 C 63.257812 -26.015625 57.785156 -17.707031 50.859375 -11.5625 C 43.941406 -5.414062 36.078125 -1.925781 27.265625 -1.09375 Z M 27.265625 -1.09375 "/></g></g><g style="fill:#ffbd59;fill-opacity:1;"><g transform="translate(105.49455, 168.140819)"><path style="stroke:none" d="M 7.5625 -0.71875 C 4.757812 -0.445312 2.519531 -1.082031 0.84375 -2.625 C -0.832031 -4.164062 -1.789062 -6.175781 -2.03125 -8.65625 C -2.289062 -11.445312 -2.378906 -14.96875 -2.296875 -19.21875 C -2.210938 -23.46875 -1.5625 -28.113281 -0.34375 -33.15625 C 0.882812 -38.28125 2.101562 -42.957031 3.3125 -47.1875 C 4.519531 -51.414062 5.832031 -54.84375 7.25 -57.46875 C 8.664062 -60.101562 10.171875 -61.5 11.765625 -61.65625 C 13.117188 -61.78125 14.117188 -61.410156 14.765625 -60.546875 C 15.410156 -59.679688 15.789062 -58.644531 15.90625 -57.4375 C 16.09375 -55.4375 16.816406 -54.132812 18.078125 -53.53125 C 19.347656 -52.925781 20.859375 -53.671875 22.609375 -55.765625 C 24.640625 -58.148438 26.800781 -60.050781 29.09375 -61.46875 C 31.382812 -62.894531 33.847656 -63.734375 36.484375 -63.984375 C 39.453125 -64.265625 41.863281 -63.765625 43.71875 -62.484375 C 45.570312 -61.203125 46.878906 -59.507812 47.640625 -57.40625 C 47.867188 -56.613281 48.226562 -56.179688 48.71875 -56.109375 C 49.21875 -56.046875 49.859375 -56.570312 50.640625 -57.6875 C 52.710938 -60.46875 54.96875 -62.632812 57.40625 -64.1875 C 59.84375 -65.75 62.503906 -66.664062 65.390625 -66.9375 C 70.109375 -67.382812 73.523438 -66.617188 75.640625 -64.640625 C 77.765625 -62.660156 78.972656 -60.148438 79.265625 -57.109375 C 79.453125 -55.023438 79.3125 -53.09375 78.84375 -51.3125 C 78.375 -49.53125 77.894531 -47.789062 77.40625 -46.09375 C 76.914062 -44.394531 76.765625 -42.546875 76.953125 -40.546875 C 77.347656 -36.378906 79.507812 -34.484375 83.4375 -34.859375 C 85.269531 -35.023438 86.75 -35.742188 87.875 -37.015625 C 89.007812 -38.296875 90.09375 -39.875 91.125 -41.75 C 91.675781 -42.769531 92.484375 -43.191406 93.546875 -43.015625 C 94.609375 -42.835938 95.519531 -42.375 96.28125 -41.625 C 97.050781 -40.882812 97.226562 -40.097656 96.8125 -39.265625 C 96.132812 -37.910156 95.347656 -35.957031 94.453125 -33.40625 C 93.566406 -30.863281 92.472656 -28.132812 91.171875 -25.21875 C 89.867188 -22.3125 88.296875 -19.503906 86.453125 -16.796875 C 84.609375 -14.085938 82.457031 -11.804688 80 -9.953125 C 77.550781 -8.109375 74.691406 -7.03125 71.421875 -6.71875 C 67.578125 -6.351562 64.773438 -7.359375 63.015625 -9.734375 C 61.253906 -12.117188 60.210938 -15.03125 59.890625 -18.46875 C 59.609375 -21.507812 59.753906 -24.453125 60.328125 -27.296875 C 60.910156 -30.140625 61.515625 -32.738281 62.140625 -35.09375 C 62.773438 -37.445312 63.015625 -39.425781 62.859375 -41.03125 C 62.734375 -42.394531 62.210938 -43.394531 61.296875 -44.03125 C 60.390625 -44.675781 59.257812 -44.9375 57.90625 -44.8125 C 55.59375 -44.59375 53.539062 -43.425781 51.75 -41.3125 C 49.96875 -39.207031 48.613281 -36.660156 47.6875 -33.671875 C 46.757812 -30.679688 46.4375 -27.664062 46.71875 -24.625 C 46.882812 -22.863281 47.148438 -21.515625 47.515625 -20.578125 C 47.890625 -19.648438 48.160156 -18.304688 48.328125 -16.546875 C 48.492188 -14.859375 48.398438 -13.085938 48.046875 -11.234375 C 47.691406 -9.390625 46.8125 -7.773438 45.40625 -6.390625 C 44.007812 -5.003906 41.789062 -4.164062 38.75 -3.875 C 36.03125 -3.625 33.675781 -4.175781 31.6875 -5.53125 C 29.707031 -6.882812 28.535156 -9.519531 28.171875 -13.4375 C 27.878906 -16.476562 28.101562 -19.441406 28.84375 -22.328125 C 29.582031 -25.222656 30.332031 -27.957031 31.09375 -30.53125 C 31.863281 -33.101562 32.15625 -35.390625 31.96875 -37.390625 C 31.8125 -39.003906 31.28125 -40.148438 30.375 -40.828125 C 29.46875 -41.503906 28.332031 -41.773438 26.96875 -41.640625 C 24.644531 -41.421875 22.59375 -40.238281 20.8125 -38.09375 C 19.039062 -35.957031 17.695312 -33.269531 16.78125 -30.03125 C 15.875 -26.789062 15.59375 -23.375 15.9375 -19.78125 L 16.4375 -14.375 C 16.625 -12.375 16.570312 -10.375 16.28125 -8.375 C 15.988281 -6.375 15.179688 -4.664062 13.859375 -3.25 C 12.546875 -1.832031 10.445312 -0.988281 7.5625 -0.71875 Z M 7.5625 -0.71875 "/></g></g><g style="fill:#ffbd59;fill-opacity:1;"><g transform="translate(197.439173, 159.488505)"><path style="stroke:none" d="M 56.796875 -38.53125 C 57.210938 -39.289062 57.945312 -39.617188 59 -39.515625 C 60.0625 -39.421875 61.003906 -39.066406 61.828125 -38.453125 C 62.648438 -37.847656 62.867188 -37.039062 62.484375 -36.03125 C 61.585938 -33.53125 60.359375 -30.914062 58.796875 -28.1875 C 57.234375 -25.457031 55.191406 -23.101562 52.671875 -21.125 C 50.160156 -19.144531 46.941406 -17.972656 43.015625 -17.609375 L 41.59375 -17.46875 C 39.007812 -13.113281 35.769531 -9.519531 31.875 -6.6875 C 27.988281 -3.863281 23.804688 -2.238281 19.328125 -1.8125 C 13.960938 -1.3125 9.347656 -2.691406 5.484375 -5.953125 C 1.628906 -9.222656 -0.585938 -13.976562 -1.171875 -20.21875 C -1.597656 -24.695312 -1.207031 -29.351562 0 -34.1875 C 1.195312 -39.03125 3.085938 -43.570312 5.671875 -47.8125 C 8.265625 -52.0625 11.445312 -55.570312 15.21875 -58.34375 C 18.988281 -61.125 23.273438 -62.738281 28.078125 -63.1875 C 31.367188 -63.5 34.394531 -63.117188 37.15625 -62.046875 C 39.914062 -60.972656 42.21875 -58.988281 44.0625 -56.09375 C 45.90625 -53.207031 47.066406 -49.242188 47.546875 -44.203125 C 47.941406 -39.960938 47.726562 -35.78125 46.90625 -31.65625 L 47.75 -31.734375 C 49.507812 -31.898438 51.144531 -32.519531 52.65625 -33.59375 C 54.175781 -34.675781 55.554688 -36.320312 56.796875 -38.53125 Z M 23.828125 -27.3125 C 25.828125 -27.5 27.53125 -28.265625 28.9375 -29.609375 C 30.34375 -30.953125 31.40625 -32.519531 32.125 -34.3125 C 32.851562 -36.113281 33.132812 -37.863281 32.96875 -39.5625 C 32.8125 -41.3125 32.148438 -42.753906 30.984375 -43.890625 C 29.828125 -45.035156 28.09375 -45.5 25.78125 -45.28125 C 23.84375 -45.101562 22.1875 -44.382812 20.8125 -43.125 C 19.445312 -41.863281 18.421875 -40.332031 17.734375 -38.53125 C 17.054688 -36.738281 16.800781 -34.960938 16.96875 -33.203125 C 17.132812 -31.441406 17.757812 -29.960938 18.84375 -28.765625 C 19.925781 -27.578125 21.585938 -27.09375 23.828125 -27.3125 Z M 23.828125 -27.3125 "/></g></g><g style="fill:#ffbd59;fill-opacity:1;"><g transform="translate(255.054597, 154.06669)"><path style="stroke:none" d="M 18.015625 -67.203125 C 14.972656 -66.921875 12.320312 -67.398438 10.0625 -68.640625 C 7.8125 -69.878906 6.675781 -72.351562 6.65625 -76.0625 C 6.613281 -79.851562 7.648438 -82.535156 9.765625 -84.109375 C 11.878906 -85.679688 14.5 -86.613281 17.625 -86.90625 C 20.65625 -87.1875 23.296875 -86.75 25.546875 -85.59375 C 27.804688 -84.4375 28.953125 -81.960938 28.984375 -78.171875 C 29.003906 -74.453125 27.960938 -71.769531 25.859375 -70.125 C 23.753906 -68.476562 21.140625 -67.503906 18.015625 -67.203125 Z M 30.15625 -36.015625 C 30.5625 -36.785156 31.289062 -37.117188 32.34375 -37.015625 C 33.40625 -36.910156 34.347656 -36.550781 35.171875 -35.9375 C 36.003906 -35.332031 36.226562 -34.53125 35.84375 -33.53125 C 34.425781 -29.675781 33.0625 -25.910156 31.75 -22.234375 C 30.4375 -18.554688 29 -15.191406 27.4375 -12.140625 C 25.875 -9.097656 24.050781 -6.609375 21.96875 -4.671875 C 19.882812 -2.734375 17.40625 -1.632812 14.53125 -1.375 C 12.769531 -1.207031 11.285156 -1.953125 10.078125 -3.609375 C 8.296875 4.867188 6.238281 11.722656 3.90625 16.953125 C 1.570312 22.179688 -1.207031 26.078125 -4.4375 28.640625 C -7.675781 31.203125 -11.535156 32.691406 -16.015625 33.109375 C -22.335938 33.703125 -27.375 32.703125 -31.125 30.109375 C -34.882812 27.523438 -37.003906 23.710938 -37.484375 18.671875 C -37.859375 14.660156 -37.539062 11.378906 -36.53125 8.828125 C -35.519531 6.273438 -34.4375 4.476562 -33.28125 3.4375 C -32.125 2.394531 -31.472656 2.234375 -31.328125 2.953125 C -30.878906 5.171875 -29.707031 6.914062 -27.8125 8.1875 C -25.914062 9.46875 -23.488281 9.96875 -20.53125 9.6875 C -17.238281 9.375 -14.632812 8.457031 -12.71875 6.9375 C -10.8125 5.425781 -9.257812 3.066406 -8.0625 -0.140625 C -6.863281 -3.359375 -5.691406 -7.664062 -4.546875 -13.0625 C -3.410156 -18.46875 -1.96875 -25.164062 -0.21875 -33.15625 C 1.75 -42.226562 3.957031 -49.21875 6.40625 -54.125 C 8.863281 -59.039062 11.8125 -61.660156 15.25 -61.984375 C 17 -62.148438 18.375 -61.875 19.375 -61.15625 C 20.375 -60.445312 20.960938 -59.125 21.140625 -57.1875 C 21.378906 -54.71875 20.878906 -51.664062 19.640625 -48.03125 C 18.410156 -44.40625 17.039062 -39.457031 15.53125 -33.1875 C 14.882812 -29.75 15.039062 -27.40625 16 -26.15625 C 16.96875 -24.914062 18.132812 -24.359375 19.5 -24.484375 C 21.5 -24.671875 23.363281 -25.851562 25.09375 -28.03125 C 26.820312 -30.21875 28.507812 -32.878906 30.15625 -36.015625 Z M 30.15625 -36.015625 "/></g></g><g style="fill:#ffbd59;fill-opacity:1;"><g transform="translate(286.022889, 151.152464)"><path style="stroke:none" d="M 18.015625 -67.203125 C 15.128906 -66.929688 12.585938 -67.320312 10.390625 -68.375 C 8.191406 -69.425781 6.945312 -71.546875 6.65625 -74.734375 C 6.25 -78.972656 7.148438 -81.984375 9.359375 -83.765625 C 11.578125 -85.546875 14.332031 -86.59375 17.625 -86.90625 C 20.65625 -87.1875 23.296875 -86.75 25.546875 -85.59375 C 27.804688 -84.4375 28.953125 -81.960938 28.984375 -78.171875 C 29.003906 -74.453125 27.960938 -71.769531 25.859375 -70.125 C 23.753906 -68.476562 21.140625 -67.503906 18.015625 -67.203125 Z M 10.796875 -1.015625 C 6.804688 -0.640625 3.832031 -1.832031 1.875 -4.59375 C -0.0820312 -7.363281 -1.253906 -10.832031 -1.640625 -15 C -1.910156 -17.800781 -1.910156 -20.785156 -1.640625 -23.953125 C -1.367188 -27.117188 -0.9375 -30.1875 -0.34375 -33.15625 C 1.644531 -42.132812 3.738281 -49.085938 5.9375 -54.015625 C 8.144531 -58.953125 10.96875 -61.582031 14.40625 -61.90625 C 17.125 -62.15625 18.648438 -60.484375 18.984375 -56.890625 C 19.210938 -54.484375 18.984375 -51.976562 18.296875 -49.375 C 17.609375 -46.769531 16.941406 -44.207031 16.296875 -41.6875 C 15.648438 -39.164062 15.429688 -36.820312 15.640625 -34.65625 C 15.828125 -32.65625 16.46875 -31.195312 17.5625 -30.28125 C 18.65625 -29.375 20 -28.992188 21.59375 -29.140625 C 23.425781 -29.316406 24.910156 -30.019531 26.046875 -31.25 C 27.191406 -32.488281 28.28125 -34.050781 29.3125 -35.9375 C 29.863281 -36.957031 30.648438 -37.390625 31.671875 -37.234375 C 32.703125 -37.085938 33.59375 -36.625 34.34375 -35.84375 C 35.101562 -35.070312 35.316406 -34.3125 34.984375 -33.5625 C 34.304688 -32.207031 33.539062 -30.28125 32.6875 -27.78125 C 31.832031 -25.28125 30.773438 -22.554688 29.515625 -19.609375 C 28.265625 -16.660156 26.773438 -13.832031 25.046875 -11.125 C 23.316406 -8.425781 21.289062 -6.140625 18.96875 -4.265625 C 16.644531 -2.390625 13.921875 -1.304688 10.796875 -1.015625 Z M 10.796875 -1.015625 "/></g></g><g style="fill:#ffde59;fill-opacity:0.302;"><g transform="translate(56.042123, 280.297537)"><path style="stroke:none" d="M 123.78125 -44.828125 C 124.257812 -45.753906 124.867188 -46.113281 125.609375 -45.90625 C 126.359375 -45.695312 127.085938 -45.238281 127.796875 -44.53125 C 128.515625 -43.832031 129.070312 -43.101562 129.46875 -42.34375 C 128.789062 -40.976562 128.003906 -39.019531 127.109375 -36.46875 C 126.222656 -33.925781 125.128906 -31.203125 123.828125 -28.296875 C 122.523438 -25.390625 120.953125 -22.578125 119.109375 -19.859375 C 117.265625 -17.148438 115.113281 -14.867188 112.65625 -13.015625 C 110.207031 -11.171875 107.34375 -10.097656 104.0625 -9.796875 C 99.65625 -9.378906 96.164062 -10.625 93.59375 -13.53125 C 91.03125 -16.4375 89.488281 -20.613281 88.96875 -26.0625 C 88.644531 -29.5 88.75 -32.894531 89.28125 -36.25 C 89.820312 -39.613281 90.515625 -42.785156 91.359375 -45.765625 C 92.210938 -48.753906 92.957031 -51.363281 93.59375 -53.59375 C 94.226562 -55.832031 94.488281 -57.554688 94.375 -58.765625 C 94.207031 -60.523438 93.363281 -61.335938 91.84375 -61.203125 C 90.800781 -61.097656 89.804688 -60.492188 88.859375 -59.390625 C 87.910156 -58.296875 86.957031 -56.390625 86 -53.671875 C 85.050781 -50.960938 84.035156 -47.15625 82.953125 -42.25 C 81.878906 -37.34375 80.742188 -31.003906 79.546875 -23.234375 C 78.898438 -18.972656 77.648438 -16.144531 75.796875 -14.75 C 73.953125 -13.363281 72.03125 -12.578125 70.03125 -12.390625 C 66.269531 -12.035156 63.6875 -12.4375 62.28125 -13.59375 C 60.882812 -14.757812 60.070312 -16.582031 59.84375 -19.0625 C 59.625 -21.3125 59.75 -23.804688 60.21875 -26.546875 C 60.6875 -29.296875 61.222656 -32.191406 61.828125 -35.234375 C 62.429688 -38.273438 62.953125 -41.332031 63.390625 -44.40625 C 63.828125 -47.476562 63.921875 -50.378906 63.671875 -53.109375 C 63.453125 -55.421875 63.023438 -56.929688 62.390625 -57.640625 C 61.753906 -58.347656 61.039062 -58.664062 60.25 -58.59375 C 58.476562 -58.425781 57.457031 -57.195312 57.1875 -54.90625 C 55.769531 -41.695312 53.09375 -30.890625 49.15625 -22.484375 C 45.226562 -14.078125 40.410156 -7.789062 34.703125 -3.625 C 29.003906 0.539062 22.753906 2.945312 15.953125 3.59375 C 11.316406 4.03125 7.363281 3.410156 4.09375 1.734375 C 0.832031 0.0546875 -1.703125 -2.265625 -3.515625 -5.234375 C -5.335938 -8.210938 -6.40625 -11.34375 -6.71875 -14.625 C -7.03125 -17.90625 -6.664062 -21.109375 -5.625 -24.234375 C -4.582031 -27.359375 -2.945312 -29.972656 -0.71875 -32.078125 C 1.5 -34.179688 4.210938 -35.382812 7.421875 -35.6875 C 8.609375 -35.800781 9.25 -35.378906 9.34375 -34.421875 C 9.59375 -31.785156 10.953125 -29.753906 13.421875 -28.328125 C 15.898438 -26.898438 18.863281 -26.347656 22.3125 -26.671875 C 25.675781 -26.992188 28.757812 -28.113281 31.5625 -30.03125 C 34.375 -31.957031 36.851562 -34.347656 39 -37.203125 C 41.15625 -40.066406 42.960938 -43.179688 44.421875 -46.546875 C 45.878906 -49.921875 46.914062 -53.253906 47.53125 -56.546875 C 48.15625 -59.835938 48.347656 -62.757812 48.109375 -65.3125 C 47.804688 -68.519531 46.832031 -70.890625 45.1875 -72.421875 C 43.550781 -73.960938 41.453125 -74.613281 38.890625 -74.375 C 36.015625 -74.101562 33.550781 -72.800781 31.5 -70.46875 C 29.457031 -68.132812 28.613281 -65.09375 28.96875 -61.34375 C 29.164062 -59.25 29.910156 -57.535156 31.203125 -56.203125 C 32.503906 -54.878906 34.035156 -54.300781 35.796875 -54.46875 C 36.660156 -52.9375 36.722656 -50.984375 35.984375 -48.609375 C 35.242188 -46.234375 33.773438 -44.078125 31.578125 -42.140625 C 29.378906 -40.203125 26.484375 -39.0625 22.890625 -38.71875 C 18.171875 -38.28125 14.082031 -39.632812 10.625 -42.78125 C 7.175781 -45.925781 5.191406 -50.296875 4.671875 -55.890625 C 4.242188 -60.453125 4.753906 -64.878906 6.203125 -69.171875 C 7.660156 -73.472656 9.976562 -77.382812 13.15625 -80.90625 C 16.332031 -84.4375 20.273438 -87.351562 24.984375 -89.65625 C 29.691406 -91.96875 35.046875 -93.40625 41.046875 -93.96875 C 51.535156 -94.957031 59.914062 -92.757812 66.1875 -87.375 C 72.46875 -81.988281 76.597656 -74.335938 78.578125 -64.421875 C 80.179688 -68.765625 82.179688 -73.03125 84.578125 -77.21875 C 86.972656 -81.40625 89.644531 -85.191406 92.59375 -88.578125 C 95.539062 -91.960938 98.644531 -94.738281 101.90625 -96.90625 C 105.175781 -99.070312 108.492188 -100.3125 111.859375 -100.625 C 116.503906 -101.0625 119.898438 -100.128906 122.046875 -97.828125 C 124.203125 -95.523438 125.4375 -92.734375 125.75 -89.453125 C 125.96875 -87.046875 125.75 -84.640625 125.09375 -82.234375 C 124.4375 -79.835938 123.5 -77.8125 122.28125 -76.15625 C 121.0625 -74.507812 119.734375 -73.617188 118.296875 -73.484375 C 117.410156 -73.398438 116.628906 -73.550781 115.953125 -73.9375 C 115.273438 -74.320312 114.535156 -74.476562 113.734375 -74.40625 C 112.535156 -74.289062 111.476562 -73.460938 110.5625 -71.921875 C 109.65625 -70.378906 108.910156 -68.429688 108.328125 -66.078125 C 107.742188 -63.722656 107.289062 -61.238281 106.96875 -58.625 C 106.65625 -56.007812 106.445312 -53.523438 106.34375 -51.171875 C 106.238281 -48.828125 106.253906 -46.9375 106.390625 -45.5 C 106.628906 -43.019531 107.363281 -41.046875 108.59375 -39.578125 C 109.820312 -38.117188 111.796875 -37.519531 114.515625 -37.78125 C 118.347656 -38.132812 121.4375 -40.484375 123.78125 -44.828125 Z M 123.78125 -44.828125 "/></g></g><g style="fill:#ffde59;fill-opacity:0.302;"><g transform="translate(180.63548, 268.572862)"><path style="stroke:none" d="M 12.71875 -1.203125 C 8.632812 -0.816406 5.394531 -2.203125 3 -5.359375 C 0.601562 -8.523438 -0.84375 -12.789062 -1.34375 -18.15625 C -1.664062 -21.507812 -1.582031 -25.125 -1.09375 -29 C -0.613281 -32.882812 0.269531 -36.742188 1.5625 -40.578125 C 2.863281 -44.421875 4.613281 -47.960938 6.8125 -51.203125 C 9.007812 -54.441406 11.664062 -57.113281 14.78125 -59.21875 C 17.894531 -61.320312 21.53125 -62.570312 25.6875 -62.96875 C 28.082031 -63.1875 29.960938 -63.132812 31.328125 -62.8125 C 32.691406 -62.5 33.738281 -62.054688 34.46875 -61.484375 C 35.207031 -60.910156 35.835938 -60.425781 36.359375 -60.03125 C 36.890625 -59.632812 37.554688 -59.472656 38.359375 -59.546875 C 39.710938 -59.679688 40.769531 -60.164062 41.53125 -61 C 42.300781 -61.84375 43.171875 -62.691406 44.140625 -63.546875 C 45.117188 -64.410156 46.53125 -64.925781 48.375 -65.09375 C 49.976562 -65.25 51.113281 -64.957031 51.78125 -64.21875 C 52.445312 -63.476562 52.84375 -62.425781 52.96875 -61.0625 C 53.1875 -58.8125 52.78125 -56.523438 51.75 -54.203125 C 50.71875 -51.890625 49.6875 -48.914062 48.65625 -45.28125 C 47.070312 -40.675781 46.648438 -37.238281 47.390625 -34.96875 C 48.128906 -32.695312 49.816406 -31.6875 52.453125 -31.9375 C 54.546875 -32.132812 56.296875 -32.84375 57.703125 -34.0625 C 59.117188 -35.28125 60.335938 -36.910156 61.359375 -38.953125 C 61.898438 -39.972656 62.6875 -40.390625 63.71875 -40.203125 C 64.75 -40.023438 65.640625 -39.5625 66.390625 -38.8125 C 67.148438 -38.070312 67.367188 -37.289062 67.046875 -36.46875 C 65.867188 -33.53125 64.617188 -30.28125 63.296875 -26.71875 C 61.972656 -23.164062 60.457031 -19.734375 58.75 -16.421875 C 57.050781 -13.117188 55.015625 -10.328125 52.640625 -8.046875 C 50.273438 -5.765625 47.414062 -4.460938 44.0625 -4.140625 C 39.894531 -3.753906 36.789062 -5.160156 34.75 -8.359375 C 32.71875 -11.554688 31.820312 -15.671875 32.0625 -20.703125 L 31.59375 -20.65625 C 29.664062 -15.550781 27.097656 -11.128906 23.890625 -7.390625 C 20.691406 -3.660156 16.96875 -1.597656 12.71875 -1.203125 Z M 22.375 -27.171875 C 24.457031 -27.367188 26.222656 -28.140625 27.671875 -29.484375 C 29.128906 -30.835938 30.21875 -32.410156 30.9375 -34.203125 C 31.65625 -36.003906 31.929688 -37.753906 31.765625 -39.453125 C 31.578125 -41.441406 30.867188 -42.941406 29.640625 -43.953125 C 28.421875 -44.972656 26.851562 -45.390625 24.9375 -45.203125 C 22.851562 -45.003906 21.101562 -44.273438 19.6875 -43.015625 C 18.269531 -41.753906 17.222656 -40.222656 16.546875 -38.421875 C 15.867188 -36.628906 15.613281 -34.851562 15.78125 -33.09375 C 15.96875 -31.09375 16.65625 -29.5625 17.84375 -28.5 C 19.03125 -27.4375 20.539062 -26.992188 22.375 -27.171875 Z M 22.375 -27.171875 "/></g></g><g style="fill:#ffde59;fill-opacity:0.302;"><g transform="translate(242.812131, 262.721819)"><path style="stroke:none" d="M 12.125 -1.140625 C 7.632812 -0.722656 4.195312 -1.789062 1.8125 -4.34375 C -0.5625 -6.90625 -1.957031 -10.40625 -2.375 -14.84375 C -2.789062 -19.289062 -2.351562 -24.160156 -1.0625 -29.453125 C -0.320312 -32.578125 0.519531 -35.960938 1.46875 -39.609375 C 2.425781 -43.253906 3.46875 -47.226562 4.59375 -51.53125 C 2.832031 -51.363281 1.445312 -51.695312 0.4375 -52.53125 C -0.5625 -53.375 -1.257812 -54.398438 -1.65625 -55.609375 C -2.050781 -56.828125 -2.148438 -57.90625 -1.953125 -58.84375 C -1.765625 -59.789062 -1.3125 -60.296875 -0.59375 -60.359375 C 2.925781 -60.691406 5.59375 -61.929688 7.40625 -64.078125 C 9.21875 -66.222656 10.425781 -68.421875 11.03125 -70.671875 C 12.132812 -74.328125 13.320312 -76.675781 14.59375 -77.71875 C 15.875 -78.769531 17.273438 -79.367188 18.796875 -79.515625 C 21.035156 -79.722656 22.519531 -78.910156 23.25 -77.078125 C 23.988281 -75.253906 23.617188 -72.375 22.140625 -68.4375 C 21.429688 -66.4375 21.082031 -64.929688 21.09375 -63.921875 C 21.113281 -62.910156 21.6875 -62.457031 22.8125 -62.5625 L 29.046875 -63.15625 C 29.847656 -63.226562 30.421875 -62.710938 30.765625 -61.609375 C 31.117188 -60.515625 31.222656 -59.234375 31.078125 -57.765625 C 30.929688 -56.296875 30.53125 -54.96875 29.875 -53.78125 C 29.226562 -52.59375 28.300781 -51.941406 27.09375 -51.828125 C 23.414062 -51.484375 20.707031 -51.085938 18.96875 -50.640625 C 17.238281 -50.191406 16.066406 -49.375 15.453125 -48.1875 C 14.835938 -47 14.257812 -45.007812 13.71875 -42.21875 C 12.820312 -37.9375 13.304688 -34.628906 15.171875 -32.296875 C 17.046875 -29.972656 19.75 -28.972656 23.28125 -29.296875 C 25.675781 -29.523438 27.765625 -30.269531 29.546875 -31.53125 C 31.328125 -32.789062 32.734375 -34.398438 33.765625 -36.359375 C 34.304688 -37.378906 35.085938 -37.796875 36.109375 -37.609375 C 37.128906 -37.429688 38.019531 -36.96875 38.78125 -36.21875 C 39.550781 -35.476562 39.769531 -34.691406 39.4375 -33.859375 C 38.84375 -32.429688 38.054688 -30.457031 37.078125 -27.9375 C 36.109375 -25.425781 34.914062 -22.691406 33.5 -19.734375 C 32.082031 -16.785156 30.367188 -13.960938 28.359375 -11.265625 C 26.359375 -8.578125 24.007812 -6.296875 21.3125 -4.421875 C 18.625 -2.554688 15.5625 -1.460938 12.125 -1.140625 Z M 12.125 -1.140625 "/></g></g><g style="fill:#ffde59;fill-opacity:0.302;"><g transform="translate(277.381386, 259.46873)"><path style="stroke:none" d="M 22.578125 -2.125 C 17.773438 -1.675781 13.726562 -2.382812 10.4375 -4.25 C 7.15625 -6.125 4.609375 -8.769531 2.796875 -12.1875 C 0.984375 -15.601562 -0.101562 -19.453125 -0.46875 -23.734375 C -0.84375 -28.023438 -0.507812 -32.378906 0.53125 -36.796875 C 1.570312 -41.222656 3.285156 -45.34375 5.671875 -49.15625 C 8.054688 -52.96875 11.085938 -56.132812 14.765625 -58.65625 C 18.453125 -61.1875 22.734375 -62.679688 27.609375 -63.140625 C 31.367188 -63.492188 34.492188 -63.082031 36.984375 -61.90625 C 39.472656 -60.726562 41.382812 -59.03125 42.71875 -56.8125 C 44.0625 -54.59375 44.859375 -52.164062 45.109375 -49.53125 C 45.378906 -46.644531 44.847656 -43.6875 43.515625 -40.65625 C 42.191406 -37.625 40.175781 -35.035156 37.46875 -32.890625 C 34.769531 -30.742188 31.457031 -29.488281 27.53125 -29.125 C 25.851562 -28.96875 24.203125 -28.929688 22.578125 -29.015625 C 20.953125 -29.097656 19.421875 -29.472656 17.984375 -30.140625 C 17.566406 -30.347656 17.128906 -30.328125 16.671875 -30.078125 C 16.210938 -29.835938 16.019531 -29.316406 16.09375 -28.515625 C 16.289062 -26.429688 17.660156 -24.960938 20.203125 -24.109375 C 22.742188 -23.265625 25.726562 -23.003906 29.15625 -23.328125 C 33.238281 -23.710938 37.363281 -25.148438 41.53125 -27.640625 C 45.707031 -30.128906 48.957031 -33.582031 51.28125 -38 C 51.820312 -39.019531 52.625 -39.441406 53.6875 -39.265625 C 54.757812 -39.085938 55.675781 -38.625 56.4375 -37.875 C 57.195312 -37.132812 57.375 -36.347656 56.96875 -35.515625 C 52.59375 -25.253906 47.503906 -17.285156 41.703125 -11.609375 C 35.910156 -5.941406 29.535156 -2.78125 22.578125 -2.125 Z M 23.546875 -37.828125 C 25.867188 -38.046875 27.625 -38.957031 28.8125 -40.5625 C 30 -42.164062 30.519531 -43.726562 30.375 -45.25 C 30.25 -46.613281 29.675781 -47.726562 28.65625 -48.59375 C 27.644531 -49.46875 26.222656 -49.820312 24.390625 -49.65625 C 22.066406 -49.4375 20.289062 -48.539062 19.0625 -46.96875 C 17.84375 -45.394531 17.3125 -43.8125 17.46875 -42.21875 C 17.582031 -40.925781 18.144531 -39.828125 19.15625 -38.921875 C 20.164062 -38.015625 21.628906 -37.648438 23.546875 -37.828125 Z M 23.546875 -37.828125 "/></g></g><g style="fill:#ffde59;fill-opacity:0.502;"><g transform="translate(54.03997, 276.076444)"><path style="stroke:none" d="M 123.78125 -44.828125 C 124.257812 -45.753906 124.867188 -46.113281 125.609375 -45.90625 C 126.359375 -45.695312 127.085938 -45.238281 127.796875 -44.53125 C 128.515625 -43.832031 129.070312 -43.101562 129.46875 -42.34375 C 128.789062 -40.976562 128.003906 -39.019531 127.109375 -36.46875 C 126.222656 -33.925781 125.128906 -31.203125 123.828125 -28.296875 C 122.523438 -25.390625 120.953125 -22.578125 119.109375 -19.859375 C 117.265625 -17.148438 115.113281 -14.867188 112.65625 -13.015625 C 110.207031 -11.171875 107.34375 -10.097656 104.0625 -9.796875 C 99.65625 -9.378906 96.164062 -10.625 93.59375 -13.53125 C 91.03125 -16.4375 89.488281 -20.613281 88.96875 -26.0625 C 88.644531 -29.5 88.75 -32.894531 89.28125 -36.25 C 89.820312 -39.613281 90.515625 -42.785156 91.359375 -45.765625 C 92.210938 -48.753906 92.957031 -51.363281 93.59375 -53.59375 C 94.226562 -55.832031 94.488281 -57.554688 94.375 -58.765625 C 94.207031 -60.523438 93.363281 -61.335938 91.84375 -61.203125 C 90.800781 -61.097656 89.804688 -60.492188 88.859375 -59.390625 C 87.910156 -58.296875 86.957031 -56.390625 86 -53.671875 C 85.050781 -50.960938 84.035156 -47.15625 82.953125 -42.25 C 81.878906 -37.34375 80.742188 -31.003906 79.546875 -23.234375 C 78.898438 -18.972656 77.648438 -16.144531 75.796875 -14.75 C 73.953125 -13.363281 72.03125 -12.578125 70.03125 -12.390625 C 66.269531 -12.035156 63.6875 -12.4375 62.28125 -13.59375 C 60.882812 -14.757812 60.070312 -16.582031 59.84375 -19.0625 C 59.625 -21.3125 59.75 -23.804688 60.21875 -26.546875 C 60.6875 -29.296875 61.222656 -32.191406 61.828125 -35.234375 C 62.429688 -38.273438 62.953125 -41.332031 63.390625 -44.40625 C 63.828125 -47.476562 63.921875 -50.378906 63.671875 -53.109375 C 63.453125 -55.421875 63.023438 -56.929688 62.390625 -57.640625 C 61.753906 -58.347656 61.039062 -58.664062 60.25 -58.59375 C 58.476562 -58.425781 57.457031 -57.195312 57.1875 -54.90625 C 55.769531 -41.695312 53.09375 -30.890625 49.15625 -22.484375 C 45.226562 -14.078125 40.410156 -7.789062 34.703125 -3.625 C 29.003906 0.539062 22.753906 2.945312 15.953125 3.59375 C 11.316406 4.03125 7.363281 3.410156 4.09375 1.734375 C 0.832031 0.0546875 -1.703125 -2.265625 -3.515625 -5.234375 C -5.335938 -8.210938 -6.40625 -11.34375 -6.71875 -14.625 C -7.03125 -17.90625 -6.664062 -21.109375 -5.625 -24.234375 C -4.582031 -27.359375 -2.945312 -29.972656 -0.71875 -32.078125 C 1.5 -34.179688 4.210938 -35.382812 7.421875 -35.6875 C 8.609375 -35.800781 9.25 -35.378906 9.34375 -34.421875 C 9.59375 -31.785156 10.953125 -29.753906 13.421875 -28.328125 C 15.898438 -26.898438 18.863281 -26.347656 22.3125 -26.671875 C 25.675781 -26.992188 28.757812 -28.113281 31.5625 -30.03125 C 34.375 -31.957031 36.851562 -34.347656 39 -37.203125 C 41.15625 -40.066406 42.960938 -43.179688 44.421875 -46.546875 C 45.878906 -49.921875 46.914062 -53.253906 47.53125 -56.546875 C 48.15625 -59.835938 48.347656 -62.757812 48.109375 -65.3125 C 47.804688 -68.519531 46.832031 -70.890625 45.1875 -72.421875 C 43.550781 -73.960938 41.453125 -74.613281 38.890625 -74.375 C 36.015625 -74.101562 33.550781 -72.800781 31.5 -70.46875 C 29.457031 -68.132812 28.613281 -65.09375 28.96875 -61.34375 C 29.164062 -59.25 29.910156 -57.535156 31.203125 -56.203125 C 32.503906 -54.878906 34.035156 -54.300781 35.796875 -54.46875 C 36.660156 -52.9375 36.722656 -50.984375 35.984375 -48.609375 C 35.242188 -46.234375 33.773438 -44.078125 31.578125 -42.140625 C 29.378906 -40.203125 26.484375 -39.0625 22.890625 -38.71875 C 18.171875 -38.28125 14.082031 -39.632812 10.625 -42.78125 C 7.175781 -45.925781 5.191406 -50.296875 4.671875 -55.890625 C 4.242188 -60.453125 4.753906 -64.878906 6.203125 -69.171875 C 7.660156 -73.472656 9.976562 -77.382812 13.15625 -80.90625 C 16.332031 -84.4375 20.273438 -87.351562 24.984375 -89.65625 C 29.691406 -91.96875 35.046875 -93.40625 41.046875 -93.96875 C 51.535156 -94.957031 59.914062 -92.757812 66.1875 -87.375 C 72.46875 -81.988281 76.597656 -74.335938 78.578125 -64.421875 C 80.179688 -68.765625 82.179688 -73.03125 84.578125 -77.21875 C 86.972656 -81.40625 89.644531 -85.191406 92.59375 -88.578125 C 95.539062 -91.960938 98.644531 -94.738281 101.90625 -96.90625 C 105.175781 -99.070312 108.492188 -100.3125 111.859375 -100.625 C 116.503906 -101.0625 119.898438 -100.128906 122.046875 -97.828125 C 124.203125 -95.523438 125.4375 -92.734375 125.75 -89.453125 C 125.96875 -87.046875 125.75 -84.640625 125.09375 -82.234375 C 124.4375 -79.835938 123.5 -77.8125 122.28125 -76.15625 C 121.0625 -74.507812 119.734375 -73.617188 118.296875 -73.484375 C 117.410156 -73.398438 116.628906 -73.550781 115.953125 -73.9375 C 115.273438 -74.320312 114.535156 -74.476562 113.734375 -74.40625 C 112.535156 -74.289062 111.476562 -73.460938 110.5625 -71.921875 C 109.65625 -70.378906 108.910156 -68.429688 108.328125 -66.078125 C 107.742188 -63.722656 107.289062 -61.238281 106.96875 -58.625 C 106.65625 -56.007812 106.445312 -53.523438 106.34375 -51.171875 C 106.238281 -48.828125 106.253906 -46.9375 106.390625 -45.5 C 106.628906 -43.019531 107.363281 -41.046875 108.59375 -39.578125 C 109.820312 -38.117188 111.796875 -37.519531 114.515625 -37.78125 C 118.347656 -38.132812 121.4375 -40.484375 123.78125 -44.828125 Z M 123.78125 -44.828125 "/></g></g><g style="fill:#ffde59;fill-opacity:0.502;"><g transform="translate(178.633328, 264.351768)"><path style="stroke:none" d="M 12.71875 -1.203125 C 8.632812 -0.816406 5.394531 -2.203125 3 -5.359375 C 0.601562 -8.523438 -0.84375 -12.789062 -1.34375 -18.15625 C -1.664062 -21.507812 -1.582031 -25.125 -1.09375 -29 C -0.613281 -32.882812 0.269531 -36.742188 1.5625 -40.578125 C 2.863281 -44.421875 4.613281 -47.960938 6.8125 -51.203125 C 9.007812 -54.441406 11.664062 -57.113281 14.78125 -59.21875 C 17.894531 -61.320312 21.53125 -62.570312 25.6875 -62.96875 C 28.082031 -63.1875 29.960938 -63.132812 31.328125 -62.8125 C 32.691406 -62.5 33.738281 -62.054688 34.46875 -61.484375 C 35.207031 -60.910156 35.835938 -60.425781 36.359375 -60.03125 C 36.890625 -59.632812 37.554688 -59.472656 38.359375 -59.546875 C 39.710938 -59.679688 40.769531 -60.164062 41.53125 -61 C 42.300781 -61.84375 43.171875 -62.691406 44.140625 -63.546875 C 45.117188 -64.410156 46.53125 -64.925781 48.375 -65.09375 C 49.976562 -65.25 51.113281 -64.957031 51.78125 -64.21875 C 52.445312 -63.476562 52.84375 -62.425781 52.96875 -61.0625 C 53.1875 -58.8125 52.78125 -56.523438 51.75 -54.203125 C 50.71875 -51.890625 49.6875 -48.914062 48.65625 -45.28125 C 47.070312 -40.675781 46.648438 -37.238281 47.390625 -34.96875 C 48.128906 -32.695312 49.816406 -31.6875 52.453125 -31.9375 C 54.546875 -32.132812 56.296875 -32.84375 57.703125 -34.0625 C 59.117188 -35.28125 60.335938 -36.910156 61.359375 -38.953125 C 61.898438 -39.972656 62.6875 -40.390625 63.71875 -40.203125 C 64.75 -40.023438 65.640625 -39.5625 66.390625 -38.8125 C 67.148438 -38.070312 67.367188 -37.289062 67.046875 -36.46875 C 65.867188 -33.53125 64.617188 -30.28125 63.296875 -26.71875 C 61.972656 -23.164062 60.457031 -19.734375 58.75 -16.421875 C 57.050781 -13.117188 55.015625 -10.328125 52.640625 -8.046875 C 50.273438 -5.765625 47.414062 -4.460938 44.0625 -4.140625 C 39.894531 -3.753906 36.789062 -5.160156 34.75 -8.359375 C 32.71875 -11.554688 31.820312 -15.671875 32.0625 -20.703125 L 31.59375 -20.65625 C 29.664062 -15.550781 27.097656 -11.128906 23.890625 -7.390625 C 20.691406 -3.660156 16.96875 -1.597656 12.71875 -1.203125 Z M 22.375 -27.171875 C 24.457031 -27.367188 26.222656 -28.140625 27.671875 -29.484375 C 29.128906 -30.835938 30.21875 -32.410156 30.9375 -34.203125 C 31.65625 -36.003906 31.929688 -37.753906 31.765625 -39.453125 C 31.578125 -41.441406 30.867188 -42.941406 29.640625 -43.953125 C 28.421875 -44.972656 26.851562 -45.390625 24.9375 -45.203125 C 22.851562 -45.003906 21.101562 -44.273438 19.6875 -43.015625 C 18.269531 -41.753906 17.222656 -40.222656 16.546875 -38.421875 C 15.867188 -36.628906 15.613281 -34.851562 15.78125 -33.09375 C 15.96875 -31.09375 16.65625 -29.5625 17.84375 -28.5 C 19.03125 -27.4375 20.539062 -26.992188 22.375 -27.171875 Z M 22.375 -27.171875 "/></g></g><g style="fill:#ffde59;fill-opacity:0.502;"><g transform="translate(240.809979, 258.500725)"><path style="stroke:none" d="M 12.125 -1.140625 C 7.632812 -0.722656 4.195312 -1.789062 1.8125 -4.34375 C -0.5625 -6.90625 -1.957031 -10.40625 -2.375 -14.84375 C -2.789062 -19.289062 -2.351562 -24.160156 -1.0625 -29.453125 C -0.320312 -32.578125 0.519531 -35.960938 1.46875 -39.609375 C 2.425781 -43.253906 3.46875 -47.226562 4.59375 -51.53125 C 2.832031 -51.363281 1.445312 -51.695312 0.4375 -52.53125 C -0.5625 -53.375 -1.257812 -54.398438 -1.65625 -55.609375 C -2.050781 -56.828125 -2.148438 -57.90625 -1.953125 -58.84375 C -1.765625 -59.789062 -1.3125 -60.296875 -0.59375 -60.359375 C 2.925781 -60.691406 5.59375 -61.929688 7.40625 -64.078125 C 9.21875 -66.222656 10.425781 -68.421875 11.03125 -70.671875 C 12.132812 -74.328125 13.320312 -76.675781 14.59375 -77.71875 C 15.875 -78.769531 17.273438 -79.367188 18.796875 -79.515625 C 21.035156 -79.722656 22.519531 -78.910156 23.25 -77.078125 C 23.988281 -75.253906 23.617188 -72.375 22.140625 -68.4375 C 21.429688 -66.4375 21.082031 -64.929688 21.09375 -63.921875 C 21.113281 -62.910156 21.6875 -62.457031 22.8125 -62.5625 L 29.046875 -63.15625 C 29.847656 -63.226562 30.421875 -62.710938 30.765625 -61.609375 C 31.117188 -60.515625 31.222656 -59.234375 31.078125 -57.765625 C 30.929688 -56.296875 30.53125 -54.96875 29.875 -53.78125 C 29.226562 -52.59375 28.300781 -51.941406 27.09375 -51.828125 C 23.414062 -51.484375 20.707031 -51.085938 18.96875 -50.640625 C 17.238281 -50.191406 16.066406 -49.375 15.453125 -48.1875 C 14.835938 -47 14.257812 -45.007812 13.71875 -42.21875 C 12.820312 -37.9375 13.304688 -34.628906 15.171875 -32.296875 C 17.046875 -29.972656 19.75 -28.972656 23.28125 -29.296875 C 25.675781 -29.523438 27.765625 -30.269531 29.546875 -31.53125 C 31.328125 -32.789062 32.734375 -34.398438 33.765625 -36.359375 C 34.304688 -37.378906 35.085938 -37.796875 36.109375 -37.609375 C 37.128906 -37.429688 38.019531 -36.96875 38.78125 -36.21875 C 39.550781 -35.476562 39.769531 -34.691406 39.4375 -33.859375 C 38.84375 -32.429688 38.054688 -30.457031 37.078125 -27.9375 C 36.109375 -25.425781 34.914062 -22.691406 33.5 -19.734375 C 32.082031 -16.785156 30.367188 -13.960938 28.359375 -11.265625 C 26.359375 -8.578125 24.007812 -6.296875 21.3125 -4.421875 C 18.625 -2.554688 15.5625 -1.460938 12.125 -1.140625 Z M 12.125 -1.140625 "/></g></g><g style="fill:#ffde59;fill-opacity:0.502;"><g transform="translate(275.379234, 255.247636)"><path style="stroke:none" d="M 22.578125 -2.125 C 17.773438 -1.675781 13.726562 -2.382812 10.4375 -4.25 C 7.15625 -6.125 4.609375 -8.769531 2.796875 -12.1875 C 0.984375 -15.601562 -0.101562 -19.453125 -0.46875 -23.734375 C -0.84375 -28.023438 -0.507812 -32.378906 0.53125 -36.796875 C 1.570312 -41.222656 3.285156 -45.34375 5.671875 -49.15625 C 8.054688 -52.96875 11.085938 -56.132812 14.765625 -58.65625 C 18.453125 -61.1875 22.734375 -62.679688 27.609375 -63.140625 C 31.367188 -63.492188 34.492188 -63.082031 36.984375 -61.90625 C 39.472656 -60.726562 41.382812 -59.03125 42.71875 -56.8125 C 44.0625 -54.59375 44.859375 -52.164062 45.109375 -49.53125 C 45.378906 -46.644531 44.847656 -43.6875 43.515625 -40.65625 C 42.191406 -37.625 40.175781 -35.035156 37.46875 -32.890625 C 34.769531 -30.742188 31.457031 -29.488281 27.53125 -29.125 C 25.851562 -28.96875 24.203125 -28.929688 22.578125 -29.015625 C 20.953125 -29.097656 19.421875 -29.472656 17.984375 -30.140625 C 17.566406 -30.347656 17.128906 -30.328125 16.671875 -30.078125 C 16.210938 -29.835938 16.019531 -29.316406 16.09375 -28.515625 C 16.289062 -26.429688 17.660156 -24.960938 20.203125 -24.109375 C 22.742188 -23.265625 25.726562 -23.003906 29.15625 -23.328125 C 33.238281 -23.710938 37.363281 -25.148438 41.53125 -27.640625 C 45.707031 -30.128906 48.957031 -33.582031 51.28125 -38 C 51.820312 -39.019531 52.625 -39.441406 53.6875 -39.265625 C 54.757812 -39.085938 55.675781 -38.625 56.4375 -37.875 C 57.195312 -37.132812 57.375 -36.347656 56.96875 -35.515625 C 52.59375 -25.253906 47.503906 -17.285156 41.703125 -11.609375 C 35.910156 -5.941406 29.535156 -2.78125 22.578125 -2.125 Z M 23.546875 -37.828125 C 25.867188 -38.046875 27.625 -38.957031 28.8125 -40.5625 C 30 -42.164062 30.519531 -43.726562 30.375 -45.25 C 30.25 -46.613281 29.675781 -47.726562 28.65625 -48.59375 C 27.644531 -49.46875 26.222656 -49.820312 24.390625 -49.65625 C 22.066406 -49.4375 20.289062 -48.539062 19.0625 -46.96875 C 17.84375 -45.394531 17.3125 -43.8125 17.46875 -42.21875 C 17.582031 -40.925781 18.144531 -39.828125 19.15625 -38.921875 C 20.164062 -38.015625 21.628906 -37.648438 23.546875 -37.828125 Z M 23.546875 -37.828125 "/></g></g><g style="fill:#ffbd59;fill-opacity:1;"><g transform="translate(52.037826, 271.85535)"><path style="stroke:none" d="M 123.78125 -44.828125 C 124.257812 -45.753906 124.867188 -46.113281 125.609375 -45.90625 C 126.359375 -45.695312 127.085938 -45.238281 127.796875 -44.53125 C 128.515625 -43.832031 129.070312 -43.101562 129.46875 -42.34375 C 128.789062 -40.976562 128.003906 -39.019531 127.109375 -36.46875 C 126.222656 -33.925781 125.128906 -31.203125 123.828125 -28.296875 C 122.523438 -25.390625 120.953125 -22.578125 119.109375 -19.859375 C 117.265625 -17.148438 115.113281 -14.867188 112.65625 -13.015625 C 110.207031 -11.171875 107.34375 -10.097656 104.0625 -9.796875 C 99.65625 -9.378906 96.164062 -10.625 93.59375 -13.53125 C 91.03125 -16.4375 89.488281 -20.613281 88.96875 -26.0625 C 88.644531 -29.5 88.75 -32.894531 89.28125 -36.25 C 89.820312 -39.613281 90.515625 -42.785156 91.359375 -45.765625 C 92.210938 -48.753906 92.957031 -51.363281 93.59375 -53.59375 C 94.226562 -55.832031 94.488281 -57.554688 94.375 -58.765625 C 94.207031 -60.523438 93.363281 -61.335938 91.84375 -61.203125 C 90.800781 -61.097656 89.804688 -60.492188 88.859375 -59.390625 C 87.910156 -58.296875 86.957031 -56.390625 86 -53.671875 C 85.050781 -50.960938 84.035156 -47.15625 82.953125 -42.25 C 81.878906 -37.34375 80.742188 -31.003906 79.546875 -23.234375 C 78.898438 -18.972656 77.648438 -16.144531 75.796875 -14.75 C 73.953125 -13.363281 72.03125 -12.578125 70.03125 -12.390625 C 66.269531 -12.035156 63.6875 -12.4375 62.28125 -13.59375 C 60.882812 -14.757812 60.070312 -16.582031 59.84375 -19.0625 C 59.625 -21.3125 59.75 -23.804688 60.21875 -26.546875 C 60.6875 -29.296875 61.222656 -32.191406 61.828125 -35.234375 C 62.429688 -38.273438 62.953125 -41.332031 63.390625 -44.40625 C 63.828125 -47.476562 63.921875 -50.378906 63.671875 -53.109375 C 63.453125 -55.421875 63.023438 -56.929688 62.390625 -57.640625 C 61.753906 -58.347656 61.039062 -58.664062 60.25 -58.59375 C 58.476562 -58.425781 57.457031 -57.195312 57.1875 -54.90625 C 55.769531 -41.695312 53.09375 -30.890625 49.15625 -22.484375 C 45.226562 -14.078125 40.410156 -7.789062 34.703125 -3.625 C 29.003906 0.539062 22.753906 2.945312 15.953125 3.59375 C 11.316406 4.03125 7.363281 3.410156 4.09375 1.734375 C 0.832031 0.0546875 -1.703125 -2.265625 -3.515625 -5.234375 C -5.335938 -8.210938 -6.40625 -11.34375 -6.71875 -14.625 C -7.03125 -17.90625 -6.664062 -21.109375 -5.625 -24.234375 C -4.582031 -27.359375 -2.945312 -29.972656 -0.71875 -32.078125 C 1.5 -34.179688 4.210938 -35.382812 7.421875 -35.6875 C 8.609375 -35.800781 9.25 -35.378906 9.34375 -34.421875 C 9.59375 -31.785156 10.953125 -29.753906 13.421875 -28.328125 C 15.898438 -26.898438 18.863281 -26.347656 22.3125 -26.671875 C 25.675781 -26.992188 28.757812 -28.113281 31.5625 -30.03125 C 34.375 -31.957031 36.851562 -34.347656 39 -37.203125 C 41.15625 -40.066406 42.960938 -43.179688 44.421875 -46.546875 C 45.878906 -49.921875 46.914062 -53.253906 47.53125 -56.546875 C 48.15625 -59.835938 48.347656 -62.757812 48.109375 -65.3125 C 47.804688 -68.519531 46.832031 -70.890625 45.1875 -72.421875 C 43.550781 -73.960938 41.453125 -74.613281 38.890625 -74.375 C 36.015625 -74.101562 33.550781 -72.800781 31.5 -70.46875 C 29.457031 -68.132812 28.613281 -65.09375 28.96875 -61.34375 C 29.164062 -59.25 29.910156 -57.535156 31.203125 -56.203125 C 32.503906 -54.878906 34.035156 -54.300781 35.796875 -54.46875 C 36.660156 -52.9375 36.722656 -50.984375 35.984375 -48.609375 C 35.242188 -46.234375 33.773438 -44.078125 31.578125 -42.140625 C 29.378906 -40.203125 26.484375 -39.0625 22.890625 -38.71875 C 18.171875 -38.28125 14.082031 -39.632812 10.625 -42.78125 C 7.175781 -45.925781 5.191406 -50.296875 4.671875 -55.890625 C 4.242188 -60.453125 4.753906 -64.878906 6.203125 -69.171875 C 7.660156 -73.472656 9.976562 -77.382812 13.15625 -80.90625 C 16.332031 -84.4375 20.273438 -87.351562 24.984375 -89.65625 C 29.691406 -91.96875 35.046875 -93.40625 41.046875 -93.96875 C 51.535156 -94.957031 59.914062 -92.757812 66.1875 -87.375 C 72.46875 -81.988281 76.597656 -74.335938 78.578125 -64.421875 C 80.179688 -68.765625 82.179688 -73.03125 84.578125 -77.21875 C 86.972656 -81.40625 89.644531 -85.191406 92.59375 -88.578125 C 95.539062 -91.960938 98.644531 -94.738281 101.90625 -96.90625 C 105.175781 -99.070312 108.492188 -100.3125 111.859375 -100.625 C 116.503906 -101.0625 119.898438 -100.128906 122.046875 -97.828125 C 124.203125 -95.523438 125.4375 -92.734375 125.75 -89.453125 C 125.96875 -87.046875 125.75 -84.640625 125.09375 -82.234375 C 124.4375 -79.835938 123.5 -77.8125 122.28125 -76.15625 C 121.0625 -74.507812 119.734375 -73.617188 118.296875 -73.484375 C 117.410156 -73.398438 116.628906 -73.550781 115.953125 -73.9375 C 115.273438 -74.320312 114.535156 -74.476562 113.734375 -74.40625 C 112.535156 -74.289062 111.476562 -73.460938 110.5625 -71.921875 C 109.65625 -70.378906 108.910156 -68.429688 108.328125 -66.078125 C 107.742188 -63.722656 107.289062 -61.238281 106.96875 -58.625 C 106.65625 -56.007812 106.445312 -53.523438 106.34375 -51.171875 C 106.238281 -48.828125 106.253906 -46.9375 106.390625 -45.5 C 106.628906 -43.019531 107.363281 -41.046875 108.59375 -39.578125 C 109.820312 -38.117188 111.796875 -37.519531 114.515625 -37.78125 C 118.347656 -38.132812 121.4375 -40.484375 123.78125 -44.828125 Z M 123.78125 -44.828125 "/></g></g><g style="fill:#ffbd59;fill-opacity:1;"><g transform="translate(176.631184, 260.130675)"><path style="stroke:none" d="M 12.71875 -1.203125 C 8.632812 -0.816406 5.394531 -2.203125 3 -5.359375 C 0.601562 -8.523438 -0.84375 -12.789062 -1.34375 -18.15625 C -1.664062 -21.507812 -1.582031 -25.125 -1.09375 -29 C -0.613281 -32.882812 0.269531 -36.742188 1.5625 -40.578125 C 2.863281 -44.421875 4.613281 -47.960938 6.8125 -51.203125 C 9.007812 -54.441406 11.664062 -57.113281 14.78125 -59.21875 C 17.894531 -61.320312 21.53125 -62.570312 25.6875 -62.96875 C 28.082031 -63.1875 29.960938 -63.132812 31.328125 -62.8125 C 32.691406 -62.5 33.738281 -62.054688 34.46875 -61.484375 C 35.207031 -60.910156 35.835938 -60.425781 36.359375 -60.03125 C 36.890625 -59.632812 37.554688 -59.472656 38.359375 -59.546875 C 39.710938 -59.679688 40.769531 -60.164062 41.53125 -61 C 42.300781 -61.84375 43.171875 -62.691406 44.140625 -63.546875 C 45.117188 -64.410156 46.53125 -64.925781 48.375 -65.09375 C 49.976562 -65.25 51.113281 -64.957031 51.78125 -64.21875 C 52.445312 -63.476562 52.84375 -62.425781 52.96875 -61.0625 C 53.1875 -58.8125 52.78125 -56.523438 51.75 -54.203125 C 50.71875 -51.890625 49.6875 -48.914062 48.65625 -45.28125 C 47.070312 -40.675781 46.648438 -37.238281 47.390625 -34.96875 C 48.128906 -32.695312 49.816406 -31.6875 52.453125 -31.9375 C 54.546875 -32.132812 56.296875 -32.84375 57.703125 -34.0625 C 59.117188 -35.28125 60.335938 -36.910156 61.359375 -38.953125 C 61.898438 -39.972656 62.6875 -40.390625 63.71875 -40.203125 C 64.75 -40.023438 65.640625 -39.5625 66.390625 -38.8125 C 67.148438 -38.070312 67.367188 -37.289062 67.046875 -36.46875 C 65.867188 -33.53125 64.617188 -30.28125 63.296875 -26.71875 C 61.972656 -23.164062 60.457031 -19.734375 58.75 -16.421875 C 57.050781 -13.117188 55.015625 -10.328125 52.640625 -8.046875 C 50.273438 -5.765625 47.414062 -4.460938 44.0625 -4.140625 C 39.894531 -3.753906 36.789062 -5.160156 34.75 -8.359375 C 32.71875 -11.554688 31.820312 -15.671875 32.0625 -20.703125 L 31.59375 -20.65625 C 29.664062 -15.550781 27.097656 -11.128906 23.890625 -7.390625 C 20.691406 -3.660156 16.96875 -1.597656 12.71875 -1.203125 Z M 22.375 -27.171875 C 24.457031 -27.367188 26.222656 -28.140625 27.671875 -29.484375 C 29.128906 -30.835938 30.21875 -32.410156 30.9375 -34.203125 C 31.65625 -36.003906 31.929688 -37.753906 31.765625 -39.453125 C 31.578125 -41.441406 30.867188 -42.941406 29.640625 -43.953125 C 28.421875 -44.972656 26.851562 -45.390625 24.9375 -45.203125 C 22.851562 -45.003906 21.101562 -44.273438 19.6875 -43.015625 C 18.269531 -41.753906 17.222656 -40.222656 16.546875 -38.421875 C 15.867188 -36.628906 15.613281 -34.851562 15.78125 -33.09375 C 15.96875 -31.09375 16.65625 -29.5625 17.84375 -28.5 C 19.03125 -27.4375 20.539062 -26.992188 22.375 -27.171875 Z M 22.375 -27.171875 "/></g></g><g style="fill:#ffbd59;fill-opacity:1;"><g transform="translate(238.807835, 254.279632)"><path style="stroke:none" d="M 12.125 -1.140625 C 7.632812 -0.722656 4.195312 -1.789062 1.8125 -4.34375 C -0.5625 -6.90625 -1.957031 -10.40625 -2.375 -14.84375 C -2.789062 -19.289062 -2.351562 -24.160156 -1.0625 -29.453125 C -0.320312 -32.578125 0.519531 -35.960938 1.46875 -39.609375 C 2.425781 -43.253906 3.46875 -47.226562 4.59375 -51.53125 C 2.832031 -51.363281 1.445312 -51.695312 0.4375 -52.53125 C -0.5625 -53.375 -1.257812 -54.398438 -1.65625 -55.609375 C -2.050781 -56.828125 -2.148438 -57.90625 -1.953125 -58.84375 C -1.765625 -59.789062 -1.3125 -60.296875 -0.59375 -60.359375 C 2.925781 -60.691406 5.59375 -61.929688 7.40625 -64.078125 C 9.21875 -66.222656 10.425781 -68.421875 11.03125 -70.671875 C 12.132812 -74.328125 13.320312 -76.675781 14.59375 -77.71875 C 15.875 -78.769531 17.273438 -79.367188 18.796875 -79.515625 C 21.035156 -79.722656 22.519531 -78.910156 23.25 -77.078125 C 23.988281 -75.253906 23.617188 -72.375 22.140625 -68.4375 C 21.429688 -66.4375 21.082031 -64.929688 21.09375 -63.921875 C 21.113281 -62.910156 21.6875 -62.457031 22.8125 -62.5625 L 29.046875 -63.15625 C 29.847656 -63.226562 30.421875 -62.710938 30.765625 -61.609375 C 31.117188 -60.515625 31.222656 -59.234375 31.078125 -57.765625 C 30.929688 -56.296875 30.53125 -54.96875 29.875 -53.78125 C 29.226562 -52.59375 28.300781 -51.941406 27.09375 -51.828125 C 23.414062 -51.484375 20.707031 -51.085938 18.96875 -50.640625 C 17.238281 -50.191406 16.066406 -49.375 15.453125 -48.1875 C 14.835938 -47 14.257812 -45.007812 13.71875 -42.21875 C 12.820312 -37.9375 13.304688 -34.628906 15.171875 -32.296875 C 17.046875 -29.972656 19.75 -28.972656 23.28125 -29.296875 C 25.675781 -29.523438 27.765625 -30.269531 29.546875 -31.53125 C 31.328125 -32.789062 32.734375 -34.398438 33.765625 -36.359375 C 34.304688 -37.378906 35.085938 -37.796875 36.109375 -37.609375 C 37.128906 -37.429688 38.019531 -36.96875 38.78125 -36.21875 C 39.550781 -35.476562 39.769531 -34.691406 39.4375 -33.859375 C 38.84375 -32.429688 38.054688 -30.457031 37.078125 -27.9375 C 36.109375 -25.425781 34.914062 -22.691406 33.5 -19.734375 C 32.082031 -16.785156 30.367188 -13.960938 28.359375 -11.265625 C 26.359375 -8.578125 24.007812 -6.296875 21.3125 -4.421875 C 18.625 -2.554688 15.5625 -1.460938 12.125 -1.140625 Z M 12.125 -1.140625 "/></g></g><g style="fill:#ffbd59;fill-opacity:1;"><g transform="translate(273.377089, 251.026543)"><path style="stroke:none" d="M 22.578125 -2.125 C 17.773438 -1.675781 13.726562 -2.382812 10.4375 -4.25 C 7.15625 -6.125 4.609375 -8.769531 2.796875 -12.1875 C 0.984375 -15.601562 -0.101562 -19.453125 -0.46875 -23.734375 C -0.84375 -28.023438 -0.507812 -32.378906 0.53125 -36.796875 C 1.570312 -41.222656 3.285156 -45.34375 5.671875 -49.15625 C 8.054688 -52.96875 11.085938 -56.132812 14.765625 -58.65625 C 18.453125 -61.1875 22.734375 -62.679688 27.609375 -63.140625 C 31.367188 -63.492188 34.492188 -63.082031 36.984375 -61.90625 C 39.472656 -60.726562 41.382812 -59.03125 42.71875 -56.8125 C 44.0625 -54.59375 44.859375 -52.164062 45.109375 -49.53125 C 45.378906 -46.644531 44.847656 -43.6875 43.515625 -40.65625 C 42.191406 -37.625 40.175781 -35.035156 37.46875 -32.890625 C 34.769531 -30.742188 31.457031 -29.488281 27.53125 -29.125 C 25.851562 -28.96875 24.203125 -28.929688 22.578125 -29.015625 C 20.953125 -29.097656 19.421875 -29.472656 17.984375 -30.140625 C 17.566406 -30.347656 17.128906 -30.328125 16.671875 -30.078125 C 16.210938 -29.835938 16.019531 -29.316406 16.09375 -28.515625 C 16.289062 -26.429688 17.660156 -24.960938 20.203125 -24.109375 C 22.742188 -23.265625 25.726562 -23.003906 29.15625 -23.328125 C 33.238281 -23.710938 37.363281 -25.148438 41.53125 -27.640625 C 45.707031 -30.128906 48.957031 -33.582031 51.28125 -38 C 51.820312 -39.019531 52.625 -39.441406 53.6875 -39.265625 C 54.757812 -39.085938 55.675781 -38.625 56.4375 -37.875 C 57.195312 -37.132812 57.375 -36.347656 56.96875 -35.515625 C 52.59375 -25.253906 47.503906 -17.285156 41.703125 -11.609375 C 35.910156 -5.941406 29.535156 -2.78125 22.578125 -2.125 Z M 23.546875 -37.828125 C 25.867188 -38.046875 27.625 -38.957031 28.8125 -40.5625 C 30 -42.164062 30.519531 -43.726562 30.375 -45.25 C 30.25 -46.613281 29.675781 -47.726562 28.65625 -48.59375 C 27.644531 -49.46875 26.222656 -49.820312 24.390625 -49.65625 C 22.066406 -49.4375 20.289062 -48.539062 19.0625 -46.96875 C 17.84375 -45.394531 17.3125 -43.8125 17.46875 -42.21875 C 17.582031 -40.925781 18.144531 -39.828125 19.15625 -38.921875 C 20.164062 -38.015625 21.628906 -37.648438 23.546875 -37.828125 Z M 23.546875 -37.828125 "/></g></g></g></svg>