<svg xmlns="http://www.w3.org/2000/svg" xmlns:xlink="http://www.w3.org/1999/xlink" width="500" zoomAndPan="magnify" viewBox="0 0 375 374.999991" height="500" preserveAspectRatio="xMidYMid meet" version="1.2"><defs/><g id="c7fe974d0c"><g style="fill:#4897ff;fill-opacity:0.302;"><g transform="translate(63.727986, 180.991029)"><path style="stroke:none" d="M 17.171875 -1.484375 C 12.210938 -1.023438 8.25 -2.570312 5.28125 -6.125 C 2.320312 -9.6875 0.566406 -14.390625 0.015625 -20.234375 C -0.328125 -23.921875 -0.15625 -27.929688 0.53125 -32.265625 C 1.21875 -36.597656 2.316406 -41.015625 3.828125 -45.515625 C 5.335938 -50.023438 7.171875 -54.335938 9.328125 -58.453125 C 11.484375 -62.566406 13.835938 -66.257812 16.390625 -69.53125 C 18.953125 -72.8125 21.601562 -75.382812 24.34375 -77.25 C 14.289062 -76.707031 6.488281 -74.84375 0.9375 -71.65625 C -4.601562 -68.476562 -7.128906 -64.285156 -6.640625 -59.078125 C -6.472656 -57.316406 -5.894531 -55.894531 -4.90625 -54.8125 C -3.914062 -53.726562 -2.78125 -53.25 -1.5 -53.375 C -0.820312 -52.15625 -0.640625 -50.617188 -0.953125 -48.765625 C -1.265625 -46.921875 -2.046875 -45.109375 -3.296875 -43.328125 C -4.546875 -41.554688 -6.21875 -40.003906 -8.3125 -38.671875 C -10.40625 -37.347656 -12.894531 -36.550781 -15.78125 -36.28125 C -19.050781 -35.976562 -21.875 -36.460938 -24.25 -37.734375 C -26.625 -39.003906 -28.484375 -40.765625 -29.828125 -43.015625 C -31.179688 -45.273438 -31.984375 -47.765625 -32.234375 -50.484375 C -32.703125 -55.367188 -31.875 -60.109375 -29.75 -64.703125 C -27.632812 -69.296875 -24.375 -73.492188 -19.96875 -77.296875 C -15.570312 -81.109375 -10.144531 -84.289062 -3.6875 -86.84375 C 2.769531 -89.394531 10.15625 -91.0625 18.46875 -91.84375 C 23.113281 -92.28125 27.101562 -92.148438 30.4375 -91.453125 C 33.78125 -90.753906 36.191406 -89.40625 37.671875 -87.40625 C 39.160156 -85.40625 39.378906 -82.660156 38.328125 -79.171875 C 35.484375 -77.523438 32.863281 -75.097656 30.46875 -71.890625 C 28.070312 -68.679688 26.007812 -65.078125 24.28125 -61.078125 C 22.550781 -57.078125 21.269531 -53.078125 20.4375 -49.078125 C 19.601562 -45.085938 19.332031 -41.5 19.625 -38.3125 C 19.863281 -35.820312 20.535156 -33.878906 21.640625 -32.484375 C 22.753906 -31.097656 24.3125 -30.5 26.3125 -30.6875 C 28.789062 -30.925781 30.984375 -32.019531 32.890625 -33.96875 C 34.804688 -35.925781 36.484375 -38.460938 37.921875 -41.578125 C 39.367188 -44.703125 40.601562 -48.140625 41.625 -51.890625 C 43.769531 -60.710938 45.734375 -68.09375 47.515625 -74.03125 C 49.304688 -79.976562 51.203125 -84.519531 53.203125 -87.65625 C 55.210938 -90.789062 57.578125 -92.488281 60.296875 -92.75 C 63.566406 -93.0625 65.34375 -91.734375 65.625 -88.765625 C 65.800781 -86.847656 65.335938 -84.503906 64.234375 -81.734375 C 61.578125 -74.785156 59.351562 -68.378906 57.5625 -62.515625 C 55.769531 -56.648438 54.398438 -51.128906 53.453125 -45.953125 C 53.179688 -44.472656 52.96875 -43.039062 52.8125 -41.65625 C 52.65625 -40.269531 52.628906 -39.019531 52.734375 -37.90625 C 52.898438 -36.132812 53.429688 -34.75 54.328125 -33.75 C 55.234375 -32.75 56.773438 -32.347656 58.953125 -32.546875 C 61.023438 -32.742188 62.785156 -33.453125 64.234375 -34.671875 C 65.691406 -35.898438 66.976562 -37.539062 68.09375 -39.59375 C 68.5 -40.351562 69.097656 -40.769531 69.890625 -40.84375 C 71.015625 -40.945312 72.039062 -40.578125 72.96875 -39.734375 C 73.894531 -38.898438 74.160156 -38.019531 73.765625 -37.09375 C 73.097656 -35.738281 72.316406 -33.785156 71.421875 -31.234375 C 70.535156 -28.691406 69.441406 -25.96875 68.140625 -23.0625 C 66.835938 -20.15625 65.257812 -17.34375 63.40625 -14.625 C 61.5625 -11.914062 59.414062 -9.632812 56.96875 -7.78125 C 54.519531 -5.9375 51.65625 -4.859375 48.375 -4.546875 C 44.132812 -4.148438 41.0625 -5.050781 39.15625 -7.25 C 37.257812 -9.457031 36.148438 -12.320312 35.828125 -15.84375 C 35.753906 -16.5625 35.695312 -17.28125 35.65625 -18 C 35.625 -18.726562 35.613281 -19.492188 35.625 -20.296875 C 33.59375 -15.429688 31.066406 -11.179688 28.046875 -7.546875 C 25.035156 -3.910156 21.410156 -1.890625 17.171875 -1.484375 Z M 17.171875 -1.484375 "/></g></g><g style="fill:#4897ff;fill-opacity:0.302;"><g transform="translate(132.615195, 174.508499)"><path style="stroke:none" d="M 15.109375 3.671875 C 10.472656 4.109375 6.640625 3.476562 3.609375 1.78125 C 0.585938 0.0820312 -1.726562 -2.257812 -3.34375 -5.25 C -4.957031 -8.25 -5.921875 -11.390625 -6.234375 -14.671875 C -6.546875 -17.953125 -6.179688 -21.15625 -5.140625 -24.28125 C -4.097656 -27.40625 -2.460938 -30.019531 -0.234375 -32.125 C 1.984375 -34.226562 4.695312 -35.429688 7.90625 -35.734375 C 9.09375 -35.847656 9.734375 -35.425781 9.828125 -34.46875 C 10.078125 -31.832031 11.257812 -29.78125 13.375 -28.3125 C 15.488281 -26.851562 17.941406 -26.257812 20.734375 -26.53125 C 24.023438 -26.832031 27.375 -28.640625 30.78125 -31.953125 C 34.1875 -35.265625 37.28125 -40.96875 40.0625 -49.0625 C 40.851562 -51.875 41.648438 -54.789062 42.453125 -57.8125 C 43.253906 -60.84375 44.054688 -63.6875 44.859375 -66.34375 C 45.453125 -68.5 46.367188 -70.078125 47.609375 -71.078125 C 48.847656 -72.085938 50.347656 -72.675781 52.109375 -72.84375 C 54.671875 -73.082031 56.40625 -72.660156 57.3125 -71.578125 C 58.226562 -70.492188 58.457031 -68.921875 58 -66.859375 C 57.238281 -63.796875 56.65625 -61.21875 56.25 -59.125 C 55.84375 -57.03125 55.628906 -55.25 55.609375 -53.78125 C 55.660156 -52.332031 56.125 -51.46875 57 -51.1875 C 57.875 -50.914062 59.035156 -50.847656 60.484375 -50.984375 C 62.960938 -51.210938 65.21875 -52.085938 67.25 -53.609375 C 69.289062 -55.128906 70.863281 -57.09375 71.96875 -59.5 C 73.070312 -61.90625 73.488281 -64.507812 73.21875 -67.3125 C 72.757812 -72.195312 70.4375 -75.453125 66.25 -77.078125 C 62.0625 -78.703125 56.890625 -79.222656 50.734375 -78.640625 C 45.441406 -78.140625 41.066406 -76.941406 37.609375 -75.046875 C 34.160156 -73.148438 31.609375 -70.910156 29.953125 -68.328125 C 28.304688 -65.753906 27.601562 -63.1875 27.84375 -60.625 C 27.988281 -59.019531 28.550781 -57.71875 29.53125 -56.71875 C 30.519531 -55.71875 31.65625 -55.28125 32.9375 -55.40625 C 33.613281 -54.1875 33.796875 -52.648438 33.484375 -50.796875 C 33.171875 -48.953125 32.390625 -47.144531 31.140625 -45.375 C 29.898438 -43.601562 28.234375 -42.050781 26.140625 -40.71875 C 24.054688 -39.394531 21.570312 -38.597656 18.6875 -38.328125 C 15.394531 -38.015625 12.554688 -38.53125 10.171875 -39.875 C 7.785156 -41.226562 5.910156 -43.132812 4.546875 -45.59375 C 3.179688 -48.050781 2.363281 -50.722656 2.09375 -53.609375 C 1.695312 -57.847656 2.519531 -62.222656 4.5625 -66.734375 C 6.601562 -71.242188 9.734375 -75.492188 13.953125 -79.484375 C 18.179688 -83.472656 23.4375 -86.851562 29.71875 -89.625 C 36 -92.394531 43.21875 -94.164062 51.375 -94.9375 C 64.488281 -96.175781 74.421875 -94.789062 81.171875 -90.78125 C 87.929688 -86.769531 91.691406 -80.722656 92.453125 -72.640625 C 93.078125 -66.003906 91.90625 -60.203125 88.9375 -55.234375 C 85.976562 -50.273438 81.585938 -47.035156 75.765625 -45.515625 C 74.097656 -45.117188 73 -44.734375 72.46875 -44.359375 C 71.945312 -43.992188 71.703125 -43.613281 71.734375 -43.21875 C 71.785156 -42.726562 72.039062 -42.359375 72.5 -42.109375 C 72.96875 -41.867188 73.613281 -41.484375 74.4375 -40.953125 C 75.257812 -40.429688 76.132812 -39.445312 77.0625 -38 C 78.101562 -36.488281 79.289062 -35.25 80.625 -34.28125 C 81.96875 -33.320312 83.800781 -32.953125 86.125 -33.171875 C 88.84375 -33.421875 90.992188 -34.367188 92.578125 -36.015625 C 94.160156 -37.660156 95.640625 -39.757812 97.015625 -42.3125 C 97.554688 -43.332031 98.335938 -43.765625 99.359375 -43.609375 C 100.390625 -43.460938 101.265625 -43 101.984375 -42.21875 C 102.703125 -41.4375 102.9375 -40.632812 102.6875 -39.8125 C 101.519531 -36.070312 100 -32.316406 98.125 -28.546875 C 96.257812 -24.773438 94.140625 -21.328125 91.765625 -18.203125 C 89.398438 -15.078125 86.796875 -12.507812 83.953125 -10.5 C 81.109375 -8.5 78.132812 -7.351562 75.03125 -7.0625 C 71.65625 -6.738281 68.65625 -7.664062 66.03125 -9.84375 C 63.40625 -12.019531 61.632812 -15.8125 60.71875 -21.21875 C 60.394531 -22.882812 60.078125 -24.769531 59.765625 -26.875 C 59.453125 -28.988281 59.066406 -30.972656 58.609375 -32.828125 C 58.148438 -34.679688 57.460938 -36.1875 56.546875 -37.34375 C 55.628906 -38.5 54.453125 -39.007812 53.015625 -38.875 C 52.128906 -38.789062 51.488281 -38.488281 51.09375 -37.96875 C 50.695312 -37.457031 50.378906 -36.742188 50.140625 -35.828125 C 48.304688 -28.796875 45.722656 -22.398438 42.390625 -16.640625 C 39.054688 -10.878906 35.113281 -6.1875 30.5625 -2.5625 C 26.019531 1.050781 20.867188 3.128906 15.109375 3.671875 Z M 15.109375 3.671875 "/></g></g><g style="fill:#4897ff;fill-opacity:0.302;"><g transform="translate(230.425411, 165.304211)"><path style="stroke:none" d="M 72.171875 -39.96875 C 72.710938 -40.988281 73.5 -41.40625 74.53125 -41.21875 C 75.5625 -41.039062 76.453125 -40.578125 77.203125 -39.828125 C 77.960938 -39.085938 78.175781 -38.304688 77.84375 -37.484375 C 75.226562 -31.015625 72.828125 -25.695312 70.640625 -21.53125 C 68.453125 -17.375 66.335938 -14.128906 64.296875 -11.796875 C 62.253906 -9.460938 60.207031 -7.773438 58.15625 -6.734375 C 56.113281 -5.703125 53.929688 -5.078125 51.609375 -4.859375 C 47.847656 -4.503906 44.398438 -4.90625 41.265625 -6.0625 C 38.140625 -7.226562 35.304688 -8.820312 32.765625 -10.84375 C 30.222656 -12.863281 27.835938 -15.019531 25.609375 -17.3125 C 22.972656 -11.882812 19.929688 -7.570312 16.484375 -4.375 C 13.035156 -1.1875 8.828125 0.640625 3.859375 1.109375 C -0.453125 1.515625 -4.160156 0.910156 -7.265625 -0.703125 C -10.367188 -2.316406 -12.78125 -4.535156 -14.5 -7.359375 C -16.226562 -10.179688 -17.25 -13.273438 -17.5625 -16.640625 C -17.882812 -19.992188 -17.328125 -23.3125 -15.890625 -26.59375 C -14.460938 -29.882812 -12.140625 -32.6875 -8.921875 -35 C -5.710938 -37.320312 -1.585938 -38.722656 3.453125 -39.203125 C 6.335938 -39.472656 9.03125 -39.398438 11.53125 -38.984375 C 14.039062 -38.578125 16.414062 -37.992188 18.65625 -37.234375 C 19 -37.992188 19.347656 -38.8125 19.703125 -39.6875 C 20.054688 -40.570312 20.394531 -41.429688 20.71875 -42.265625 C 13.570312 -43.617188 7.78125 -46.382812 3.34375 -50.5625 C -1.082031 -54.75 -3.59375 -60.003906 -4.1875 -66.328125 C -4.8125 -72.960938 -3.375 -78.484375 0.125 -82.890625 C 3.632812 -87.296875 8.546875 -89.800781 14.859375 -90.40625 C 18.867188 -90.78125 22.160156 -90.140625 24.734375 -88.484375 C 27.316406 -86.835938 28.742188 -84.53125 29.015625 -81.5625 C 29.222656 -79.40625 28.679688 -78.265625 27.390625 -78.140625 C 24.515625 -77.867188 22.144531 -76.65625 20.28125 -74.5 C 18.425781 -72.351562 17.664062 -69.519531 18 -66 C 18.238281 -63.519531 18.945312 -61.367188 20.125 -59.546875 C 21.300781 -57.722656 22.800781 -56.203125 24.625 -54.984375 C 27.195312 -63.546875 29.863281 -70.71875 32.625 -76.5 C 35.394531 -82.289062 38.53125 -86.742188 42.03125 -89.859375 C 45.53125 -92.984375 49.722656 -94.78125 54.609375 -95.25 C 60.054688 -95.757812 64.488281 -94.757812 67.90625 -92.25 C 71.332031 -89.75 73.304688 -85.691406 73.828125 -80.078125 C 74.222656 -75.921875 73.773438 -71.722656 72.484375 -67.484375 C 71.191406 -63.242188 69 -59.304688 65.90625 -55.671875 C 62.8125 -52.035156 58.800781 -48.972656 53.875 -46.484375 C 48.945312 -43.992188 43.039062 -42.425781 36.15625 -41.78125 L 34.828125 -41.65625 C 33.710938 -38.082031 32.570312 -34.707031 31.40625 -31.53125 C 34.195312 -30.257812 37.085938 -29.21875 40.078125 -28.40625 C 43.066406 -27.601562 46.316406 -27.367188 49.828125 -27.703125 C 52.546875 -27.960938 55.375 -28.570312 58.3125 -29.53125 C 61.25 -30.488281 63.945312 -31.832031 66.40625 -33.5625 C 68.875 -35.289062 70.796875 -37.425781 72.171875 -39.96875 Z M 50.8125 -73.9375 C 50.082031 -73.863281 49.128906 -73.40625 47.953125 -72.5625 C 46.785156 -71.726562 45.429688 -69.882812 43.890625 -67.03125 C 42.347656 -64.175781 40.601562 -59.753906 38.65625 -53.765625 C 38.53125 -53.359375 38.414062 -52.90625 38.3125 -52.40625 C 42.195312 -53.019531 45.398438 -54.3125 47.921875 -56.28125 C 50.441406 -58.25 52.3125 -60.484375 53.53125 -62.984375 C 54.75 -65.484375 55.265625 -67.734375 55.078125 -69.734375 C 54.960938 -70.921875 54.5625 -71.945312 53.875 -72.8125 C 53.1875 -73.6875 52.164062 -74.0625 50.8125 -73.9375 Z M 8.171875 -25.109375 C 10.335938 -25.304688 12.382812 -26.707031 14.3125 -29.3125 C 13.257812 -30.1875 12.203125 -30.851562 11.140625 -31.3125 C 10.085938 -31.78125 9.003906 -31.960938 7.890625 -31.859375 C 6.535156 -31.734375 5.523438 -31.296875 4.859375 -30.546875 C 4.203125 -29.804688 3.914062 -28.992188 4 -28.109375 C 4.082031 -27.234375 4.476562 -26.484375 5.1875 -25.859375 C 5.90625 -25.234375 6.898438 -24.984375 8.171875 -25.109375 Z M 8.171875 -25.109375 "/></g></g><g style="fill:#4897ff;fill-opacity:0.502;"><g transform="translate(61.725832, 176.769921)"><path style="stroke:none" d="M 17.171875 -1.484375 C 12.210938 -1.023438 8.25 -2.570312 5.28125 -6.125 C 2.320312 -9.6875 0.566406 -14.390625 0.015625 -20.234375 C -0.328125 -23.921875 -0.15625 -27.929688 0.53125 -32.265625 C 1.21875 -36.597656 2.316406 -41.015625 3.828125 -45.515625 C 5.335938 -50.023438 7.171875 -54.335938 9.328125 -58.453125 C 11.484375 -62.566406 13.835938 -66.257812 16.390625 -69.53125 C 18.953125 -72.8125 21.601562 -75.382812 24.34375 -77.25 C 14.289062 -76.707031 6.488281 -74.84375 0.9375 -71.65625 C -4.601562 -68.476562 -7.128906 -64.285156 -6.640625 -59.078125 C -6.472656 -57.316406 -5.894531 -55.894531 -4.90625 -54.8125 C -3.914062 -53.726562 -2.78125 -53.25 -1.5 -53.375 C -0.820312 -52.15625 -0.640625 -50.617188 -0.953125 -48.765625 C -1.265625 -46.921875 -2.046875 -45.109375 -3.296875 -43.328125 C -4.546875 -41.554688 -6.21875 -40.003906 -8.3125 -38.671875 C -10.40625 -37.347656 -12.894531 -36.550781 -15.78125 -36.28125 C -19.050781 -35.976562 -21.875 -36.460938 -24.25 -37.734375 C -26.625 -39.003906 -28.484375 -40.765625 -29.828125 -43.015625 C -31.179688 -45.273438 -31.984375 -47.765625 -32.234375 -50.484375 C -32.703125 -55.367188 -31.875 -60.109375 -29.75 -64.703125 C -27.632812 -69.296875 -24.375 -73.492188 -19.96875 -77.296875 C -15.570312 -81.109375 -10.144531 -84.289062 -3.6875 -86.84375 C 2.769531 -89.394531 10.15625 -91.0625 18.46875 -91.84375 C 23.113281 -92.28125 27.101562 -92.148438 30.4375 -91.453125 C 33.78125 -90.753906 36.191406 -89.40625 37.671875 -87.40625 C 39.160156 -85.40625 39.378906 -82.660156 38.328125 -79.171875 C 35.484375 -77.523438 32.863281 -75.097656 30.46875 -71.890625 C 28.070312 -68.679688 26.007812 -65.078125 24.28125 -61.078125 C 22.550781 -57.078125 21.269531 -53.078125 20.4375 -49.078125 C 19.601562 -45.085938 19.332031 -41.5 19.625 -38.3125 C 19.863281 -35.820312 20.535156 -33.878906 21.640625 -32.484375 C 22.753906 -31.097656 24.3125 -30.5 26.3125 -30.6875 C 28.789062 -30.925781 30.984375 -32.019531 32.890625 -33.96875 C 34.804688 -35.925781 36.484375 -38.460938 37.921875 -41.578125 C 39.367188 -44.703125 40.601562 -48.140625 41.625 -51.890625 C 43.769531 -60.710938 45.734375 -68.09375 47.515625 -74.03125 C 49.304688 -79.976562 51.203125 -84.519531 53.203125 -87.65625 C 55.210938 -90.789062 57.578125 -92.488281 60.296875 -92.75 C 63.566406 -93.0625 65.34375 -91.734375 65.625 -88.765625 C 65.800781 -86.847656 65.335938 -84.503906 64.234375 -81.734375 C 61.578125 -74.785156 59.351562 -68.378906 57.5625 -62.515625 C 55.769531 -56.648438 54.398438 -51.128906 53.453125 -45.953125 C 53.179688 -44.472656 52.96875 -43.039062 52.8125 -41.65625 C 52.65625 -40.269531 52.628906 -39.019531 52.734375 -37.90625 C 52.898438 -36.132812 53.429688 -34.75 54.328125 -33.75 C 55.234375 -32.75 56.773438 -32.347656 58.953125 -32.546875 C 61.023438 -32.742188 62.785156 -33.453125 64.234375 -34.671875 C 65.691406 -35.898438 66.976562 -37.539062 68.09375 -39.59375 C 68.5 -40.351562 69.097656 -40.769531 69.890625 -40.84375 C 71.015625 -40.945312 72.039062 -40.578125 72.96875 -39.734375 C 73.894531 -38.898438 74.160156 -38.019531 73.765625 -37.09375 C 73.097656 -35.738281 72.316406 -33.785156 71.421875 -31.234375 C 70.535156 -28.691406 69.441406 -25.96875 68.140625 -23.0625 C 66.835938 -20.15625 65.257812 -17.34375 63.40625 -14.625 C 61.5625 -11.914062 59.414062 -9.632812 56.96875 -7.78125 C 54.519531 -5.9375 51.65625 -4.859375 48.375 -4.546875 C 44.132812 -4.148438 41.0625 -5.050781 39.15625 -7.25 C 37.257812 -9.457031 36.148438 -12.320312 35.828125 -15.84375 C 35.753906 -16.5625 35.695312 -17.28125 35.65625 -18 C 35.625 -18.726562 35.613281 -19.492188 35.625 -20.296875 C 33.59375 -15.429688 31.066406 -11.179688 28.046875 -7.546875 C 25.035156 -3.910156 21.410156 -1.890625 17.171875 -1.484375 Z M 17.171875 -1.484375 "/></g></g><g style="fill:#4897ff;fill-opacity:0.502;"><g transform="translate(130.613042, 170.287391)"><path style="stroke:none" d="M 15.109375 3.671875 C 10.472656 4.109375 6.640625 3.476562 3.609375 1.78125 C 0.585938 0.0820312 -1.726562 -2.257812 -3.34375 -5.25 C -4.957031 -8.25 -5.921875 -11.390625 -6.234375 -14.671875 C -6.546875 -17.953125 -6.179688 -21.15625 -5.140625 -24.28125 C -4.097656 -27.40625 -2.460938 -30.019531 -0.234375 -32.125 C 1.984375 -34.226562 4.695312 -35.429688 7.90625 -35.734375 C 9.09375 -35.847656 9.734375 -35.425781 9.828125 -34.46875 C 10.078125 -31.832031 11.257812 -29.78125 13.375 -28.3125 C 15.488281 -26.851562 17.941406 -26.257812 20.734375 -26.53125 C 24.023438 -26.832031 27.375 -28.640625 30.78125 -31.953125 C 34.1875 -35.265625 37.28125 -40.96875 40.0625 -49.0625 C 40.851562 -51.875 41.648438 -54.789062 42.453125 -57.8125 C 43.253906 -60.84375 44.054688 -63.6875 44.859375 -66.34375 C 45.453125 -68.5 46.367188 -70.078125 47.609375 -71.078125 C 48.847656 -72.085938 50.347656 -72.675781 52.109375 -72.84375 C 54.671875 -73.082031 56.40625 -72.660156 57.3125 -71.578125 C 58.226562 -70.492188 58.457031 -68.921875 58 -66.859375 C 57.238281 -63.796875 56.65625 -61.21875 56.25 -59.125 C 55.84375 -57.03125 55.628906 -55.25 55.609375 -53.78125 C 55.660156 -52.332031 56.125 -51.46875 57 -51.1875 C 57.875 -50.914062 59.035156 -50.847656 60.484375 -50.984375 C 62.960938 -51.210938 65.21875 -52.085938 67.25 -53.609375 C 69.289062 -55.128906 70.863281 -57.09375 71.96875 -59.5 C 73.070312 -61.90625 73.488281 -64.507812 73.21875 -67.3125 C 72.757812 -72.195312 70.4375 -75.453125 66.25 -77.078125 C 62.0625 -78.703125 56.890625 -79.222656 50.734375 -78.640625 C 45.441406 -78.140625 41.066406 -76.941406 37.609375 -75.046875 C 34.160156 -73.148438 31.609375 -70.910156 29.953125 -68.328125 C 28.304688 -65.753906 27.601562 -63.1875 27.84375 -60.625 C 27.988281 -59.019531 28.550781 -57.71875 29.53125 -56.71875 C 30.519531 -55.71875 31.65625 -55.28125 32.9375 -55.40625 C 33.613281 -54.1875 33.796875 -52.648438 33.484375 -50.796875 C 33.171875 -48.953125 32.390625 -47.144531 31.140625 -45.375 C 29.898438 -43.601562 28.234375 -42.050781 26.140625 -40.71875 C 24.054688 -39.394531 21.570312 -38.597656 18.6875 -38.328125 C 15.394531 -38.015625 12.554688 -38.53125 10.171875 -39.875 C 7.785156 -41.226562 5.910156 -43.132812 4.546875 -45.59375 C 3.179688 -48.050781 2.363281 -50.722656 2.09375 -53.609375 C 1.695312 -57.847656 2.519531 -62.222656 4.5625 -66.734375 C 6.601562 -71.242188 9.734375 -75.492188 13.953125 -79.484375 C 18.179688 -83.472656 23.4375 -86.851562 29.71875 -89.625 C 36 -92.394531 43.21875 -94.164062 51.375 -94.9375 C 64.488281 -96.175781 74.421875 -94.789062 81.171875 -90.78125 C 87.929688 -86.769531 91.691406 -80.722656 92.453125 -72.640625 C 93.078125 -66.003906 91.90625 -60.203125 88.9375 -55.234375 C 85.976562 -50.273438 81.585938 -47.035156 75.765625 -45.515625 C 74.097656 -45.117188 73 -44.734375 72.46875 -44.359375 C 71.945312 -43.992188 71.703125 -43.613281 71.734375 -43.21875 C 71.785156 -42.726562 72.039062 -42.359375 72.5 -42.109375 C 72.96875 -41.867188 73.613281 -41.484375 74.4375 -40.953125 C 75.257812 -40.429688 76.132812 -39.445312 77.0625 -38 C 78.101562 -36.488281 79.289062 -35.25 80.625 -34.28125 C 81.96875 -33.320312 83.800781 -32.953125 86.125 -33.171875 C 88.84375 -33.421875 90.992188 -34.367188 92.578125 -36.015625 C 94.160156 -37.660156 95.640625 -39.757812 97.015625 -42.3125 C 97.554688 -43.332031 98.335938 -43.765625 99.359375 -43.609375 C 100.390625 -43.460938 101.265625 -43 101.984375 -42.21875 C 102.703125 -41.4375 102.9375 -40.632812 102.6875 -39.8125 C 101.519531 -36.070312 100 -32.316406 98.125 -28.546875 C 96.257812 -24.773438 94.140625 -21.328125 91.765625 -18.203125 C 89.398438 -15.078125 86.796875 -12.507812 83.953125 -10.5 C 81.109375 -8.5 78.132812 -7.351562 75.03125 -7.0625 C 71.65625 -6.738281 68.65625 -7.664062 66.03125 -9.84375 C 63.40625 -12.019531 61.632812 -15.8125 60.71875 -21.21875 C 60.394531 -22.882812 60.078125 -24.769531 59.765625 -26.875 C 59.453125 -28.988281 59.066406 -30.972656 58.609375 -32.828125 C 58.148438 -34.679688 57.460938 -36.1875 56.546875 -37.34375 C 55.628906 -38.5 54.453125 -39.007812 53.015625 -38.875 C 52.128906 -38.789062 51.488281 -38.488281 51.09375 -37.96875 C 50.695312 -37.457031 50.378906 -36.742188 50.140625 -35.828125 C 48.304688 -28.796875 45.722656 -22.398438 42.390625 -16.640625 C 39.054688 -10.878906 35.113281 -6.1875 30.5625 -2.5625 C 26.019531 1.050781 20.867188 3.128906 15.109375 3.671875 Z M 15.109375 3.671875 "/></g></g><g style="fill:#4897ff;fill-opacity:0.502;"><g transform="translate(228.423258, 161.083104)"><path style="stroke:none" d="M 72.171875 -39.96875 C 72.710938 -40.988281 73.5 -41.40625 74.53125 -41.21875 C 75.5625 -41.039062 76.453125 -40.578125 77.203125 -39.828125 C 77.960938 -39.085938 78.175781 -38.304688 77.84375 -37.484375 C 75.226562 -31.015625 72.828125 -25.695312 70.640625 -21.53125 C 68.453125 -17.375 66.335938 -14.128906 64.296875 -11.796875 C 62.253906 -9.460938 60.207031 -7.773438 58.15625 -6.734375 C 56.113281 -5.703125 53.929688 -5.078125 51.609375 -4.859375 C 47.847656 -4.503906 44.398438 -4.90625 41.265625 -6.0625 C 38.140625 -7.226562 35.304688 -8.820312 32.765625 -10.84375 C 30.222656 -12.863281 27.835938 -15.019531 25.609375 -17.3125 C 22.972656 -11.882812 19.929688 -7.570312 16.484375 -4.375 C 13.035156 -1.1875 8.828125 0.640625 3.859375 1.109375 C -0.453125 1.515625 -4.160156 0.910156 -7.265625 -0.703125 C -10.367188 -2.316406 -12.78125 -4.535156 -14.5 -7.359375 C -16.226562 -10.179688 -17.25 -13.273438 -17.5625 -16.640625 C -17.882812 -19.992188 -17.328125 -23.3125 -15.890625 -26.59375 C -14.460938 -29.882812 -12.140625 -32.6875 -8.921875 -35 C -5.710938 -37.320312 -1.585938 -38.722656 3.453125 -39.203125 C 6.335938 -39.472656 9.03125 -39.398438 11.53125 -38.984375 C 14.039062 -38.578125 16.414062 -37.992188 18.65625 -37.234375 C 19 -37.992188 19.347656 -38.8125 19.703125 -39.6875 C 20.054688 -40.570312 20.394531 -41.429688 20.71875 -42.265625 C 13.570312 -43.617188 7.78125 -46.382812 3.34375 -50.5625 C -1.082031 -54.75 -3.59375 -60.003906 -4.1875 -66.328125 C -4.8125 -72.960938 -3.375 -78.484375 0.125 -82.890625 C 3.632812 -87.296875 8.546875 -89.800781 14.859375 -90.40625 C 18.867188 -90.78125 22.160156 -90.140625 24.734375 -88.484375 C 27.316406 -86.835938 28.742188 -84.53125 29.015625 -81.5625 C 29.222656 -79.40625 28.679688 -78.265625 27.390625 -78.140625 C 24.515625 -77.867188 22.144531 -76.65625 20.28125 -74.5 C 18.425781 -72.351562 17.664062 -69.519531 18 -66 C 18.238281 -63.519531 18.945312 -61.367188 20.125 -59.546875 C 21.300781 -57.722656 22.800781 -56.203125 24.625 -54.984375 C 27.195312 -63.546875 29.863281 -70.71875 32.625 -76.5 C 35.394531 -82.289062 38.53125 -86.742188 42.03125 -89.859375 C 45.53125 -92.984375 49.722656 -94.78125 54.609375 -95.25 C 60.054688 -95.757812 64.488281 -94.757812 67.90625 -92.25 C 71.332031 -89.75 73.304688 -85.691406 73.828125 -80.078125 C 74.222656 -75.921875 73.773438 -71.722656 72.484375 -67.484375 C 71.191406 -63.242188 69 -59.304688 65.90625 -55.671875 C 62.8125 -52.035156 58.800781 -48.972656 53.875 -46.484375 C 48.945312 -43.992188 43.039062 -42.425781 36.15625 -41.78125 L 34.828125 -41.65625 C 33.710938 -38.082031 32.570312 -34.707031 31.40625 -31.53125 C 34.195312 -30.257812 37.085938 -29.21875 40.078125 -28.40625 C 43.066406 -27.601562 46.316406 -27.367188 49.828125 -27.703125 C 52.546875 -27.960938 55.375 -28.570312 58.3125 -29.53125 C 61.25 -30.488281 63.945312 -31.832031 66.40625 -33.5625 C 68.875 -35.289062 70.796875 -37.425781 72.171875 -39.96875 Z M 50.8125 -73.9375 C 50.082031 -73.863281 49.128906 -73.40625 47.953125 -72.5625 C 46.785156 -71.726562 45.429688 -69.882812 43.890625 -67.03125 C 42.347656 -64.175781 40.601562 -59.753906 38.65625 -53.765625 C 38.53125 -53.359375 38.414062 -52.90625 38.3125 -52.40625 C 42.195312 -53.019531 45.398438 -54.3125 47.921875 -56.28125 C 50.441406 -58.25 52.3125 -60.484375 53.53125 -62.984375 C 54.75 -65.484375 55.265625 -67.734375 55.078125 -69.734375 C 54.960938 -70.921875 54.5625 -71.945312 53.875 -72.8125 C 53.1875 -73.6875 52.164062 -74.0625 50.8125 -73.9375 Z M 8.171875 -25.109375 C 10.335938 -25.304688 12.382812 -26.707031 14.3125 -29.3125 C 13.257812 -30.1875 12.203125 -30.851562 11.140625 -31.3125 C 10.085938 -31.78125 9.003906 -31.960938 7.890625 -31.859375 C 6.535156 -31.734375 5.523438 -31.296875 4.859375 -30.546875 C 4.203125 -29.804688 3.914062 -28.992188 4 -28.109375 C 4.082031 -27.234375 4.476562 -26.484375 5.1875 -25.859375 C 5.90625 -25.234375 6.898438 -24.984375 8.171875 -25.109375 Z M 8.171875 -25.109375 "/></g></g><g style="fill:#1772eb;fill-opacity:1;"><g transform="translate(59.723681, 172.548821)"><path style="stroke:none" d="M 17.171875 -1.484375 C 12.210938 -1.023438 8.25 -2.570312 5.28125 -6.125 C 2.320312 -9.6875 0.566406 -14.390625 0.015625 -20.234375 C -0.328125 -23.921875 -0.15625 -27.929688 0.53125 -32.265625 C 1.21875 -36.597656 2.316406 -41.015625 3.828125 -45.515625 C 5.335938 -50.023438 7.171875 -54.335938 9.328125 -58.453125 C 11.484375 -62.566406 13.835938 -66.257812 16.390625 -69.53125 C 18.953125 -72.8125 21.601562 -75.382812 24.34375 -77.25 C 14.289062 -76.707031 6.488281 -74.84375 0.9375 -71.65625 C -4.601562 -68.476562 -7.128906 -64.285156 -6.640625 -59.078125 C -6.472656 -57.316406 -5.894531 -55.894531 -4.90625 -54.8125 C -3.914062 -53.726562 -2.78125 -53.25 -1.5 -53.375 C -0.820312 -52.15625 -0.640625 -50.617188 -0.953125 -48.765625 C -1.265625 -46.921875 -2.046875 -45.109375 -3.296875 -43.328125 C -4.546875 -41.554688 -6.21875 -40.003906 -8.3125 -38.671875 C -10.40625 -37.347656 -12.894531 -36.550781 -15.78125 -36.28125 C -19.050781 -35.976562 -21.875 -36.460938 -24.25 -37.734375 C -26.625 -39.003906 -28.484375 -40.765625 -29.828125 -43.015625 C -31.179688 -45.273438 -31.984375 -47.765625 -32.234375 -50.484375 C -32.703125 -55.367188 -31.875 -60.109375 -29.75 -64.703125 C -27.632812 -69.296875 -24.375 -73.492188 -19.96875 -77.296875 C -15.570312 -81.109375 -10.144531 -84.289062 -3.6875 -86.84375 C 2.769531 -89.394531 10.15625 -91.0625 18.46875 -91.84375 C 23.113281 -92.28125 27.101562 -92.148438 30.4375 -91.453125 C 33.78125 -90.753906 36.191406 -89.40625 37.671875 -87.40625 C 39.160156 -85.40625 39.378906 -82.660156 38.328125 -79.171875 C 35.484375 -77.523438 32.863281 -75.097656 30.46875 -71.890625 C 28.070312 -68.679688 26.007812 -65.078125 24.28125 -61.078125 C 22.550781 -57.078125 21.269531 -53.078125 20.4375 -49.078125 C 19.601562 -45.085938 19.332031 -41.5 19.625 -38.3125 C 19.863281 -35.820312 20.535156 -33.878906 21.640625 -32.484375 C 22.753906 -31.097656 24.3125 -30.5 26.3125 -30.6875 C 28.789062 -30.925781 30.984375 -32.019531 32.890625 -33.96875 C 34.804688 -35.925781 36.484375 -38.460938 37.921875 -41.578125 C 39.367188 -44.703125 40.601562 -48.140625 41.625 -51.890625 C 43.769531 -60.710938 45.734375 -68.09375 47.515625 -74.03125 C 49.304688 -79.976562 51.203125 -84.519531 53.203125 -87.65625 C 55.210938 -90.789062 57.578125 -92.488281 60.296875 -92.75 C 63.566406 -93.0625 65.34375 -91.734375 65.625 -88.765625 C 65.800781 -86.847656 65.335938 -84.503906 64.234375 -81.734375 C 61.578125 -74.785156 59.351562 -68.378906 57.5625 -62.515625 C 55.769531 -56.648438 54.398438 -51.128906 53.453125 -45.953125 C 53.179688 -44.472656 52.96875 -43.039062 52.8125 -41.65625 C 52.65625 -40.269531 52.628906 -39.019531 52.734375 -37.90625 C 52.898438 -36.132812 53.429688 -34.75 54.328125 -33.75 C 55.234375 -32.75 56.773438 -32.347656 58.953125 -32.546875 C 61.023438 -32.742188 62.785156 -33.453125 64.234375 -34.671875 C 65.691406 -35.898438 66.976562 -37.539062 68.09375 -39.59375 C 68.5 -40.351562 69.097656 -40.769531 69.890625 -40.84375 C 71.015625 -40.945312 72.039062 -40.578125 72.96875 -39.734375 C 73.894531 -38.898438 74.160156 -38.019531 73.765625 -37.09375 C 73.097656 -35.738281 72.316406 -33.785156 71.421875 -31.234375 C 70.535156 -28.691406 69.441406 -25.96875 68.140625 -23.0625 C 66.835938 -20.15625 65.257812 -17.34375 63.40625 -14.625 C 61.5625 -11.914062 59.414062 -9.632812 56.96875 -7.78125 C 54.519531 -5.9375 51.65625 -4.859375 48.375 -4.546875 C 44.132812 -4.148438 41.0625 -5.050781 39.15625 -7.25 C 37.257812 -9.457031 36.148438 -12.320312 35.828125 -15.84375 C 35.753906 -16.5625 35.695312 -17.28125 35.65625 -18 C 35.625 -18.726562 35.613281 -19.492188 35.625 -20.296875 C 33.59375 -15.429688 31.066406 -11.179688 28.046875 -7.546875 C 25.035156 -3.910156 21.410156 -1.890625 17.171875 -1.484375 Z M 17.171875 -1.484375 "/></g></g><g style="fill:#1772eb;fill-opacity:1;"><g transform="translate(128.61089, 166.066291)"><path style="stroke:none" d="M 15.109375 3.671875 C 10.472656 4.109375 6.640625 3.476562 3.609375 1.78125 C 0.585938 0.0820312 -1.726562 -2.257812 -3.34375 -5.25 C -4.957031 -8.25 -5.921875 -11.390625 -6.234375 -14.671875 C -6.546875 -17.953125 -6.179688 -21.15625 -5.140625 -24.28125 C -4.097656 -27.40625 -2.460938 -30.019531 -0.234375 -32.125 C 1.984375 -34.226562 4.695312 -35.429688 7.90625 -35.734375 C 9.09375 -35.847656 9.734375 -35.425781 9.828125 -34.46875 C 10.078125 -31.832031 11.257812 -29.78125 13.375 -28.3125 C 15.488281 -26.851562 17.941406 -26.257812 20.734375 -26.53125 C 24.023438 -26.832031 27.375 -28.640625 30.78125 -31.953125 C 34.1875 -35.265625 37.28125 -40.96875 40.0625 -49.0625 C 40.851562 -51.875 41.648438 -54.789062 42.453125 -57.8125 C 43.253906 -60.84375 44.054688 -63.6875 44.859375 -66.34375 C 45.453125 -68.5 46.367188 -70.078125 47.609375 -71.078125 C 48.847656 -72.085938 50.347656 -72.675781 52.109375 -72.84375 C 54.671875 -73.082031 56.40625 -72.660156 57.3125 -71.578125 C 58.226562 -70.492188 58.457031 -68.921875 58 -66.859375 C 57.238281 -63.796875 56.65625 -61.21875 56.25 -59.125 C 55.84375 -57.03125 55.628906 -55.25 55.609375 -53.78125 C 55.660156 -52.332031 56.125 -51.46875 57 -51.1875 C 57.875 -50.914062 59.035156 -50.847656 60.484375 -50.984375 C 62.960938 -51.210938 65.21875 -52.085938 67.25 -53.609375 C 69.289062 -55.128906 70.863281 -57.09375 71.96875 -59.5 C 73.070312 -61.90625 73.488281 -64.507812 73.21875 -67.3125 C 72.757812 -72.195312 70.4375 -75.453125 66.25 -77.078125 C 62.0625 -78.703125 56.890625 -79.222656 50.734375 -78.640625 C 45.441406 -78.140625 41.066406 -76.941406 37.609375 -75.046875 C 34.160156 -73.148438 31.609375 -70.910156 29.953125 -68.328125 C 28.304688 -65.753906 27.601562 -63.1875 27.84375 -60.625 C 27.988281 -59.019531 28.550781 -57.71875 29.53125 -56.71875 C 30.519531 -55.71875 31.65625 -55.28125 32.9375 -55.40625 C 33.613281 -54.1875 33.796875 -52.648438 33.484375 -50.796875 C 33.171875 -48.953125 32.390625 -47.144531 31.140625 -45.375 C 29.898438 -43.601562 28.234375 -42.050781 26.140625 -40.71875 C 24.054688 -39.394531 21.570312 -38.597656 18.6875 -38.328125 C 15.394531 -38.015625 12.554688 -38.53125 10.171875 -39.875 C 7.785156 -41.226562 5.910156 -43.132812 4.546875 -45.59375 C 3.179688 -48.050781 2.363281 -50.722656 2.09375 -53.609375 C 1.695312 -57.847656 2.519531 -62.222656 4.5625 -66.734375 C 6.601562 -71.242188 9.734375 -75.492188 13.953125 -79.484375 C 18.179688 -83.472656 23.4375 -86.851562 29.71875 -89.625 C 36 -92.394531 43.21875 -94.164062 51.375 -94.9375 C 64.488281 -96.175781 74.421875 -94.789062 81.171875 -90.78125 C 87.929688 -86.769531 91.691406 -80.722656 92.453125 -72.640625 C 93.078125 -66.003906 91.90625 -60.203125 88.9375 -55.234375 C 85.976562 -50.273438 81.585938 -47.035156 75.765625 -45.515625 C 74.097656 -45.117188 73 -44.734375 72.46875 -44.359375 C 71.945312 -43.992188 71.703125 -43.613281 71.734375 -43.21875 C 71.785156 -42.726562 72.039062 -42.359375 72.5 -42.109375 C 72.96875 -41.867188 73.613281 -41.484375 74.4375 -40.953125 C 75.257812 -40.429688 76.132812 -39.445312 77.0625 -38 C 78.101562 -36.488281 79.289062 -35.25 80.625 -34.28125 C 81.96875 -33.320312 83.800781 -32.953125 86.125 -33.171875 C 88.84375 -33.421875 90.992188 -34.367188 92.578125 -36.015625 C 94.160156 -37.660156 95.640625 -39.757812 97.015625 -42.3125 C 97.554688 -43.332031 98.335938 -43.765625 99.359375 -43.609375 C 100.390625 -43.460938 101.265625 -43 101.984375 -42.21875 C 102.703125 -41.4375 102.9375 -40.632812 102.6875 -39.8125 C 101.519531 -36.070312 100 -32.316406 98.125 -28.546875 C 96.257812 -24.773438 94.140625 -21.328125 91.765625 -18.203125 C 89.398438 -15.078125 86.796875 -12.507812 83.953125 -10.5 C 81.109375 -8.5 78.132812 -7.351562 75.03125 -7.0625 C 71.65625 -6.738281 68.65625 -7.664062 66.03125 -9.84375 C 63.40625 -12.019531 61.632812 -15.8125 60.71875 -21.21875 C 60.394531 -22.882812 60.078125 -24.769531 59.765625 -26.875 C 59.453125 -28.988281 59.066406 -30.972656 58.609375 -32.828125 C 58.148438 -34.679688 57.460938 -36.1875 56.546875 -37.34375 C 55.628906 -38.5 54.453125 -39.007812 53.015625 -38.875 C 52.128906 -38.789062 51.488281 -38.488281 51.09375 -37.96875 C 50.695312 -37.457031 50.378906 -36.742188 50.140625 -35.828125 C 48.304688 -28.796875 45.722656 -22.398438 42.390625 -16.640625 C 39.054688 -10.878906 35.113281 -6.1875 30.5625 -2.5625 C 26.019531 1.050781 20.867188 3.128906 15.109375 3.671875 Z M 15.109375 3.671875 "/></g></g><g style="fill:#1772eb;fill-opacity:1;"><g transform="translate(226.421106, 156.862003)"><path style="stroke:none" d="M 72.171875 -39.96875 C 72.710938 -40.988281 73.5 -41.40625 74.53125 -41.21875 C 75.5625 -41.039062 76.453125 -40.578125 77.203125 -39.828125 C 77.960938 -39.085938 78.175781 -38.304688 77.84375 -37.484375 C 75.226562 -31.015625 72.828125 -25.695312 70.640625 -21.53125 C 68.453125 -17.375 66.335938 -14.128906 64.296875 -11.796875 C 62.253906 -9.460938 60.207031 -7.773438 58.15625 -6.734375 C 56.113281 -5.703125 53.929688 -5.078125 51.609375 -4.859375 C 47.847656 -4.503906 44.398438 -4.90625 41.265625 -6.0625 C 38.140625 -7.226562 35.304688 -8.820312 32.765625 -10.84375 C 30.222656 -12.863281 27.835938 -15.019531 25.609375 -17.3125 C 22.972656 -11.882812 19.929688 -7.570312 16.484375 -4.375 C 13.035156 -1.1875 8.828125 0.640625 3.859375 1.109375 C -0.453125 1.515625 -4.160156 0.910156 -7.265625 -0.703125 C -10.367188 -2.316406 -12.78125 -4.535156 -14.5 -7.359375 C -16.226562 -10.179688 -17.25 -13.273438 -17.5625 -16.640625 C -17.882812 -19.992188 -17.328125 -23.3125 -15.890625 -26.59375 C -14.460938 -29.882812 -12.140625 -32.6875 -8.921875 -35 C -5.710938 -37.320312 -1.585938 -38.722656 3.453125 -39.203125 C 6.335938 -39.472656 9.03125 -39.398438 11.53125 -38.984375 C 14.039062 -38.578125 16.414062 -37.992188 18.65625 -37.234375 C 19 -37.992188 19.347656 -38.8125 19.703125 -39.6875 C 20.054688 -40.570312 20.394531 -41.429688 20.71875 -42.265625 C 13.570312 -43.617188 7.78125 -46.382812 3.34375 -50.5625 C -1.082031 -54.75 -3.59375 -60.003906 -4.1875 -66.328125 C -4.8125 -72.960938 -3.375 -78.484375 0.125 -82.890625 C 3.632812 -87.296875 8.546875 -89.800781 14.859375 -90.40625 C 18.867188 -90.78125 22.160156 -90.140625 24.734375 -88.484375 C 27.316406 -86.835938 28.742188 -84.53125 29.015625 -81.5625 C 29.222656 -79.40625 28.679688 -78.265625 27.390625 -78.140625 C 24.515625 -77.867188 22.144531 -76.65625 20.28125 -74.5 C 18.425781 -72.351562 17.664062 -69.519531 18 -66 C 18.238281 -63.519531 18.945312 -61.367188 20.125 -59.546875 C 21.300781 -57.722656 22.800781 -56.203125 24.625 -54.984375 C 27.195312 -63.546875 29.863281 -70.71875 32.625 -76.5 C 35.394531 -82.289062 38.53125 -86.742188 42.03125 -89.859375 C 45.53125 -92.984375 49.722656 -94.78125 54.609375 -95.25 C 60.054688 -95.757812 64.488281 -94.757812 67.90625 -92.25 C 71.332031 -89.75 73.304688 -85.691406 73.828125 -80.078125 C 74.222656 -75.921875 73.773438 -71.722656 72.484375 -67.484375 C 71.191406 -63.242188 69 -59.304688 65.90625 -55.671875 C 62.8125 -52.035156 58.800781 -48.972656 53.875 -46.484375 C 48.945312 -43.992188 43.039062 -42.425781 36.15625 -41.78125 L 34.828125 -41.65625 C 33.710938 -38.082031 32.570312 -34.707031 31.40625 -31.53125 C 34.195312 -30.257812 37.085938 -29.21875 40.078125 -28.40625 C 43.066406 -27.601562 46.316406 -27.367188 49.828125 -27.703125 C 52.546875 -27.960938 55.375 -28.570312 58.3125 -29.53125 C 61.25 -30.488281 63.945312 -31.832031 66.40625 -33.5625 C 68.875 -35.289062 70.796875 -37.425781 72.171875 -39.96875 Z M 50.8125 -73.9375 C 50.082031 -73.863281 49.128906 -73.40625 47.953125 -72.5625 C 46.785156 -71.726562 45.429688 -69.882812 43.890625 -67.03125 C 42.347656 -64.175781 40.601562 -59.753906 38.65625 -53.765625 C 38.53125 -53.359375 38.414062 -52.90625 38.3125 -52.40625 C 42.195312 -53.019531 45.398438 -54.3125 47.921875 -56.28125 C 50.441406 -58.25 52.3125 -60.484375 53.53125 -62.984375 C 54.75 -65.484375 55.265625 -67.734375 55.078125 -69.734375 C 54.960938 -70.921875 54.5625 -71.945312 53.875 -72.8125 C 53.1875 -73.6875 52.164062 -74.0625 50.8125 -73.9375 Z M 8.171875 -25.109375 C 10.335938 -25.304688 12.382812 -26.707031 14.3125 -29.3125 C 13.257812 -30.1875 12.203125 -30.851562 11.140625 -31.3125 C 10.085938 -31.78125 9.003906 -31.960938 7.890625 -31.859375 C 6.535156 -31.734375 5.523438 -31.296875 4.859375 -30.546875 C 4.203125 -29.804688 3.914062 -28.992188 4 -28.109375 C 4.082031 -27.234375 4.476562 -26.484375 5.1875 -25.859375 C 5.90625 -25.234375 6.898438 -24.984375 8.171875 -25.109375 Z M 8.171875 -25.109375 "/></g></g><g style="fill:#4897ff;fill-opacity:0.302;"><g transform="translate(56.089379, 280.567305)"><path style="stroke:none" d="M 123.78125 -44.828125 C 124.257812 -45.753906 124.867188 -46.113281 125.609375 -45.90625 C 126.359375 -45.695312 127.085938 -45.238281 127.796875 -44.53125 C 128.515625 -43.832031 129.070312 -43.101562 129.46875 -42.34375 C 128.789062 -40.976562 128.003906 -39.019531 127.109375 -36.46875 C 126.222656 -33.925781 125.128906 -31.203125 123.828125 -28.296875 C 122.523438 -25.390625 120.953125 -22.578125 119.109375 -19.859375 C 117.265625 -17.148438 115.113281 -14.867188 112.65625 -13.015625 C 110.207031 -11.171875 107.34375 -10.097656 104.0625 -9.796875 C 99.65625 -9.378906 96.164062 -10.625 93.59375 -13.53125 C 91.03125 -16.4375 89.488281 -20.613281 88.96875 -26.0625 C 88.644531 -29.5 88.75 -32.894531 89.28125 -36.25 C 89.820312 -39.613281 90.515625 -42.785156 91.359375 -45.765625 C 92.210938 -48.753906 92.957031 -51.363281 93.59375 -53.59375 C 94.226562 -55.832031 94.488281 -57.554688 94.375 -58.765625 C 94.207031 -60.523438 93.363281 -61.335938 91.84375 -61.203125 C 90.800781 -61.097656 89.804688 -60.492188 88.859375 -59.390625 C 87.910156 -58.296875 86.957031 -56.390625 86 -53.671875 C 85.050781 -50.960938 84.035156 -47.15625 82.953125 -42.25 C 81.878906 -37.34375 80.742188 -31.003906 79.546875 -23.234375 C 78.898438 -18.972656 77.648438 -16.144531 75.796875 -14.75 C 73.953125 -13.363281 72.03125 -12.578125 70.03125 -12.390625 C 66.269531 -12.035156 63.6875 -12.4375 62.28125 -13.59375 C 60.882812 -14.757812 60.070312 -16.582031 59.84375 -19.0625 C 59.625 -21.3125 59.75 -23.804688 60.21875 -26.546875 C 60.6875 -29.296875 61.222656 -32.191406 61.828125 -35.234375 C 62.429688 -38.273438 62.953125 -41.332031 63.390625 -44.40625 C 63.828125 -47.476562 63.921875 -50.378906 63.671875 -53.109375 C 63.453125 -55.421875 63.023438 -56.929688 62.390625 -57.640625 C 61.753906 -58.347656 61.039062 -58.664062 60.25 -58.59375 C 58.476562 -58.425781 57.457031 -57.195312 57.1875 -54.90625 C 55.769531 -41.695312 53.09375 -30.890625 49.15625 -22.484375 C 45.226562 -14.078125 40.410156 -7.789062 34.703125 -3.625 C 29.003906 0.539062 22.753906 2.945312 15.953125 3.59375 C 11.316406 4.03125 7.363281 3.410156 4.09375 1.734375 C 0.832031 0.0546875 -1.703125 -2.265625 -3.515625 -5.234375 C -5.335938 -8.210938 -6.40625 -11.34375 -6.71875 -14.625 C -7.03125 -17.90625 -6.664062 -21.109375 -5.625 -24.234375 C -4.582031 -27.359375 -2.945312 -29.972656 -0.71875 -32.078125 C 1.5 -34.179688 4.210938 -35.382812 7.421875 -35.6875 C 8.609375 -35.800781 9.25 -35.378906 9.34375 -34.421875 C 9.59375 -31.785156 10.953125 -29.753906 13.421875 -28.328125 C 15.898438 -26.898438 18.863281 -26.347656 22.3125 -26.671875 C 25.675781 -26.992188 28.757812 -28.113281 31.5625 -30.03125 C 34.375 -31.957031 36.851562 -34.347656 39 -37.203125 C 41.15625 -40.066406 42.960938 -43.179688 44.421875 -46.546875 C 45.878906 -49.921875 46.914062 -53.253906 47.53125 -56.546875 C 48.15625 -59.835938 48.347656 -62.757812 48.109375 -65.3125 C 47.804688 -68.519531 46.832031 -70.890625 45.1875 -72.421875 C 43.550781 -73.960938 41.453125 -74.613281 38.890625 -74.375 C 36.015625 -74.101562 33.550781 -72.800781 31.5 -70.46875 C 29.457031 -68.132812 28.613281 -65.09375 28.96875 -61.34375 C 29.164062 -59.25 29.910156 -57.535156 31.203125 -56.203125 C 32.503906 -54.878906 34.035156 -54.300781 35.796875 -54.46875 C 36.660156 -52.9375 36.722656 -50.984375 35.984375 -48.609375 C 35.242188 -46.234375 33.773438 -44.078125 31.578125 -42.140625 C 29.378906 -40.203125 26.484375 -39.0625 22.890625 -38.71875 C 18.171875 -38.28125 14.082031 -39.632812 10.625 -42.78125 C 7.175781 -45.925781 5.191406 -50.296875 4.671875 -55.890625 C 4.242188 -60.453125 4.753906 -64.878906 6.203125 -69.171875 C 7.660156 -73.472656 9.976562 -77.382812 13.15625 -80.90625 C 16.332031 -84.4375 20.273438 -87.351562 24.984375 -89.65625 C 29.691406 -91.96875 35.046875 -93.40625 41.046875 -93.96875 C 51.535156 -94.957031 59.914062 -92.757812 66.1875 -87.375 C 72.46875 -81.988281 76.597656 -74.335938 78.578125 -64.421875 C 80.179688 -68.765625 82.179688 -73.03125 84.578125 -77.21875 C 86.972656 -81.40625 89.644531 -85.191406 92.59375 -88.578125 C 95.539062 -91.960938 98.644531 -94.738281 101.90625 -96.90625 C 105.175781 -99.070312 108.492188 -100.3125 111.859375 -100.625 C 116.503906 -101.0625 119.898438 -100.128906 122.046875 -97.828125 C 124.203125 -95.523438 125.4375 -92.734375 125.75 -89.453125 C 125.96875 -87.046875 125.75 -84.640625 125.09375 -82.234375 C 124.4375 -79.835938 123.5 -77.8125 122.28125 -76.15625 C 121.0625 -74.507812 119.734375 -73.617188 118.296875 -73.484375 C 117.410156 -73.398438 116.628906 -73.550781 115.953125 -73.9375 C 115.273438 -74.320312 114.535156 -74.476562 113.734375 -74.40625 C 112.535156 -74.289062 111.476562 -73.460938 110.5625 -71.921875 C 109.65625 -70.378906 108.910156 -68.429688 108.328125 -66.078125 C 107.742188 -63.722656 107.289062 -61.238281 106.96875 -58.625 C 106.65625 -56.007812 106.445312 -53.523438 106.34375 -51.171875 C 106.238281 -48.828125 106.253906 -46.9375 106.390625 -45.5 C 106.628906 -43.019531 107.363281 -41.046875 108.59375 -39.578125 C 109.820312 -38.117188 111.796875 -37.519531 114.515625 -37.78125 C 118.347656 -38.132812 121.4375 -40.484375 123.78125 -44.828125 Z M 123.78125 -44.828125 "/></g></g><g style="fill:#4897ff;fill-opacity:0.302;"><g transform="translate(180.662362, 268.844546)"><path style="stroke:none" d="M 12.71875 -1.203125 C 8.632812 -0.816406 5.394531 -2.203125 3 -5.359375 C 0.601562 -8.523438 -0.84375 -12.789062 -1.34375 -18.15625 C -1.664062 -21.507812 -1.582031 -25.125 -1.09375 -29 C -0.613281 -32.882812 0.269531 -36.742188 1.5625 -40.578125 C 2.863281 -44.421875 4.613281 -47.960938 6.8125 -51.203125 C 9.007812 -54.441406 11.664062 -57.113281 14.78125 -59.21875 C 17.894531 -61.320312 21.53125 -62.570312 25.6875 -62.96875 C 28.082031 -63.1875 29.960938 -63.132812 31.328125 -62.8125 C 32.691406 -62.5 33.738281 -62.054688 34.46875 -61.484375 C 35.207031 -60.910156 35.835938 -60.425781 36.359375 -60.03125 C 36.890625 -59.632812 37.554688 -59.472656 38.359375 -59.546875 C 39.710938 -59.679688 40.769531 -60.164062 41.53125 -61 C 42.300781 -61.84375 43.171875 -62.691406 44.140625 -63.546875 C 45.117188 -64.410156 46.53125 -64.925781 48.375 -65.09375 C 49.976562 -65.25 51.113281 -64.957031 51.78125 -64.21875 C 52.445312 -63.476562 52.84375 -62.425781 52.96875 -61.0625 C 53.1875 -58.8125 52.78125 -56.523438 51.75 -54.203125 C 50.71875 -51.890625 49.6875 -48.914062 48.65625 -45.28125 C 47.070312 -40.675781 46.648438 -37.238281 47.390625 -34.96875 C 48.128906 -32.695312 49.816406 -31.6875 52.453125 -31.9375 C 54.546875 -32.132812 56.296875 -32.84375 57.703125 -34.0625 C 59.117188 -35.28125 60.335938 -36.910156 61.359375 -38.953125 C 61.898438 -39.972656 62.6875 -40.390625 63.71875 -40.203125 C 64.75 -40.023438 65.640625 -39.5625 66.390625 -38.8125 C 67.148438 -38.070312 67.367188 -37.289062 67.046875 -36.46875 C 65.867188 -33.53125 64.617188 -30.28125 63.296875 -26.71875 C 61.972656 -23.164062 60.457031 -19.734375 58.75 -16.421875 C 57.050781 -13.117188 55.015625 -10.328125 52.640625 -8.046875 C 50.273438 -5.765625 47.414062 -4.460938 44.0625 -4.140625 C 39.894531 -3.753906 36.789062 -5.160156 34.75 -8.359375 C 32.71875 -11.554688 31.820312 -15.671875 32.0625 -20.703125 L 31.59375 -20.65625 C 29.664062 -15.550781 27.097656 -11.128906 23.890625 -7.390625 C 20.691406 -3.660156 16.96875 -1.597656 12.71875 -1.203125 Z M 22.375 -27.171875 C 24.457031 -27.367188 26.222656 -28.140625 27.671875 -29.484375 C 29.128906 -30.835938 30.21875 -32.410156 30.9375 -34.203125 C 31.65625 -36.003906 31.929688 -37.753906 31.765625 -39.453125 C 31.578125 -41.441406 30.867188 -42.941406 29.640625 -43.953125 C 28.421875 -44.972656 26.851562 -45.390625 24.9375 -45.203125 C 22.851562 -45.003906 21.101562 -44.273438 19.6875 -43.015625 C 18.269531 -41.753906 17.222656 -40.222656 16.546875 -38.421875 C 15.867188 -36.628906 15.613281 -34.851562 15.78125 -33.09375 C 15.96875 -31.09375 16.65625 -29.5625 17.84375 -28.5 C 19.03125 -27.4375 20.539062 -26.992188 22.375 -27.171875 Z M 22.375 -27.171875 "/></g></g><g style="fill:#4897ff;fill-opacity:0.302;"><g transform="translate(242.828889, 262.994456)"><path style="stroke:none" d="M 12.125 -1.140625 C 7.632812 -0.722656 4.195312 -1.789062 1.8125 -4.34375 C -0.5625 -6.90625 -1.957031 -10.40625 -2.375 -14.84375 C -2.789062 -19.289062 -2.351562 -24.160156 -1.0625 -29.453125 C -0.320312 -32.578125 0.519531 -35.960938 1.46875 -39.609375 C 2.425781 -43.253906 3.46875 -47.226562 4.59375 -51.53125 C 2.832031 -51.363281 1.445312 -51.695312 0.4375 -52.53125 C -0.5625 -53.375 -1.257812 -54.398438 -1.65625 -55.609375 C -2.050781 -56.828125 -2.148438 -57.90625 -1.953125 -58.84375 C -1.765625 -59.789062 -1.3125 -60.296875 -0.59375 -60.359375 C 2.925781 -60.691406 5.59375 -61.929688 7.40625 -64.078125 C 9.21875 -66.222656 10.425781 -68.421875 11.03125 -70.671875 C 12.132812 -74.328125 13.320312 -76.675781 14.59375 -77.71875 C 15.875 -78.769531 17.273438 -79.367188 18.796875 -79.515625 C 21.035156 -79.722656 22.519531 -78.910156 23.25 -77.078125 C 23.988281 -75.253906 23.617188 -72.375 22.140625 -68.4375 C 21.429688 -66.4375 21.082031 -64.929688 21.09375 -63.921875 C 21.113281 -62.910156 21.6875 -62.457031 22.8125 -62.5625 L 29.046875 -63.15625 C 29.847656 -63.226562 30.421875 -62.710938 30.765625 -61.609375 C 31.117188 -60.515625 31.222656 -59.234375 31.078125 -57.765625 C 30.929688 -56.296875 30.53125 -54.96875 29.875 -53.78125 C 29.226562 -52.59375 28.300781 -51.941406 27.09375 -51.828125 C 23.414062 -51.484375 20.707031 -51.085938 18.96875 -50.640625 C 17.238281 -50.191406 16.066406 -49.375 15.453125 -48.1875 C 14.835938 -47 14.257812 -45.007812 13.71875 -42.21875 C 12.820312 -37.9375 13.304688 -34.628906 15.171875 -32.296875 C 17.046875 -29.972656 19.75 -28.972656 23.28125 -29.296875 C 25.675781 -29.523438 27.765625 -30.269531 29.546875 -31.53125 C 31.328125 -32.789062 32.734375 -34.398438 33.765625 -36.359375 C 34.304688 -37.378906 35.085938 -37.796875 36.109375 -37.609375 C 37.128906 -37.429688 38.019531 -36.96875 38.78125 -36.21875 C 39.550781 -35.476562 39.769531 -34.691406 39.4375 -33.859375 C 38.84375 -32.429688 38.054688 -30.457031 37.078125 -27.9375 C 36.109375 -25.425781 34.914062 -22.691406 33.5 -19.734375 C 32.082031 -16.785156 30.367188 -13.960938 28.359375 -11.265625 C 26.359375 -8.578125 24.007812 -6.296875 21.3125 -4.421875 C 18.625 -2.554688 15.5625 -1.460938 12.125 -1.140625 Z M 12.125 -1.140625 "/></g></g><g style="fill:#4897ff;fill-opacity:0.302;"><g transform="translate(277.392553, 259.741893)"><path style="stroke:none" d="M 22.578125 -2.125 C 17.773438 -1.675781 13.726562 -2.382812 10.4375 -4.25 C 7.15625 -6.125 4.609375 -8.769531 2.796875 -12.1875 C 0.984375 -15.601562 -0.101562 -19.453125 -0.46875 -23.734375 C -0.84375 -28.023438 -0.507812 -32.378906 0.53125 -36.796875 C 1.570312 -41.222656 3.285156 -45.34375 5.671875 -49.15625 C 8.054688 -52.96875 11.085938 -56.132812 14.765625 -58.65625 C 18.453125 -61.1875 22.734375 -62.679688 27.609375 -63.140625 C 31.367188 -63.492188 34.492188 -63.082031 36.984375 -61.90625 C 39.472656 -60.726562 41.382812 -59.03125 42.71875 -56.8125 C 44.0625 -54.59375 44.859375 -52.164062 45.109375 -49.53125 C 45.378906 -46.644531 44.847656 -43.6875 43.515625 -40.65625 C 42.191406 -37.625 40.175781 -35.035156 37.46875 -32.890625 C 34.769531 -30.742188 31.457031 -29.488281 27.53125 -29.125 C 25.851562 -28.96875 24.203125 -28.929688 22.578125 -29.015625 C 20.953125 -29.097656 19.421875 -29.472656 17.984375 -30.140625 C 17.566406 -30.347656 17.128906 -30.328125 16.671875 -30.078125 C 16.210938 -29.835938 16.019531 -29.316406 16.09375 -28.515625 C 16.289062 -26.429688 17.660156 -24.960938 20.203125 -24.109375 C 22.742188 -23.265625 25.726562 -23.003906 29.15625 -23.328125 C 33.238281 -23.710938 37.363281 -25.148438 41.53125 -27.640625 C 45.707031 -30.128906 48.957031 -33.582031 51.28125 -38 C 51.820312 -39.019531 52.625 -39.441406 53.6875 -39.265625 C 54.757812 -39.085938 55.675781 -38.625 56.4375 -37.875 C 57.195312 -37.132812 57.375 -36.347656 56.96875 -35.515625 C 52.59375 -25.253906 47.503906 -17.285156 41.703125 -11.609375 C 35.910156 -5.941406 29.535156 -2.78125 22.578125 -2.125 Z M 23.546875 -37.828125 C 25.867188 -38.046875 27.625 -38.957031 28.8125 -40.5625 C 30 -42.164062 30.519531 -43.726562 30.375 -45.25 C 30.25 -46.613281 29.675781 -47.726562 28.65625 -48.59375 C 27.644531 -49.46875 26.222656 -49.820312 24.390625 -49.65625 C 22.066406 -49.4375 20.289062 -48.539062 19.0625 -46.96875 C 17.84375 -45.394531 17.3125 -43.8125 17.46875 -42.21875 C 17.582031 -40.925781 18.144531 -39.828125 19.15625 -38.921875 C 20.164062 -38.015625 21.628906 -37.648438 23.546875 -37.828125 Z M 23.546875 -37.828125 "/></g></g><g style="fill:#4897ff;fill-opacity:0.502;"><g transform="translate(54.087226, 276.346197)"><path style="stroke:none" d="M 123.78125 -44.828125 C 124.257812 -45.753906 124.867188 -46.113281 125.609375 -45.90625 C 126.359375 -45.695312 127.085938 -45.238281 127.796875 -44.53125 C 128.515625 -43.832031 129.070312 -43.101562 129.46875 -42.34375 C 128.789062 -40.976562 128.003906 -39.019531 127.109375 -36.46875 C 126.222656 -33.925781 125.128906 -31.203125 123.828125 -28.296875 C 122.523438 -25.390625 120.953125 -22.578125 119.109375 -19.859375 C 117.265625 -17.148438 115.113281 -14.867188 112.65625 -13.015625 C 110.207031 -11.171875 107.34375 -10.097656 104.0625 -9.796875 C 99.65625 -9.378906 96.164062 -10.625 93.59375 -13.53125 C 91.03125 -16.4375 89.488281 -20.613281 88.96875 -26.0625 C 88.644531 -29.5 88.75 -32.894531 89.28125 -36.25 C 89.820312 -39.613281 90.515625 -42.785156 91.359375 -45.765625 C 92.210938 -48.753906 92.957031 -51.363281 93.59375 -53.59375 C 94.226562 -55.832031 94.488281 -57.554688 94.375 -58.765625 C 94.207031 -60.523438 93.363281 -61.335938 91.84375 -61.203125 C 90.800781 -61.097656 89.804688 -60.492188 88.859375 -59.390625 C 87.910156 -58.296875 86.957031 -56.390625 86 -53.671875 C 85.050781 -50.960938 84.035156 -47.15625 82.953125 -42.25 C 81.878906 -37.34375 80.742188 -31.003906 79.546875 -23.234375 C 78.898438 -18.972656 77.648438 -16.144531 75.796875 -14.75 C 73.953125 -13.363281 72.03125 -12.578125 70.03125 -12.390625 C 66.269531 -12.035156 63.6875 -12.4375 62.28125 -13.59375 C 60.882812 -14.757812 60.070312 -16.582031 59.84375 -19.0625 C 59.625 -21.3125 59.75 -23.804688 60.21875 -26.546875 C 60.6875 -29.296875 61.222656 -32.191406 61.828125 -35.234375 C 62.429688 -38.273438 62.953125 -41.332031 63.390625 -44.40625 C 63.828125 -47.476562 63.921875 -50.378906 63.671875 -53.109375 C 63.453125 -55.421875 63.023438 -56.929688 62.390625 -57.640625 C 61.753906 -58.347656 61.039062 -58.664062 60.25 -58.59375 C 58.476562 -58.425781 57.457031 -57.195312 57.1875 -54.90625 C 55.769531 -41.695312 53.09375 -30.890625 49.15625 -22.484375 C 45.226562 -14.078125 40.410156 -7.789062 34.703125 -3.625 C 29.003906 0.539062 22.753906 2.945312 15.953125 3.59375 C 11.316406 4.03125 7.363281 3.410156 4.09375 1.734375 C 0.832031 0.0546875 -1.703125 -2.265625 -3.515625 -5.234375 C -5.335938 -8.210938 -6.40625 -11.34375 -6.71875 -14.625 C -7.03125 -17.90625 -6.664062 -21.109375 -5.625 -24.234375 C -4.582031 -27.359375 -2.945312 -29.972656 -0.71875 -32.078125 C 1.5 -34.179688 4.210938 -35.382812 7.421875 -35.6875 C 8.609375 -35.800781 9.25 -35.378906 9.34375 -34.421875 C 9.59375 -31.785156 10.953125 -29.753906 13.421875 -28.328125 C 15.898438 -26.898438 18.863281 -26.347656 22.3125 -26.671875 C 25.675781 -26.992188 28.757812 -28.113281 31.5625 -30.03125 C 34.375 -31.957031 36.851562 -34.347656 39 -37.203125 C 41.15625 -40.066406 42.960938 -43.179688 44.421875 -46.546875 C 45.878906 -49.921875 46.914062 -53.253906 47.53125 -56.546875 C 48.15625 -59.835938 48.347656 -62.757812 48.109375 -65.3125 C 47.804688 -68.519531 46.832031 -70.890625 45.1875 -72.421875 C 43.550781 -73.960938 41.453125 -74.613281 38.890625 -74.375 C 36.015625 -74.101562 33.550781 -72.800781 31.5 -70.46875 C 29.457031 -68.132812 28.613281 -65.09375 28.96875 -61.34375 C 29.164062 -59.25 29.910156 -57.535156 31.203125 -56.203125 C 32.503906 -54.878906 34.035156 -54.300781 35.796875 -54.46875 C 36.660156 -52.9375 36.722656 -50.984375 35.984375 -48.609375 C 35.242188 -46.234375 33.773438 -44.078125 31.578125 -42.140625 C 29.378906 -40.203125 26.484375 -39.0625 22.890625 -38.71875 C 18.171875 -38.28125 14.082031 -39.632812 10.625 -42.78125 C 7.175781 -45.925781 5.191406 -50.296875 4.671875 -55.890625 C 4.242188 -60.453125 4.753906 -64.878906 6.203125 -69.171875 C 7.660156 -73.472656 9.976562 -77.382812 13.15625 -80.90625 C 16.332031 -84.4375 20.273438 -87.351562 24.984375 -89.65625 C 29.691406 -91.96875 35.046875 -93.40625 41.046875 -93.96875 C 51.535156 -94.957031 59.914062 -92.757812 66.1875 -87.375 C 72.46875 -81.988281 76.597656 -74.335938 78.578125 -64.421875 C 80.179688 -68.765625 82.179688 -73.03125 84.578125 -77.21875 C 86.972656 -81.40625 89.644531 -85.191406 92.59375 -88.578125 C 95.539062 -91.960938 98.644531 -94.738281 101.90625 -96.90625 C 105.175781 -99.070312 108.492188 -100.3125 111.859375 -100.625 C 116.503906 -101.0625 119.898438 -100.128906 122.046875 -97.828125 C 124.203125 -95.523438 125.4375 -92.734375 125.75 -89.453125 C 125.96875 -87.046875 125.75 -84.640625 125.09375 -82.234375 C 124.4375 -79.835938 123.5 -77.8125 122.28125 -76.15625 C 121.0625 -74.507812 119.734375 -73.617188 118.296875 -73.484375 C 117.410156 -73.398438 116.628906 -73.550781 115.953125 -73.9375 C 115.273438 -74.320312 114.535156 -74.476562 113.734375 -74.40625 C 112.535156 -74.289062 111.476562 -73.460938 110.5625 -71.921875 C 109.65625 -70.378906 108.910156 -68.429688 108.328125 -66.078125 C 107.742188 -63.722656 107.289062 -61.238281 106.96875 -58.625 C 106.65625 -56.007812 106.445312 -53.523438 106.34375 -51.171875 C 106.238281 -48.828125 106.253906 -46.9375 106.390625 -45.5 C 106.628906 -43.019531 107.363281 -41.046875 108.59375 -39.578125 C 109.820312 -38.117188 111.796875 -37.519531 114.515625 -37.78125 C 118.347656 -38.132812 121.4375 -40.484375 123.78125 -44.828125 Z M 123.78125 -44.828125 "/></g></g><g style="fill:#4897ff;fill-opacity:0.502;"><g transform="translate(178.660209, 264.623439)"><path style="stroke:none" d="M 12.71875 -1.203125 C 8.632812 -0.816406 5.394531 -2.203125 3 -5.359375 C 0.601562 -8.523438 -0.84375 -12.789062 -1.34375 -18.15625 C -1.664062 -21.507812 -1.582031 -25.125 -1.09375 -29 C -0.613281 -32.882812 0.269531 -36.742188 1.5625 -40.578125 C 2.863281 -44.421875 4.613281 -47.960938 6.8125 -51.203125 C 9.007812 -54.441406 11.664062 -57.113281 14.78125 -59.21875 C 17.894531 -61.320312 21.53125 -62.570312 25.6875 -62.96875 C 28.082031 -63.1875 29.960938 -63.132812 31.328125 -62.8125 C 32.691406 -62.5 33.738281 -62.054688 34.46875 -61.484375 C 35.207031 -60.910156 35.835938 -60.425781 36.359375 -60.03125 C 36.890625 -59.632812 37.554688 -59.472656 38.359375 -59.546875 C 39.710938 -59.679688 40.769531 -60.164062 41.53125 -61 C 42.300781 -61.84375 43.171875 -62.691406 44.140625 -63.546875 C 45.117188 -64.410156 46.53125 -64.925781 48.375 -65.09375 C 49.976562 -65.25 51.113281 -64.957031 51.78125 -64.21875 C 52.445312 -63.476562 52.84375 -62.425781 52.96875 -61.0625 C 53.1875 -58.8125 52.78125 -56.523438 51.75 -54.203125 C 50.71875 -51.890625 49.6875 -48.914062 48.65625 -45.28125 C 47.070312 -40.675781 46.648438 -37.238281 47.390625 -34.96875 C 48.128906 -32.695312 49.816406 -31.6875 52.453125 -31.9375 C 54.546875 -32.132812 56.296875 -32.84375 57.703125 -34.0625 C 59.117188 -35.28125 60.335938 -36.910156 61.359375 -38.953125 C 61.898438 -39.972656 62.6875 -40.390625 63.71875 -40.203125 C 64.75 -40.023438 65.640625 -39.5625 66.390625 -38.8125 C 67.148438 -38.070312 67.367188 -37.289062 67.046875 -36.46875 C 65.867188 -33.53125 64.617188 -30.28125 63.296875 -26.71875 C 61.972656 -23.164062 60.457031 -19.734375 58.75 -16.421875 C 57.050781 -13.117188 55.015625 -10.328125 52.640625 -8.046875 C 50.273438 -5.765625 47.414062 -4.460938 44.0625 -4.140625 C 39.894531 -3.753906 36.789062 -5.160156 34.75 -8.359375 C 32.71875 -11.554688 31.820312 -15.671875 32.0625 -20.703125 L 31.59375 -20.65625 C 29.664062 -15.550781 27.097656 -11.128906 23.890625 -7.390625 C 20.691406 -3.660156 16.96875 -1.597656 12.71875 -1.203125 Z M 22.375 -27.171875 C 24.457031 -27.367188 26.222656 -28.140625 27.671875 -29.484375 C 29.128906 -30.835938 30.21875 -32.410156 30.9375 -34.203125 C 31.65625 -36.003906 31.929688 -37.753906 31.765625 -39.453125 C 31.578125 -41.441406 30.867188 -42.941406 29.640625 -43.953125 C 28.421875 -44.972656 26.851562 -45.390625 24.9375 -45.203125 C 22.851562 -45.003906 21.101562 -44.273438 19.6875 -43.015625 C 18.269531 -41.753906 17.222656 -40.222656 16.546875 -38.421875 C 15.867188 -36.628906 15.613281 -34.851562 15.78125 -33.09375 C 15.96875 -31.09375 16.65625 -29.5625 17.84375 -28.5 C 19.03125 -27.4375 20.539062 -26.992188 22.375 -27.171875 Z M 22.375 -27.171875 "/></g></g><g style="fill:#4897ff;fill-opacity:0.502;"><g transform="translate(240.826736, 258.773348)"><path style="stroke:none" d="M 12.125 -1.140625 C 7.632812 -0.722656 4.195312 -1.789062 1.8125 -4.34375 C -0.5625 -6.90625 -1.957031 -10.40625 -2.375 -14.84375 C -2.789062 -19.289062 -2.351562 -24.160156 -1.0625 -29.453125 C -0.320312 -32.578125 0.519531 -35.960938 1.46875 -39.609375 C 2.425781 -43.253906 3.46875 -47.226562 4.59375 -51.53125 C 2.832031 -51.363281 1.445312 -51.695312 0.4375 -52.53125 C -0.5625 -53.375 -1.257812 -54.398438 -1.65625 -55.609375 C -2.050781 -56.828125 -2.148438 -57.90625 -1.953125 -58.84375 C -1.765625 -59.789062 -1.3125 -60.296875 -0.59375 -60.359375 C 2.925781 -60.691406 5.59375 -61.929688 7.40625 -64.078125 C 9.21875 -66.222656 10.425781 -68.421875 11.03125 -70.671875 C 12.132812 -74.328125 13.320312 -76.675781 14.59375 -77.71875 C 15.875 -78.769531 17.273438 -79.367188 18.796875 -79.515625 C 21.035156 -79.722656 22.519531 -78.910156 23.25 -77.078125 C 23.988281 -75.253906 23.617188 -72.375 22.140625 -68.4375 C 21.429688 -66.4375 21.082031 -64.929688 21.09375 -63.921875 C 21.113281 -62.910156 21.6875 -62.457031 22.8125 -62.5625 L 29.046875 -63.15625 C 29.847656 -63.226562 30.421875 -62.710938 30.765625 -61.609375 C 31.117188 -60.515625 31.222656 -59.234375 31.078125 -57.765625 C 30.929688 -56.296875 30.53125 -54.96875 29.875 -53.78125 C 29.226562 -52.59375 28.300781 -51.941406 27.09375 -51.828125 C 23.414062 -51.484375 20.707031 -51.085938 18.96875 -50.640625 C 17.238281 -50.191406 16.066406 -49.375 15.453125 -48.1875 C 14.835938 -47 14.257812 -45.007812 13.71875 -42.21875 C 12.820312 -37.9375 13.304688 -34.628906 15.171875 -32.296875 C 17.046875 -29.972656 19.75 -28.972656 23.28125 -29.296875 C 25.675781 -29.523438 27.765625 -30.269531 29.546875 -31.53125 C 31.328125 -32.789062 32.734375 -34.398438 33.765625 -36.359375 C 34.304688 -37.378906 35.085938 -37.796875 36.109375 -37.609375 C 37.128906 -37.429688 38.019531 -36.96875 38.78125 -36.21875 C 39.550781 -35.476562 39.769531 -34.691406 39.4375 -33.859375 C 38.84375 -32.429688 38.054688 -30.457031 37.078125 -27.9375 C 36.109375 -25.425781 34.914062 -22.691406 33.5 -19.734375 C 32.082031 -16.785156 30.367188 -13.960938 28.359375 -11.265625 C 26.359375 -8.578125 24.007812 -6.296875 21.3125 -4.421875 C 18.625 -2.554688 15.5625 -1.460938 12.125 -1.140625 Z M 12.125 -1.140625 "/></g></g><g style="fill:#4897ff;fill-opacity:0.502;"><g transform="translate(275.3904, 255.520785)"><path style="stroke:none" d="M 22.578125 -2.125 C 17.773438 -1.675781 13.726562 -2.382812 10.4375 -4.25 C 7.15625 -6.125 4.609375 -8.769531 2.796875 -12.1875 C 0.984375 -15.601562 -0.101562 -19.453125 -0.46875 -23.734375 C -0.84375 -28.023438 -0.507812 -32.378906 0.53125 -36.796875 C 1.570312 -41.222656 3.285156 -45.34375 5.671875 -49.15625 C 8.054688 -52.96875 11.085938 -56.132812 14.765625 -58.65625 C 18.453125 -61.1875 22.734375 -62.679688 27.609375 -63.140625 C 31.367188 -63.492188 34.492188 -63.082031 36.984375 -61.90625 C 39.472656 -60.726562 41.382812 -59.03125 42.71875 -56.8125 C 44.0625 -54.59375 44.859375 -52.164062 45.109375 -49.53125 C 45.378906 -46.644531 44.847656 -43.6875 43.515625 -40.65625 C 42.191406 -37.625 40.175781 -35.035156 37.46875 -32.890625 C 34.769531 -30.742188 31.457031 -29.488281 27.53125 -29.125 C 25.851562 -28.96875 24.203125 -28.929688 22.578125 -29.015625 C 20.953125 -29.097656 19.421875 -29.472656 17.984375 -30.140625 C 17.566406 -30.347656 17.128906 -30.328125 16.671875 -30.078125 C 16.210938 -29.835938 16.019531 -29.316406 16.09375 -28.515625 C 16.289062 -26.429688 17.660156 -24.960938 20.203125 -24.109375 C 22.742188 -23.265625 25.726562 -23.003906 29.15625 -23.328125 C 33.238281 -23.710938 37.363281 -25.148438 41.53125 -27.640625 C 45.707031 -30.128906 48.957031 -33.582031 51.28125 -38 C 51.820312 -39.019531 52.625 -39.441406 53.6875 -39.265625 C 54.757812 -39.085938 55.675781 -38.625 56.4375 -37.875 C 57.195312 -37.132812 57.375 -36.347656 56.96875 -35.515625 C 52.59375 -25.253906 47.503906 -17.285156 41.703125 -11.609375 C 35.910156 -5.941406 29.535156 -2.78125 22.578125 -2.125 Z M 23.546875 -37.828125 C 25.867188 -38.046875 27.625 -38.957031 28.8125 -40.5625 C 30 -42.164062 30.519531 -43.726562 30.375 -45.25 C 30.25 -46.613281 29.675781 -47.726562 28.65625 -48.59375 C 27.644531 -49.46875 26.222656 -49.820312 24.390625 -49.65625 C 22.066406 -49.4375 20.289062 -48.539062 19.0625 -46.96875 C 17.84375 -45.394531 17.3125 -43.8125 17.46875 -42.21875 C 17.582031 -40.925781 18.144531 -39.828125 19.15625 -38.921875 C 20.164062 -38.015625 21.628906 -37.648438 23.546875 -37.828125 Z M 23.546875 -37.828125 "/></g></g><g style="fill:#1772eb;fill-opacity:1;"><g transform="translate(52.085074, 272.125097)"><path style="stroke:none" d="M 123.78125 -44.828125 C 124.257812 -45.753906 124.867188 -46.113281 125.609375 -45.90625 C 126.359375 -45.695312 127.085938 -45.238281 127.796875 -44.53125 C 128.515625 -43.832031 129.070312 -43.101562 129.46875 -42.34375 C 128.789062 -40.976562 128.003906 -39.019531 127.109375 -36.46875 C 126.222656 -33.925781 125.128906 -31.203125 123.828125 -28.296875 C 122.523438 -25.390625 120.953125 -22.578125 119.109375 -19.859375 C 117.265625 -17.148438 115.113281 -14.867188 112.65625 -13.015625 C 110.207031 -11.171875 107.34375 -10.097656 104.0625 -9.796875 C 99.65625 -9.378906 96.164062 -10.625 93.59375 -13.53125 C 91.03125 -16.4375 89.488281 -20.613281 88.96875 -26.0625 C 88.644531 -29.5 88.75 -32.894531 89.28125 -36.25 C 89.820312 -39.613281 90.515625 -42.785156 91.359375 -45.765625 C 92.210938 -48.753906 92.957031 -51.363281 93.59375 -53.59375 C 94.226562 -55.832031 94.488281 -57.554688 94.375 -58.765625 C 94.207031 -60.523438 93.363281 -61.335938 91.84375 -61.203125 C 90.800781 -61.097656 89.804688 -60.492188 88.859375 -59.390625 C 87.910156 -58.296875 86.957031 -56.390625 86 -53.671875 C 85.050781 -50.960938 84.035156 -47.15625 82.953125 -42.25 C 81.878906 -37.34375 80.742188 -31.003906 79.546875 -23.234375 C 78.898438 -18.972656 77.648438 -16.144531 75.796875 -14.75 C 73.953125 -13.363281 72.03125 -12.578125 70.03125 -12.390625 C 66.269531 -12.035156 63.6875 -12.4375 62.28125 -13.59375 C 60.882812 -14.757812 60.070312 -16.582031 59.84375 -19.0625 C 59.625 -21.3125 59.75 -23.804688 60.21875 -26.546875 C 60.6875 -29.296875 61.222656 -32.191406 61.828125 -35.234375 C 62.429688 -38.273438 62.953125 -41.332031 63.390625 -44.40625 C 63.828125 -47.476562 63.921875 -50.378906 63.671875 -53.109375 C 63.453125 -55.421875 63.023438 -56.929688 62.390625 -57.640625 C 61.753906 -58.347656 61.039062 -58.664062 60.25 -58.59375 C 58.476562 -58.425781 57.457031 -57.195312 57.1875 -54.90625 C 55.769531 -41.695312 53.09375 -30.890625 49.15625 -22.484375 C 45.226562 -14.078125 40.410156 -7.789062 34.703125 -3.625 C 29.003906 0.539062 22.753906 2.945312 15.953125 3.59375 C 11.316406 4.03125 7.363281 3.410156 4.09375 1.734375 C 0.832031 0.0546875 -1.703125 -2.265625 -3.515625 -5.234375 C -5.335938 -8.210938 -6.40625 -11.34375 -6.71875 -14.625 C -7.03125 -17.90625 -6.664062 -21.109375 -5.625 -24.234375 C -4.582031 -27.359375 -2.945312 -29.972656 -0.71875 -32.078125 C 1.5 -34.179688 4.210938 -35.382812 7.421875 -35.6875 C 8.609375 -35.800781 9.25 -35.378906 9.34375 -34.421875 C 9.59375 -31.785156 10.953125 -29.753906 13.421875 -28.328125 C 15.898438 -26.898438 18.863281 -26.347656 22.3125 -26.671875 C 25.675781 -26.992188 28.757812 -28.113281 31.5625 -30.03125 C 34.375 -31.957031 36.851562 -34.347656 39 -37.203125 C 41.15625 -40.066406 42.960938 -43.179688 44.421875 -46.546875 C 45.878906 -49.921875 46.914062 -53.253906 47.53125 -56.546875 C 48.15625 -59.835938 48.347656 -62.757812 48.109375 -65.3125 C 47.804688 -68.519531 46.832031 -70.890625 45.1875 -72.421875 C 43.550781 -73.960938 41.453125 -74.613281 38.890625 -74.375 C 36.015625 -74.101562 33.550781 -72.800781 31.5 -70.46875 C 29.457031 -68.132812 28.613281 -65.09375 28.96875 -61.34375 C 29.164062 -59.25 29.910156 -57.535156 31.203125 -56.203125 C 32.503906 -54.878906 34.035156 -54.300781 35.796875 -54.46875 C 36.660156 -52.9375 36.722656 -50.984375 35.984375 -48.609375 C 35.242188 -46.234375 33.773438 -44.078125 31.578125 -42.140625 C 29.378906 -40.203125 26.484375 -39.0625 22.890625 -38.71875 C 18.171875 -38.28125 14.082031 -39.632812 10.625 -42.78125 C 7.175781 -45.925781 5.191406 -50.296875 4.671875 -55.890625 C 4.242188 -60.453125 4.753906 -64.878906 6.203125 -69.171875 C 7.660156 -73.472656 9.976562 -77.382812 13.15625 -80.90625 C 16.332031 -84.4375 20.273438 -87.351562 24.984375 -89.65625 C 29.691406 -91.96875 35.046875 -93.40625 41.046875 -93.96875 C 51.535156 -94.957031 59.914062 -92.757812 66.1875 -87.375 C 72.46875 -81.988281 76.597656 -74.335938 78.578125 -64.421875 C 80.179688 -68.765625 82.179688 -73.03125 84.578125 -77.21875 C 86.972656 -81.40625 89.644531 -85.191406 92.59375 -88.578125 C 95.539062 -91.960938 98.644531 -94.738281 101.90625 -96.90625 C 105.175781 -99.070312 108.492188 -100.3125 111.859375 -100.625 C 116.503906 -101.0625 119.898438 -100.128906 122.046875 -97.828125 C 124.203125 -95.523438 125.4375 -92.734375 125.75 -89.453125 C 125.96875 -87.046875 125.75 -84.640625 125.09375 -82.234375 C 124.4375 -79.835938 123.5 -77.8125 122.28125 -76.15625 C 121.0625 -74.507812 119.734375 -73.617188 118.296875 -73.484375 C 117.410156 -73.398438 116.628906 -73.550781 115.953125 -73.9375 C 115.273438 -74.320312 114.535156 -74.476562 113.734375 -74.40625 C 112.535156 -74.289062 111.476562 -73.460938 110.5625 -71.921875 C 109.65625 -70.378906 108.910156 -68.429688 108.328125 -66.078125 C 107.742188 -63.722656 107.289062 -61.238281 106.96875 -58.625 C 106.65625 -56.007812 106.445312 -53.523438 106.34375 -51.171875 C 106.238281 -48.828125 106.253906 -46.9375 106.390625 -45.5 C 106.628906 -43.019531 107.363281 -41.046875 108.59375 -39.578125 C 109.820312 -38.117188 111.796875 -37.519531 114.515625 -37.78125 C 118.347656 -38.132812 121.4375 -40.484375 123.78125 -44.828125 Z M 123.78125 -44.828125 "/></g></g><g style="fill:#1772eb;fill-opacity:1;"><g transform="translate(176.658057, 260.402338)"><path style="stroke:none" d="M 12.71875 -1.203125 C 8.632812 -0.816406 5.394531 -2.203125 3 -5.359375 C 0.601562 -8.523438 -0.84375 -12.789062 -1.34375 -18.15625 C -1.664062 -21.507812 -1.582031 -25.125 -1.09375 -29 C -0.613281 -32.882812 0.269531 -36.742188 1.5625 -40.578125 C 2.863281 -44.421875 4.613281 -47.960938 6.8125 -51.203125 C 9.007812 -54.441406 11.664062 -57.113281 14.78125 -59.21875 C 17.894531 -61.320312 21.53125 -62.570312 25.6875 -62.96875 C 28.082031 -63.1875 29.960938 -63.132812 31.328125 -62.8125 C 32.691406 -62.5 33.738281 -62.054688 34.46875 -61.484375 C 35.207031 -60.910156 35.835938 -60.425781 36.359375 -60.03125 C 36.890625 -59.632812 37.554688 -59.472656 38.359375 -59.546875 C 39.710938 -59.679688 40.769531 -60.164062 41.53125 -61 C 42.300781 -61.84375 43.171875 -62.691406 44.140625 -63.546875 C 45.117188 -64.410156 46.53125 -64.925781 48.375 -65.09375 C 49.976562 -65.25 51.113281 -64.957031 51.78125 -64.21875 C 52.445312 -63.476562 52.84375 -62.425781 52.96875 -61.0625 C 53.1875 -58.8125 52.78125 -56.523438 51.75 -54.203125 C 50.71875 -51.890625 49.6875 -48.914062 48.65625 -45.28125 C 47.070312 -40.675781 46.648438 -37.238281 47.390625 -34.96875 C 48.128906 -32.695312 49.816406 -31.6875 52.453125 -31.9375 C 54.546875 -32.132812 56.296875 -32.84375 57.703125 -34.0625 C 59.117188 -35.28125 60.335938 -36.910156 61.359375 -38.953125 C 61.898438 -39.972656 62.6875 -40.390625 63.71875 -40.203125 C 64.75 -40.023438 65.640625 -39.5625 66.390625 -38.8125 C 67.148438 -38.070312 67.367188 -37.289062 67.046875 -36.46875 C 65.867188 -33.53125 64.617188 -30.28125 63.296875 -26.71875 C 61.972656 -23.164062 60.457031 -19.734375 58.75 -16.421875 C 57.050781 -13.117188 55.015625 -10.328125 52.640625 -8.046875 C 50.273438 -5.765625 47.414062 -4.460938 44.0625 -4.140625 C 39.894531 -3.753906 36.789062 -5.160156 34.75 -8.359375 C 32.71875 -11.554688 31.820312 -15.671875 32.0625 -20.703125 L 31.59375 -20.65625 C 29.664062 -15.550781 27.097656 -11.128906 23.890625 -7.390625 C 20.691406 -3.660156 16.96875 -1.597656 12.71875 -1.203125 Z M 22.375 -27.171875 C 24.457031 -27.367188 26.222656 -28.140625 27.671875 -29.484375 C 29.128906 -30.835938 30.21875 -32.410156 30.9375 -34.203125 C 31.65625 -36.003906 31.929688 -37.753906 31.765625 -39.453125 C 31.578125 -41.441406 30.867188 -42.941406 29.640625 -43.953125 C 28.421875 -44.972656 26.851562 -45.390625 24.9375 -45.203125 C 22.851562 -45.003906 21.101562 -44.273438 19.6875 -43.015625 C 18.269531 -41.753906 17.222656 -40.222656 16.546875 -38.421875 C 15.867188 -36.628906 15.613281 -34.851562 15.78125 -33.09375 C 15.96875 -31.09375 16.65625 -29.5625 17.84375 -28.5 C 19.03125 -27.4375 20.539062 -26.992188 22.375 -27.171875 Z M 22.375 -27.171875 "/></g></g><g style="fill:#1772eb;fill-opacity:1;"><g transform="translate(238.824584, 254.552248)"><path style="stroke:none" d="M 12.125 -1.140625 C 7.632812 -0.722656 4.195312 -1.789062 1.8125 -4.34375 C -0.5625 -6.90625 -1.957031 -10.40625 -2.375 -14.84375 C -2.789062 -19.289062 -2.351562 -24.160156 -1.0625 -29.453125 C -0.320312 -32.578125 0.519531 -35.960938 1.46875 -39.609375 C 2.425781 -43.253906 3.46875 -47.226562 4.59375 -51.53125 C 2.832031 -51.363281 1.445312 -51.695312 0.4375 -52.53125 C -0.5625 -53.375 -1.257812 -54.398438 -1.65625 -55.609375 C -2.050781 -56.828125 -2.148438 -57.90625 -1.953125 -58.84375 C -1.765625 -59.789062 -1.3125 -60.296875 -0.59375 -60.359375 C 2.925781 -60.691406 5.59375 -61.929688 7.40625 -64.078125 C 9.21875 -66.222656 10.425781 -68.421875 11.03125 -70.671875 C 12.132812 -74.328125 13.320312 -76.675781 14.59375 -77.71875 C 15.875 -78.769531 17.273438 -79.367188 18.796875 -79.515625 C 21.035156 -79.722656 22.519531 -78.910156 23.25 -77.078125 C 23.988281 -75.253906 23.617188 -72.375 22.140625 -68.4375 C 21.429688 -66.4375 21.082031 -64.929688 21.09375 -63.921875 C 21.113281 -62.910156 21.6875 -62.457031 22.8125 -62.5625 L 29.046875 -63.15625 C 29.847656 -63.226562 30.421875 -62.710938 30.765625 -61.609375 C 31.117188 -60.515625 31.222656 -59.234375 31.078125 -57.765625 C 30.929688 -56.296875 30.53125 -54.96875 29.875 -53.78125 C 29.226562 -52.59375 28.300781 -51.941406 27.09375 -51.828125 C 23.414062 -51.484375 20.707031 -51.085938 18.96875 -50.640625 C 17.238281 -50.191406 16.066406 -49.375 15.453125 -48.1875 C 14.835938 -47 14.257812 -45.007812 13.71875 -42.21875 C 12.820312 -37.9375 13.304688 -34.628906 15.171875 -32.296875 C 17.046875 -29.972656 19.75 -28.972656 23.28125 -29.296875 C 25.675781 -29.523438 27.765625 -30.269531 29.546875 -31.53125 C 31.328125 -32.789062 32.734375 -34.398438 33.765625 -36.359375 C 34.304688 -37.378906 35.085938 -37.796875 36.109375 -37.609375 C 37.128906 -37.429688 38.019531 -36.96875 38.78125 -36.21875 C 39.550781 -35.476562 39.769531 -34.691406 39.4375 -33.859375 C 38.84375 -32.429688 38.054688 -30.457031 37.078125 -27.9375 C 36.109375 -25.425781 34.914062 -22.691406 33.5 -19.734375 C 32.082031 -16.785156 30.367188 -13.960938 28.359375 -11.265625 C 26.359375 -8.578125 24.007812 -6.296875 21.3125 -4.421875 C 18.625 -2.554688 15.5625 -1.460938 12.125 -1.140625 Z M 12.125 -1.140625 "/></g></g><g style="fill:#1772eb;fill-opacity:1;"><g transform="translate(273.388248, 251.299685)"><path style="stroke:none" d="M 22.578125 -2.125 C 17.773438 -1.675781 13.726562 -2.382812 10.4375 -4.25 C 7.15625 -6.125 4.609375 -8.769531 2.796875 -12.1875 C 0.984375 -15.601562 -0.101562 -19.453125 -0.46875 -23.734375 C -0.84375 -28.023438 -0.507812 -32.378906 0.53125 -36.796875 C 1.570312 -41.222656 3.285156 -45.34375 5.671875 -49.15625 C 8.054688 -52.96875 11.085938 -56.132812 14.765625 -58.65625 C 18.453125 -61.1875 22.734375 -62.679688 27.609375 -63.140625 C 31.367188 -63.492188 34.492188 -63.082031 36.984375 -61.90625 C 39.472656 -60.726562 41.382812 -59.03125 42.71875 -56.8125 C 44.0625 -54.59375 44.859375 -52.164062 45.109375 -49.53125 C 45.378906 -46.644531 44.847656 -43.6875 43.515625 -40.65625 C 42.191406 -37.625 40.175781 -35.035156 37.46875 -32.890625 C 34.769531 -30.742188 31.457031 -29.488281 27.53125 -29.125 C 25.851562 -28.96875 24.203125 -28.929688 22.578125 -29.015625 C 20.953125 -29.097656 19.421875 -29.472656 17.984375 -30.140625 C 17.566406 -30.347656 17.128906 -30.328125 16.671875 -30.078125 C 16.210938 -29.835938 16.019531 -29.316406 16.09375 -28.515625 C 16.289062 -26.429688 17.660156 -24.960938 20.203125 -24.109375 C 22.742188 -23.265625 25.726562 -23.003906 29.15625 -23.328125 C 33.238281 -23.710938 37.363281 -25.148438 41.53125 -27.640625 C 45.707031 -30.128906 48.957031 -33.582031 51.28125 -38 C 51.820312 -39.019531 52.625 -39.441406 53.6875 -39.265625 C 54.757812 -39.085938 55.675781 -38.625 56.4375 -37.875 C 57.195312 -37.132812 57.375 -36.347656 56.96875 -35.515625 C 52.59375 -25.253906 47.503906 -17.285156 41.703125 -11.609375 C 35.910156 -5.941406 29.535156 -2.78125 22.578125 -2.125 Z M 23.546875 -37.828125 C 25.867188 -38.046875 27.625 -38.957031 28.8125 -40.5625 C 30 -42.164062 30.519531 -43.726562 30.375 -45.25 C 30.25 -46.613281 29.675781 -47.726562 28.65625 -48.59375 C 27.644531 -49.46875 26.222656 -49.820312 24.390625 -49.65625 C 22.066406 -49.4375 20.289062 -48.539062 19.0625 -46.96875 C 17.84375 -45.394531 17.3125 -43.8125 17.46875 -42.21875 C 17.582031 -40.925781 18.144531 -39.828125 19.15625 -38.921875 C 20.164062 -38.015625 21.628906 -37.648438 23.546875 -37.828125 Z M 23.546875 -37.828125 "/></g></g></g></svg>